<svg width="28" height="28" viewBox="0 0 28 28" fill="none" xmlns="http://www.w3.org/2000/svg">
<path d="M20.075 10.2587C19.62 9.8031 18.8803 9.8031 18.4253 10.2587L13.4168 15.2666L11.325 13.1754C10.87 12.7198 10.1303 12.7198 9.67531 13.1754C9.21972 13.6309 9.21972 14.3694 9.67531 14.825L12.592 17.7417C12.8195 17.9698 13.1181 18.0835 13.4168 18.0835C13.7155 18.0835 14.0141 17.9698 14.2416 17.7417L20.075 11.9083C20.5306 11.4528 20.5306 10.7143 20.075 10.2587Z" fill="#0D5667"/>
<path d="M26.8333 12.8333C26.1893 12.8333 25.6667 13.356 25.6667 14C25.6667 20.433 20.433 25.6667 14 25.6667C7.567 25.6667 2.33333 20.433 2.33333 14C2.33333 7.567 7.567 2.33333 14 2.33333C17.1319 2.33333 20.0719 3.55717 22.2792 5.77967C22.7325 6.23758 23.4716 6.23992 23.9289 5.7855C24.3862 5.33167 24.3886 4.59317 23.9347 4.13583C21.2864 1.46883 17.7578 0 14 0C6.28017 0 0 6.28017 0 14C0 21.7198 6.28017 28 14 28C21.7198 28 28 21.7198 28 14C28 13.356 27.4773 12.8333 26.8333 12.8333Z" fill="#0D5667"/>
</svg>
