<svg width="50" height="50" viewBox="0 0 50 50" fill="none" xmlns="http://www.w3.org/2000/svg">
<path d="M25.0059 2.00195C15.4934 2.00195 7.33054 7.79058 3.83398 16.0391C3.8085 16.0823 3.7863 16.1273 3.76758 16.1738C3.68377 16.3757 3.61669 16.5803 3.53906 16.7832C3.43406 17.0572 3.32321 17.3284 3.22852 17.6074C3.05547 18.1167 2.89973 18.629 2.76367 19.1426C2.76233 19.1478 2.76103 19.153 2.75977 19.1582C2.75163 19.1893 2.74043 19.2189 2.73242 19.25C2.6662 19.5069 2.70473 19.7796 2.83952 20.0081C2.97432 20.2366 3.19436 20.4022 3.45124 20.4685C3.70812 20.5348 3.98082 20.4963 4.20936 20.3616C4.43789 20.2269 4.60356 20.0069 4.66992 19.75C4.67364 19.7355 4.67789 19.7215 4.68164 19.707C4.81028 19.2116 4.96184 18.7266 5.125 18.2461C5.21124 17.9925 5.31164 17.7405 5.4082 17.4883C8.43053 9.60774 16.049 4.00195 25.0059 4.00195C36.6144 4.00195 46.0039 13.3915 46.0039 25C46.002 25.1325 46.0265 25.2641 46.0759 25.387C46.1253 25.51 46.1987 25.6219 46.2917 25.7163C46.3848 25.8107 46.4957 25.8856 46.6179 25.9368C46.7402 25.9879 46.8714 26.0142 47.0039 26.0142C47.1364 26.0142 47.2676 25.9879 47.3899 25.9368C47.5121 25.8856 47.623 25.8107 47.7161 25.7163C47.8091 25.6219 47.8825 25.51 47.9319 25.387C47.9813 25.2641 48.0058 25.1325 48.0039 25C48.0039 12.3105 37.6953 2.00195 25.0059 2.00195ZM2.70898 24.0918L2.06445 24.7148L2.00781 25.0625L2.02344 26.0039L2.02539 26.0332L2.02734 26.0605L2.11914 27.3086L2.12109 27.3379L2.125 27.3652L2.28906 28.6035L2.29297 28.6309L2.29883 28.6582L2.5293 29.8828L2.53516 29.9102L2.54297 29.9375L2.78906 30.9297L3.37305 31.6113L4.26758 31.5508L4.75391 30.7988L4.73047 30.4473L4.48828 29.4746L4.27148 28.3418L4.26953 28.3242L4.11328 27.1348L4.02344 25.9297L4.02148 25.9121L4.00781 25.0293L3.59375 24.2344L2.70898 24.0918ZM6.05273 34.9551L5.20898 35.2617L4.94922 36.1191L5.07031 36.4492L5.42578 37.0645L5.44141 37.0898L5.45508 37.1133L6.13867 38.1523L6.1543 38.1758L6.17188 38.1992L6.91406 39.2012L6.92969 39.2246L6.94922 39.2461L7.74805 40.207L7.76758 40.2285L7.78711 40.25L8.64453 41.168L9.48438 41.4785L10.2363 40.9922L10.2969 40.0977L10.1055 39.8027L9.25977 38.8984L9.24805 38.8848L8.50195 37.9863L7.81055 37.0547L7.1582 36.0645L7.15234 36.0527L6.80078 35.4473L6.05273 34.9551ZM40.3887 39.7109C40.1293 39.7161 39.8821 39.8219 39.6992 40.0059C39.4713 40.229 39.2394 40.4465 39.002 40.6582C38.8986 40.744 38.8135 40.8497 38.7519 40.969C38.6902 41.0884 38.6532 41.2189 38.6431 41.3529C38.6331 41.4868 38.6501 41.6214 38.6931 41.7487C38.7362 41.8759 38.8045 41.9932 38.8939 42.0934C38.9832 42.1937 39.0919 42.275 39.2134 42.3323C39.3348 42.3897 39.4666 42.422 39.6008 42.4273C39.7351 42.4326 39.869 42.4108 39.9946 42.3633C40.1202 42.3157 40.235 42.2433 40.332 42.1504C40.5926 41.9181 40.8475 41.6804 41.0977 41.4355C41.2438 41.2966 41.3445 41.1167 41.3865 40.9195C41.4286 40.7224 41.4101 40.5171 41.3334 40.3306C41.2568 40.1441 41.1255 39.9851 40.9569 39.8746C40.7883 39.764 40.5903 39.707 40.3887 39.7109ZM13.8086 42.9707C13.5928 42.9829 13.3869 43.0647 13.2215 43.2038C13.0561 43.3429 12.9402 43.5318 12.8912 43.7422C12.8421 43.9527 12.8626 44.1734 12.9494 44.3712C13.0363 44.5691 13.1849 44.7335 13.373 44.8398C14.2637 45.3604 15.2 45.829 16.1797 46.2363C16.1977 46.2434 16.216 46.2499 16.2344 46.2559C16.5404 46.3827 16.8477 46.5035 17.1562 46.6152C17.2803 46.6625 17.4126 46.6846 17.5453 46.6802C17.678 46.6759 17.8085 46.6451 17.9292 46.5897C18.0499 46.5344 18.1584 46.4555 18.2483 46.3578C18.3382 46.2601 18.4078 46.1455 18.4529 46.0206C18.498 45.8957 18.5178 45.7631 18.5112 45.6304C18.5045 45.4978 18.4715 45.3679 18.4141 45.2481C18.3566 45.1284 18.2759 45.0213 18.1767 44.9331C18.0774 44.8449 17.9616 44.7773 17.8359 44.7344C17.5388 44.6268 17.2432 44.5114 16.9492 44.3887C16.9486 44.3887 16.9479 44.3887 16.9473 44.3887C16.0509 44.016 15.1962 43.5887 14.3828 43.1133C14.2102 43.0089 14.01 42.9592 13.8086 42.9707ZM34.2266 43.9473L33.8848 44.0273L32.8574 44.4727L32.8438 44.4785L31.9414 44.8027L31.3242 45.4531L31.4746 46.3359L32.2734 46.7441L32.6191 46.6855L33.5352 46.3555L33.5645 46.3438L33.5938 46.332L34.6777 45.8633L35.2539 45.1758L35.0488 44.3047L34.2266 43.9473ZM25.9023 45.9688L25.4043 45.998L23.8496 45.9707V45.9922L23.0625 46.3008L22.8262 47.1641L23.377 47.8711L23.7168 47.9648L23.7441 47.9668L23.7812 47.9707H23.8184L25.4277 47.998H25.4648L25.502 47.9961L26.0176 47.9668L26.7949 47.5195L26.9023 46.6309L26.2539 46.0117L25.9023 45.9688Z" fill="#9CC155"/>
<path d="M40.3887 39.7109C40.1293 39.7161 39.8821 39.8219 39.6992 40.0059C39.4713 40.229 39.2394 40.4465 39.0019 40.6582C38.8986 40.744 38.8135 40.8497 38.7519 40.969C38.6902 41.0884 38.6532 41.2189 38.6431 41.3529C38.6331 41.4868 38.6501 41.6214 38.6931 41.7487C38.7362 41.8759 38.8045 41.9932 38.8939 42.0934C38.9832 42.1937 39.0919 42.275 39.2134 42.3323C39.3348 42.3897 39.4666 42.422 39.6008 42.4273C39.7351 42.4326 39.869 42.4108 39.9946 42.3633C40.1202 42.3157 40.235 42.2433 40.332 42.1504C40.5926 41.9181 40.8475 41.6804 41.0977 41.4355C41.2438 41.2966 41.3445 41.1167 41.3865 40.9195C41.4286 40.7224 41.4101 40.5171 41.3334 40.3306C41.2568 40.1441 41.1255 39.9851 40.9569 39.8746C40.7883 39.764 40.5903 39.707 40.3887 39.7109Z" fill="#186282"/>
<path d="M20.375 16.9844V31.9785L21.2407 31.4292L32.104 24.4814L20.375 16.9844ZM21.5 19.0366L30.021 24.4814L21.5 29.9219V19.0366Z" fill="#186282"/>
</svg>
