<svg width="36" height="43" viewBox="0 0 36 43" fill="none" xmlns="http://www.w3.org/2000/svg">
<path d="M23.7094 12.4023C18.7586 9.95437 7.51504 1.98376 4.77941 0.777599C2.04378 -0.42856 -2.22331 1.98375 1.38703 4.94471C4.99809 7.90567 7.9524 10.5379 7.9524 10.5379C4.45068 8.45432 2.46127 8.18177 1.39485 9.98568C0.328426 11.7896 1.72783 14.3955 4.66155 17.402C3.06192 17.8695 1.52832 20.4754 3.06192 22.5461C0.66212 23.0136 1.32881 26.0201 3.66187 28.4922C5.99493 30.9643 17.127 41.5871 23.3267 42.5897C29.5264 43.5916 34.7485 38.1266 35.5927 31.8332C36.1926 27.3565 36.3638 20.6426 33.2596 18.5377C28.7256 15.4643 25.7592 13.4156 23.7094 12.4023Z" fill="#FBCA8E"/>
<path d="M22.7683 6.04772C23.2539 3.36144 24.7797 1.36328 26.5547 2.0151C28.3297 2.66764 26.4958 6.46258 29.3947 10.0206C32.2936 13.5786 34.6011 17.4923 33.7136 21.2282C32.8261 24.9641 21.0522 15.5354 22.7683 6.04772Z" fill="#FBCA8E"/>
</svg>
