<svg width="107" height="117" viewBox="0 0 107 117" fill="none" xmlns="http://www.w3.org/2000/svg">
<path d="M55.0665 103.569C83.4283 103.569 106.42 80.5257 106.42 52.1001C106.42 23.6744 83.4283 0.630859 55.0665 0.630859C26.7047 0.630859 3.71289 23.6744 3.71289 52.1001C3.71289 80.5257 26.7047 103.569 55.0665 103.569Z" fill="#254A63"/>
<path d="M47.0596 57.1403C47.0915 56.8072 47.132 56.4578 47.181 56.0907C47.23 55.7249 47.3144 55.1883 47.4323 54.4832C47.8725 51.8502 48.6173 49.7816 49.6652 48.278C50.7132 46.7744 52.1517 45.6686 53.9827 44.9605C54.7531 44.6795 55.8323 44.3535 57.2218 43.9828C60.5034 43.1083 62.2919 41.7897 62.5865 40.0263C62.8073 38.7099 62.5397 37.5706 61.7842 36.6099C61.0288 35.6493 59.8878 35.0401 58.3642 34.784C56.6282 34.4915 55.2104 34.7854 54.1106 35.6642C53.0101 36.543 52.2994 37.9463 51.977 39.874L51.9408 40.0861L36.7773 37.5364C38.0177 31.9924 40.6781 28.0217 44.7577 25.6264C48.836 23.2297 54.0644 22.5687 60.4459 23.6411C66.4738 24.6551 71.081 26.8553 74.2639 30.2426C77.4468 33.6305 78.6602 37.5806 77.9055 42.0942C77.6336 43.716 77.1671 45.1306 76.5082 46.3368C75.8472 47.5436 74.9867 48.5776 73.9274 49.4379C72.6699 50.4598 70.4853 51.4823 67.3726 52.5056C66.0968 52.9205 65.139 53.2421 64.4964 53.4727C63.1581 53.9729 62.233 54.5308 61.7203 55.1456C61.2077 55.7605 60.8414 56.7261 60.6206 58.0426C60.5971 58.1842 60.5723 58.4034 60.5467 58.7008C60.5204 58.999 60.4928 59.2416 60.4608 59.4295L47.0596 57.1403ZM43.0466 75.5009L45.4429 61.1836L60.5737 63.7268L58.1774 78.0442L43.0466 75.5009Z" fill="white"/>
<path d="M24.7638 106.445C30.2484 106.445 34.6946 101.989 34.6946 96.4917C34.6946 90.9947 30.2484 86.5386 24.7638 86.5386C19.2792 86.5386 14.833 90.9947 14.833 96.4917C14.833 101.989 19.2792 106.445 24.7638 106.445Z" fill="#254A63"/>
<path d="M15.2943 116.977C17.9729 116.977 20.1443 114.8 20.1443 112.116C20.1443 109.431 17.9729 107.255 15.2943 107.255C12.6157 107.255 10.4443 109.431 10.4443 112.116C10.4443 114.8 12.6157 116.977 15.2943 116.977Z" fill="#254A63"/>
<path d="M3.74721 113.621C5.34158 113.621 6.63405 112.325 6.63405 110.727C6.63405 109.129 5.34158 107.834 3.74721 107.834C2.15285 107.834 0.860352 109.129 0.860352 110.727C0.860352 112.325 2.15285 113.621 3.74721 113.621Z" fill="#254A63"/>
</svg>
