<svg fill="none" xmlns="http://www.w3.org/2000/svg" viewBox="0 0 355 252">
  <g clip-path="url(#clip0)">
    <path d="M152.62 179.63s.18-13.7-23.18-7.29c-23.12 6.35-47.78 81.36-47.78 81.36s10.08 7.72 14.05 8.92c3.96 1.2 28.73-44.58 32.06-42.7 2.35 1.32 4.56 29.9 4.56 29.9s27.8-59.24 20.29-70.2z" fill="#254A63"/>
    <path d="M159.6 184.8s20.31-18.51 34.9-15.55c21.82 4.44 42.32 61.24 42.86 66.67.54 5.43-4.6 23.76-26.01 12.35-7.5-3.99-17.1-28.4-15.94-25.95 1.17 2.46-2.38 20.97-2.38 20.97s-39.15-46.1-33.42-58.48z" fill="#254A63"/>
    <path d="M197.4 231.72c.65-21.94-4.39-52.57-2.86-62.12 0 0-20.75-5.86-33.92-4.66-13.2 1.2-22.4 4.66-23.84 5.27-2.45 1.04-16.79 135.5-15.4 141.77 1.7 7.62 80.26 7.23 73.84-3.5 0 0 1.95-69.29 2.18-76.76z" fill="#0B8A85"/>
    <path d="M122.34 176.78s-8.2 147.03-8.2 151.26c0 4.23 15.6 2.53 17.71 2.96 2.12.42 11.9-158.96 11.9-162.37 0-1.13-21.4 3.87-21.4 8.15z" fill="#254A63"/>
    <path d="M196.3 169.25s-8.54-2.93-14.84-3.15c-1.27-.05-4.94 91.6-4.94 104.3 0 3-1.7 56.74-2.12 58.01-.42 1.27 30-2.97 31.69-5.5 1.69-2.55-5.14-140.53-9.78-153.66z" fill="#254A63"/>
    <path d="M175.39 165.42l-1.6-41.43-16.11 1.13-2.31 40.47c4.75 3.37 14.87 3.44 20.02-.17z" fill="#EEAB67"/>
    <path d="M136.18 106.27c2.64 6.85 2.59 12.13-1.88 14.1-4.46 2-14.1-.62-16.74-7.47-2.64-6.86-1.16-14.02 3.3-16 4.47-1.99 12.68 2.52 15.32 9.37z" fill="#FBCA8E"/>
    <path d="M125.16 114.4c3.59 23.46 20.28 39.21 43.82 37.13 21.42-1.9 36.23-31.9 36.84-59.28.6-27.37-14.04-49.02-39.9-48.62-39.61.61-48.31 21.33-40.76 70.77z" fill="#FBCA8E"/>
    <path d="M193.19 104.09c-2.73 6.82-2.74 12.09 1.7 14.13 4.43 2.04 14.1-.45 16.83-7.27 2.72-6.83 1.33-14-3.1-16.04-4.44-2.04-12.71 2.36-15.44 9.18z" fill="#FBCA8E"/>
    <path d="M158.88 101.6c6.28-1.25 11.56-.22 12.74 4.45 1.17 4.66-5.17 7.5-10.38 8.12-5.21.61-7.24-11.58-2.36-12.56z" fill="url(#paint0_linear)"/>
    <path d="M156.12 102.49l1.24-.48c.4-.13.9-.3 1.47-.45.58-.14 1.23-.3 1.96-.4a15.88 15.88 0 015.07-.04c.92.15 1.88.4 2.81.82.93.42 1.84 1 2.56 1.84a4.62 4.62 0 011.1 3.12 5.2 5.2 0 01-1.12 2.91 9.25 9.25 0 01-1.98 1.92c-.68.53-1.38.93-2.04 1.27-.65.35-1.27.6-1.82.83-.56.2-1.04.39-1.45.5l-1.28.37 1.17-.63c.38-.18.81-.46 1.32-.73.26-.14.51-.32.8-.49.27-.17.56-.34.85-.55.58-.4 1.2-.86 1.78-1.39a9.77 9.77 0 001.62-1.81 4.2 4.2 0 00.78-2.25 3.21 3.21 0 00-.82-2.15 5.85 5.85 0 00-2.05-1.51 11.7 11.7 0 00-2.47-.84c-.84-.18-1.68-.3-2.48-.35-.8-.05-1.56-.07-2.27-.04-1.42.04-2.6.2-3.44.32-.83.14-1.3.2-1.3.2z" fill="#A56052"/>
    <path d="M156.15 88.36c.57 4.31 2.98 13.2-9.12 14.22-12.1 1.01-9.23-9.9-9.23-9.9s12.82-3.76 18.35-4.32z" fill="url(#paint1_linear)"/>
    <path d="M150.69 102.73a1.65 1.65 0 100-3.31 1.65 1.65 0 000 3.3z" fill="#643619"/>
    <path d="M153.53 88.04c-13.88.97-21.5 6.5-12.67 6.43 8.82-.07 21.83-7.07 12.67-6.43z" fill="#994D1D"/>
    <path d="M170.7 75.58c-.58 4.31-3.93 25.99 8.18 27 12.1 1.01 9.06-18.36 9.06-18.36s-11.72-8.07-17.25-8.64z" fill="url(#paint2_linear)"/>
    <path d="M175.53 102.73a1.65 1.65 0 100-3.31 1.65 1.65 0 000 3.3z" fill="#643619"/>
    <path d="M173.67 75.42c13.3 4.09 19.48 11.2 10.9 9.13-8.58-2.06-19.67-11.82-10.9-9.13z" fill="#994D1D"/>
    <path d="M134.6 107.5c2.99 0 5.4-.75 5.4-1.69 0-.93-2.41-1.69-5.4-1.69-2.98 0-5.4.76-5.4 1.7 0 .93 2.42 1.68 5.4 1.68z" fill="#F4A29D"/>
    <path d="M191.53 107.5c2.98 0 5.4-.75 5.4-1.69 0-.93-2.42-1.69-5.4-1.69-2.98 0-5.4.76-5.4 1.7 0 .93 2.42 1.68 5.4 1.68z" fill="#F4A29D"/>
    <path d="M127.04 130.67c5.05 11.46 12.1 19.73 20.18 22.9 14.62 5.77 27.28 3.98 38.1-2.13 24.36-13.76 19.5-83.43 19.5-83.43l-6.89 1.35s1.81 45.73-4.53 53.22c-2.7 3.2-13.63-3.03-28.09-3.17-17.1-.16-31.14 7.47-33.63 4.05-3-4.1-7.55-28.01-2.17-54.45 2.14-10.54-10.51-.34-10.51-.34s1.51 47.19 8.04 62z" fill="#B06523"/>
    <path d="M149.42 41.06l4.34-3.12c5.78-4.8 25.17-9.78 32.19-4-1.66.04-.51 1.02-2.18 1.1 9.67 2.19 25.55 6.34 26.66 27.48.5 9.6-.96 22.84-2.78 31.99-2.22.22-2.1-.78-3.86.64a6.52 6.52 0 00-2.2 2.67c.44-10.73-3.03-25.29-10.78-33.77-3.61-3.96-13.26-2.19-18.5-3.31-6.55-1.4-12.69-3.73-17.72-8.02-5.83-4.97-9.24-7.6-5.17-11.66z" fill="#B06523"/>
    <path d="M157.74 37.75c6.26 2.14 14.4 3.82 17.94 9.87l-1.94-.59c6.57 7.89-12.96 29.34-18 34.46-5.74 5.85-13.21 8.8-20.4 10.54-.16-1.26-.02-2.66.27-3.97.3-.75.51-1.47.58-2.09-.22.65-.42 1.36-.58 2.09-.8 2.02-2.24 4.3-3.4 5.48-2.68 2.76-9.01 11.38-9.62 18.09-8.73-34.85-10.37-55.03 5.87-69.67 8.23-7.43 24.97-5.68 29.28-4.2z" fill="#B06523"/>
    <path d="M148.78 132.61l.27-.06c.18-.03.43-.13.77-.14.34 0 .8-.02 1.27.13a5.78 5.78 0 011.5.62c.53.27 1.05.6 1.61.9.28.16.57.3.87.43.3.14.6.3.92.4.63.27 1.32.4 2 .58.7.1 1.41.27 2.15.26l1.1.08 1.1-.03 1.08-.02 1.06-.1c.7-.06 1.38-.08 2.02-.19.63-.09 1.25-.16 1.81-.22.57-.06 1.08-.17 1.54-.23l1.19-.17 1.05-.12-.98.4-1.14.42c-.44.15-.93.36-1.49.5l-1.8.47c-.65.18-1.34.28-2.06.39l-1.1.17c-.37.04-.76.05-1.14.07l-1.16.06-1.19-.06c-.78-.02-1.57-.22-2.34-.34a12.8 12.8 0 01-4.04-1.85c-.56-.37-1.04-.79-1.49-1.1a6.71 6.71 0 00-1.26-.8c-.4-.22-.76-.29-1.07-.37-.32-.06-.6-.04-.77-.06l-.28-.02z" fill="#46271E"/>
    <path d="M196.47 170.57c7.78 17.47 35.02 45.54 39.06 58.33 4.05 12.78-6.07 23.54-18.67 19.96-12.6-3.59-18.98-31.5-22.1-42.9-3.1-11.38-7-21.98-9.95-24.79.8-5.7 7.28-10.2 11.66-10.6z" fill="#FBCA8E"/>
  </g>
  <defs>
    <linearGradient id="paint0_linear" x1="171.18" y1="104.6" x2="159.88" y2="108.11" gradientUnits="userSpaceOnUse">
      <stop stop-color="#D38278"/>
      <stop offset="1" stop-color="#F6B9AD" stop-opacity="0"/>
    </linearGradient>
    <linearGradient id="paint1_linear" x1="146.94" y1="89.03" x2="147.32" y2="100.67" gradientUnits="userSpaceOnUse">
      <stop stop-color="#DA9C68"/>
      <stop offset="1" stop-color="#DA9C68" stop-opacity="0"/>
    </linearGradient>
    <linearGradient id="paint2_linear" x1="179.41" y1="76.57" x2="178.69" y2="98.89" gradientUnits="userSpaceOnUse">
      <stop stop-color="#DA9C68"/>
      <stop offset="1" stop-color="#DA9C68" stop-opacity="0"/>
    </linearGradient>
    <clipPath id="clip0">
      <path fill="#fff" d="M0 0h355v252H0z"/>
    </clipPath>
  </defs>
</svg>