<svg width="1382" height="102" viewBox="0 0 1382 102" fill="none" xmlns="http://www.w3.org/2000/svg">
<path fill-rule="evenodd" clip-rule="evenodd" d="M1045 17.4792L1045 16L1047 16L1047 17.4792L1045 17.4792ZM1045 23.3958L1045 20.4375L1047 20.4375L1047 23.3958L1045 23.3958ZM1045 29.3125L1045 26.3542L1047 26.3542L1047 29.3125L1045 29.3125ZM1045 35.2292L1045 32.2708L1047 32.2708L1047 35.2292L1045 35.2292ZM1045 41.1458L1045 38.1875L1047 38.1875L1047 41.1458L1045 41.1458ZM1045 47.0625L1045 44.1042L1047 44.1042L1047 47.0625L1045 47.0625ZM1045 52.9792L1045 50.0208L1047 50.0208L1047 52.9792L1045 52.9792ZM1045 58.8958L1045 55.9375L1047 55.9375L1047 58.8958L1045 58.8958ZM1045 64.8125L1045 61.8542L1047 61.8542L1047 64.8125L1045 64.8125ZM1045 70.7292L1045 67.7708L1047 67.7708L1047 70.7292L1045 70.7292ZM1045 76.6458L1045 73.6875L1047 73.6875L1047 76.6458L1045 76.6458ZM1045 82.5625L1045 79.6042L1047 79.6042L1047 82.5625L1045 82.5625ZM1045 87L1045 85.5208L1047 85.5208L1047 87L1045 87Z" fill="#C4C4C4"/>
<path fill-rule="evenodd" clip-rule="evenodd" d="M880 17.4792L880 16L882 16L882 17.4792L880 17.4792ZM880 23.3958L880 20.4375L882 20.4375L882 23.3958L880 23.3958ZM880 29.3125L880 26.3542L882 26.3542L882 29.3125L880 29.3125ZM880 35.2292L880 32.2708L882 32.2708L882 35.2292L880 35.2292ZM880 41.1458L880 38.1875L882 38.1875L882 41.1458L880 41.1458ZM880 47.0625L880 44.1042L882 44.1042L882 47.0625L880 47.0625ZM880 52.9792L880 50.0208L882 50.0208L882 52.9792L880 52.9792ZM880 58.8958L880 55.9375L882 55.9375L882 58.8958L880 58.8958ZM880 64.8125L880 61.8542L882 61.8542L882 64.8125L880 64.8125ZM880 70.7292L880 67.7708L882 67.7708L882 70.7292L880 70.7292ZM880 76.6458L880 73.6875L882 73.6875L882 76.6458L880 76.6458ZM880 82.5625L880 79.6042L882 79.6042L882 82.5625L880 82.5625ZM880 87L880 85.5208L882 85.5208L882 87L880 87Z" fill="#C4C4C4"/>
<path fill-rule="evenodd" clip-rule="evenodd" d="M715 17.4792L715 16L717 16L717 17.4792L715 17.4792ZM715 23.3958L715 20.4375L717 20.4375L717 23.3958L715 23.3958ZM715 29.3125L715 26.3542L717 26.3542L717 29.3125L715 29.3125ZM715 35.2292L715 32.2708L717 32.2708L717 35.2292L715 35.2292ZM715 41.1458L715 38.1875L717 38.1875L717 41.1458L715 41.1458ZM715 47.0625L715 44.1042L717 44.1042L717 47.0625L715 47.0625ZM715 52.9792L715 50.0208L717 50.0208L717 52.9792L715 52.9792ZM715 58.8958L715 55.9375L717 55.9375L717 58.8958L715 58.8958ZM715 64.8125L715 61.8542L717 61.8542L717 64.8125L715 64.8125ZM715 70.7292L715 67.7708L717 67.7708L717 70.7292L715 70.7292ZM715 76.6458L715 73.6875L717 73.6875L717 76.6458L715 76.6458ZM715 82.5625L715 79.6042L717 79.6042L717 82.5625L715 82.5625ZM715 87L715 85.5208L717 85.5208L717 87L715 87Z" fill="#C4C4C4"/>
<path fill-rule="evenodd" clip-rule="evenodd" d="M550 17.4792L550 16L552 16L552 17.4792L550 17.4792ZM550 23.3958L550 20.4375L552 20.4375L552 23.3958L550 23.3958ZM550 29.3125L550 26.3542L552 26.3542L552 29.3125L550 29.3125ZM550 35.2292L550 32.2708L552 32.2708L552 35.2292L550 35.2292ZM550 41.1458L550 38.1875L552 38.1875L552 41.1458L550 41.1458ZM550 47.0625L550 44.1042L552 44.1042L552 47.0625L550 47.0625ZM550 52.9792L550 50.0208L552 50.0208L552 52.9792L550 52.9792ZM550 58.8958L550 55.9375L552 55.9375L552 58.8958L550 58.8958ZM550 64.8125L550 61.8542L552 61.8542L552 64.8125L550 64.8125ZM550 70.7292L550 67.7708L552 67.7708L552 70.7292L550 70.7292ZM550 76.6458L550 73.6875L552 73.6875L552 76.6458L550 76.6458ZM550 82.5625L550 79.6042L552 79.6042L552 82.5625L550 82.5625ZM550 87L550 85.5208L552 85.5208L552 87L550 87Z" fill="#C4C4C4"/>
<path fill-rule="evenodd" clip-rule="evenodd" d="M385 17.4792L385 16L387 16L387 17.4792L385 17.4792ZM385 23.3958L385 20.4375L387 20.4375L387 23.3958L385 23.3958ZM385 29.3125L385 26.3542L387 26.3542L387 29.3125L385 29.3125ZM385 35.2292L385 32.2708L387 32.2708L387 35.2292L385 35.2292ZM385 41.1458L385 38.1875L387 38.1875L387 41.1458L385 41.1458ZM385 47.0625L385 44.1042L387 44.1042L387 47.0625L385 47.0625ZM385 52.9792L385 50.0208L387 50.0208L387 52.9792L385 52.9792ZM385 58.8958L385 55.9375L387 55.9375L387 58.8958L385 58.8958ZM385 64.8125L385 61.8542L387 61.8542L387 64.8125L385 64.8125ZM385 70.7292L385 67.7708L387 67.7708L387 70.7292L385 70.7292ZM385 76.6458L385 73.6875L387 73.6875L387 76.6458L385 76.6458ZM385 82.5625L385 79.6042L387 79.6042L387 82.5625L385 82.5625ZM385 87L385 85.5208L387 85.5208L387 87L385 87Z" fill="#C4C4C4"/>
<path fill-rule="evenodd" clip-rule="evenodd" d="M221 17.4792L221 16L223 16L223 17.4792L221 17.4792ZM221 23.3958L221 20.4375L223 20.4375L223 23.3958L221 23.3958ZM221 29.3125L221 26.3542L223 26.3542L223 29.3125L221 29.3125ZM221 35.2292L221 32.2708L223 32.2708L223 35.2292L221 35.2292ZM221 41.1458L221 38.1875L223 38.1875L223 41.1458L221 41.1458ZM221 47.0625L221 44.1042L223 44.1042L223 47.0625L221 47.0625ZM221 52.9792L221 50.0208L223 50.0208L223 52.9792L221 52.9792ZM221 58.8958L221 55.9375L223 55.9375L223 58.8958L221 58.8958ZM221 64.8125L221 61.8542L223 61.8542L223 64.8125L221 64.8125ZM221 70.7292L221 67.7708L223 67.7708L223 70.7292L221 70.7292ZM221 76.6458L221 73.6875L223 73.6875L223 76.6458L221 76.6458ZM221 82.5625L221 79.6042L223 79.6042L223 82.5625L221 82.5625ZM221 87L221 85.5208L223 85.5208L223 87L221 87Z" fill="#C4C4C4"/>
<path fill-rule="evenodd" clip-rule="evenodd" d="M55 17.4792L55 16L57 16L57 17.4792L55 17.4792ZM55 23.3958L55 20.4375L57 20.4375L57 23.3958L55 23.3958ZM55 29.3125L55 26.3542L57 26.3542L57 29.3125L55 29.3125ZM55 35.2292L55 32.2708L57 32.2708L57 35.2292L55 35.2292ZM55 41.1458L55 38.1875L57 38.1875L57 41.1458L55 41.1458ZM55 47.0625L55 44.1042L57 44.1042L57 47.0625L55 47.0625ZM55 52.9792L55 50.0208L57 50.0208L57 52.9792L55 52.9792ZM55 58.8958L55 55.9375L57 55.9375L57 58.8958L55 58.8958ZM55 64.8125L55 61.8542L57 61.8542L57 64.8125L55 64.8125ZM55 70.7292L55 67.7708L57 67.7708L57 70.7292L55 70.7292ZM55 76.6458L55 73.6875L57 73.6875L57 76.6458L55 76.6458ZM55 82.5625L55 79.6042L57 79.6042L57 82.5625L55 82.5625ZM55 87L55 85.5208L57 85.5208L57 87L55 87Z" fill="#C4C4C4"/>
<g filter="url(#filter0_i)">
<path fill-rule="evenodd" clip-rule="evenodd" d="M16 86C16 86 6 86 6 51C6 16 16 16 16 16H1366C1366 16 1376 16 1376 51C1376 86 1366 86 1366 86H16ZM1366 86C1366 92 1366.01 92 1366.02 92L1366.04 91.9999L1366.08 91.9994C1366.11 91.999 1366.14 91.9984 1366.17 91.9976C1366.23 91.9959 1366.3 91.9932 1366.37 91.9894C1366.5 91.9818 1366.65 91.9695 1366.81 91.951C1367.12 91.914 1367.49 91.852 1367.88 91.7525C1368.69 91.5519 1369.61 91.2059 1370.59 90.6358C1372.57 89.4782 1374.52 87.5552 1376.21 84.6018C1379.48 78.8768 1382 68.8748 1382 51C1382 33.1252 1379.48 23.1232 1376.21 17.3982C1374.52 14.4448 1372.57 12.5218 1370.59 11.3642C1369.61 10.7941 1368.69 10.4481 1367.88 10.2475C1367.49 10.148 1367.12 10.086 1366.81 10.049C1366.65 10.0305 1366.5 10.0182 1366.37 10.0106C1366.3 10.0068 1366.23 10.0041 1366.17 10.0024C1366.14 10.0016 1366.11 10.001 1366.08 10.0006L1366.04 10.0001L1366.02 10C1366.01 10 1366 10 1366 16V10H16V16C16 10 15.9897 10 15.9793 10L15.9584 10.0001L15.9155 10.0006C15.8865 10.001 15.8567 10.0016 15.8261 10.0024C15.765 10.0041 15.7006 10.0068 15.6331 10.0106C15.4982 10.0182 15.351 10.0305 15.1924 10.049C14.8749 10.086 14.5132 10.148 14.1151 10.2475C13.3129 10.4481 12.3916 10.7941 11.4143 11.3642C9.42986 12.5218 7.47817 14.4448 5.79054 17.3982C2.51907 23.1232 0 33.1252 0 51C0 68.8748 2.51907 78.8768 5.79054 84.6018C7.47817 87.5552 9.42986 89.4782 11.4143 90.6358C12.3916 91.2059 13.3129 91.5519 14.1151 91.7525C14.5132 91.852 14.8749 91.914 15.1924 91.951C15.351 91.9695 15.4982 91.9818 15.6331 91.9894C15.7006 91.9932 15.765 91.9959 15.8261 91.9976C15.8567 91.9984 15.8865 91.999 15.9155 91.9994L15.9584 91.9999L15.9793 92C15.9897 92 16 92 16 86V92H1366V86Z" fill="url(#paint0_linear)"/>
</g>
<path d="M376 9.5C376 4.25329 380.253 0 385.5 0C390.747 0 395 4.25329 395 9.5V16H376V9.5Z" fill="#9CC155"/>
<path d="M541 9.5C541 4.25329 545.253 0 550.5 0C555.747 0 560 4.25329 560 9.5V16H541V9.5Z" fill="#9CC155"/>
<path d="M706 9.5C706 4.25329 710.253 0 715.5 0C720.747 0 725 4.25329 725 9.5V16H706V9.5Z" fill="#9CC155"/>
<path d="M871 9.5C871 4.25329 875.253 0 880.5 0C885.747 0 890 4.25329 890 9.5V16H871V9.5Z" fill="#9CC155"/>
<path d="M1036 9.5C1036 4.25329 1040.25 0 1045.5 0C1050.75 0 1055 4.25329 1055 9.5V16H1036V9.5Z" fill="#9CC155"/>
<path d="M46 9.5C46 4.25329 50.2533 0 55.5 0C60.7467 0 65 4.25329 65 9.5V16H46V9.5Z" fill="#9CC155"/>
<path d="M212 9.5C212 4.25329 216.253 0 221.5 0C226.747 0 231 4.25329 231 9.5V16H212V9.5Z" fill="#9CC155"/>
<path d="M541 92.5C541 97.7467 545.253 102 550.5 102C555.747 102 560 97.7467 560 92.5V86H541V92.5Z" fill="#9CC155"/>
<path d="M706 92.5C706 97.7467 710.253 102 715.5 102C720.747 102 725 97.7467 725 92.5V86H706V92.5Z" fill="#9CC155"/>
<path d="M871 92.5C871 97.7467 875.253 102 880.5 102C885.747 102 890 97.7467 890 92.5V86H871V92.5Z" fill="#9CC155"/>
<path d="M1036 92.5C1036 97.7467 1040.25 102 1045.5 102C1050.75 102 1055 97.7467 1055 92.5V86H1036V92.5Z" fill="#9CC155"/>
<path d="M212 92.5C212 97.7467 216.253 102 221.5 102C226.747 102 231 97.7467 231 92.5V86H212V92.5Z" fill="#9CC155"/>
<path d="M376 92.5C376 97.7467 380.253 102 385.5 102C390.747 102 395 97.7467 395 92.5V86H376V92.5Z" fill="#9CC155"/>
<path d="M46 92.5C46 97.7467 50.2533 102 55.5 102C60.7467 102 65 97.7467 65 92.5V86H46V92.5Z" fill="#9CC155"/>
<defs>
<filter id="filter0_i" x="0" y="10" width="1382" height="82" filterUnits="userSpaceOnUse" color-interpolation-filters="sRGB">
<feFlood flood-opacity="0" result="BackgroundImageFix"/>
<feBlend mode="normal" in="SourceGraphic" in2="BackgroundImageFix" result="shape"/>
<feColorMatrix in="SourceAlpha" type="matrix" values="0 0 0 0 0 0 0 0 0 0 0 0 0 0 0 0 0 0 127 0" result="hardAlpha"/>
<feOffset/>
<feGaussianBlur stdDeviation="10"/>
<feComposite in2="hardAlpha" operator="arithmetic" k2="-1" k3="1"/>
<feColorMatrix type="matrix" values="0 0 0 0 0 0 0 0 0 0 0 0 0 0 0 0 0 0 0.25 0"/>
<feBlend mode="normal" in2="shape" result="effect1_innerShadow"/>
</filter>
<linearGradient id="paint0_linear" x1="-7.72253e-06" y1="51" x2="1382" y2="50.9999" gradientUnits="userSpaceOnUse">
<stop stop-color="#E9ECA5"/>
<stop offset="1" stop-color="#A7DC52"/>
</linearGradient>
</defs>
</svg>
