<svg width="26" height="26" viewBox="0 0 26 26" fill="none" xmlns="http://www.w3.org/2000/svg">
<path d="M23.5989 14.0208L20.3913 8.46509L20.1673 10.0685L18.5663 9.51877L21.7815 15.0878L21.7984 15.116C22.016 15.4671 22.1309 15.8726 22.1309 16.2891C22.1309 17.5096 21.1464 18.5045 19.9297 18.5213L19.9159 18.5203L19.8806 18.5215H15.5394V17.1166L12.4267 19.5752L15.5394 22.0338V20.6289H19.8986C19.9 20.6289 19.9016 20.6289 19.9031 20.6289L19.9152 20.6288C22.3005 20.6199 24.2383 18.6764 24.2383 16.2891C24.2383 15.4861 24.0173 14.7021 23.5989 14.0208Z" fill="#186282"/>
<path d="M10.6107 19.5344L11.6644 18.5219H6.09942C5.30438 18.5219 4.56363 18.0941 4.16611 17.4056C3.76866 16.7171 3.76866 15.8616 4.16597 15.1731L6.12836 11.7743L7.33125 12.4847L6.7971 8.5542L3.09725 9.98405L4.3137 10.7025L2.34099 14.1196C1.56843 15.458 1.56843 17.1208 2.34099 18.4593C3.11383 19.7977 4.55401 20.6292 6.09942 20.6292H11.6644L10.6107 19.5344Z" fill="#186282"/>
<path d="M8.08049 8.39325L11.0651 3.22344C11.4627 2.53503 12.2034 2.10737 12.9985 2.10737C13.7934 2.10737 14.5342 2.53503 14.9317 3.22351L16.5969 6.10787L15.3348 6.81349L18.9998 8.33052L19.6268 4.41389L18.4365 5.0794L16.7568 2.16989C15.9839 0.831429 14.5439 0 12.9985 0C11.4529 0 10.0129 0.831429 9.24003 2.16982L6.25543 7.33963L7.8236 6.8059L8.08049 8.39325Z" fill="#186282"/>
<path d="M14.0482 15.583V14.0413H14.9101V12.6217H14.0482V7.85596H12.699L9.55548 12.9056V14.0413H12.6076V15.583H14.0482ZM11.2387 12.642L12.6278 10.4314L12.6075 11.0196V12.6405L11.2387 12.642Z" fill="#186282"/>
<path d="M7.57708 22.1733H6.66663V26H9.19561V25.3132H7.57708V22.1733Z" fill="#186282"/>
<path d="M10.9376 22.1733H9.59445V26H10.9376C12.2415 26 12.7865 25.5095 12.7865 24.1848V23.9886C12.7866 22.664 12.2415 22.1733 10.9376 22.1733ZM11.8593 24.1848C11.8593 24.9502 11.6457 25.3132 10.887 25.3132H10.5049V22.8602H10.887C11.6457 22.8602 11.8593 23.2232 11.8593 23.9886V24.1848Z" fill="#186282"/>
<path d="M14.7591 22.1733H13.3204V26H14.2307V24.6263H14.7591C15.4728 24.6263 16.282 24.4694 16.282 23.4489V23.3508C16.2819 22.3353 15.4728 22.1733 14.7591 22.1733ZM15.3604 23.4245C15.3604 23.8562 15.0457 23.9395 14.7983 23.9395H14.2307V22.8602H14.7983C15.0456 22.8602 15.3604 22.9437 15.3604 23.3754V23.4245Z" fill="#186282"/>
<path d="M16.7426 26H19.4232V25.3132H17.653V24.3909H19.1422V23.7041H17.653V22.8602H19.4232V22.1733H16.7426V26Z" fill="#186282"/>
</svg>
