<svg width="26" height="26" viewBox="0 0 26 26" fill="none" xmlns="http://www.w3.org/2000/svg">
<mask id="path-1-inside-1" fill="white">
<path d="M25.2382 7.05697H23.643C23.4842 6.15977 23.1143 5.29305 22.5329 4.53764L23.6307 3.43984C23.9282 3.14233 23.9282 2.66 23.6307 2.3625C23.3332 2.06499 22.8509 2.06499 22.5534 2.3625L21.4548 3.46106C20.7195 2.89672 19.8792 2.53223 19.0082 2.36762V0.772056C19.0082 0.351338 18.6671 0.0102539 18.2464 0.0102539C17.8257 0.0102539 17.4846 0.351338 17.4846 0.772056V2.28215C16.4944 2.3562 15.5199 2.68255 14.6662 3.26076L13.5354 2.12999C13.238 1.83248 12.7556 1.83248 12.4581 2.12999C12.1606 2.4275 12.1606 2.90982 12.4581 3.20733L13.5148 4.264L11.2343 6.54443L10.1703 5.48035C9.8728 5.18284 9.39043 5.18284 9.09292 5.48035C8.79541 5.77786 8.79541 6.26018 9.09292 6.55769L10.157 7.62177L7.87658 9.9022L6.81249 8.83812C6.51503 8.54061 6.03266 8.54061 5.73515 8.83812C5.43764 9.13563 5.43764 9.61795 5.73515 9.91546L6.79924 10.9795L4.51881 13.26L3.45462 12.1958C3.15716 11.8983 2.67479 11.8983 2.37728 12.1958C2.07977 12.4933 2.07977 12.9756 2.37728 13.2731L3.47483 14.3707C2.82705 15.2088 2.44031 16.1847 2.314 17.1876H0.761802C0.341084 17.1876 0 17.5287 0 17.9494C0 18.3701 0.341084 18.7112 0.761802 18.7112H2.32202C2.45534 19.688 2.83644 20.6371 3.46559 21.4557L2.35956 22.5616C2.06205 22.8591 2.06205 23.3415 2.35956 23.639C2.50831 23.7877 2.70328 23.8621 2.8982 23.8621C3.09312 23.8621 3.28814 23.7878 3.43684 23.639L4.54283 22.533C5.37329 23.1713 6.33814 23.5542 7.32996 23.6821V25.2279C7.32996 25.6487 7.67104 25.9897 8.09176 25.9897C8.51248 25.9897 8.85356 25.6487 8.85356 25.2279V23.6788C9.89251 23.5402 10.9008 23.1216 11.755 22.4224L12.8387 23.5061C12.9875 23.6549 13.1824 23.7293 13.3773 23.7293C13.5723 23.7293 13.7673 23.6549 13.916 23.5061C14.2135 23.2086 14.2135 22.7263 13.916 22.4288L12.8527 21.3655L15.0951 19.1232L16.1583 20.1864C16.3071 20.3352 16.5021 20.4096 16.697 20.4096C16.8919 20.4096 17.0869 20.3352 17.2356 20.1864C17.5331 19.8889 17.5331 19.4066 17.2356 19.1091L16.1723 18.0458L18.4147 15.8035L19.478 16.8668C19.6267 17.0155 19.8217 17.0899 20.0166 17.0899C20.2115 17.0899 20.4065 17.0156 20.5552 16.8668C20.8528 16.5692 20.8528 16.0869 20.5552 15.7894L19.492 14.7261L21.7343 12.4838L22.7976 13.5471C22.9463 13.6958 23.1413 13.7702 23.3362 13.7702C23.5312 13.7702 23.7262 13.6959 23.8749 13.5471C24.1724 13.2496 24.1724 12.7672 23.8749 12.4697L22.7375 11.3323C23.3027 10.4978 23.627 9.54781 23.7105 8.58058H25.2378C25.6586 8.58058 25.9996 8.23949 25.9996 7.81878C25.9996 7.39806 25.6589 7.05697 25.2382 7.05697ZM17.8919 14.1718C17.8865 14.1769 17.8807 14.1814 17.8754 14.1867C17.8702 14.192 17.8657 14.1977 17.8606 14.2031L14.5721 17.4915C14.5667 17.4966 14.561 17.5011 14.5558 17.5063C14.5505 17.5116 14.5461 17.5173 14.541 17.5227L11.2523 20.8113C11.247 20.8163 11.2413 20.8208 11.2361 20.826C11.2308 20.8313 11.2264 20.837 11.2214 20.8423L11.1088 20.9549C10.2996 21.7641 9.24457 22.1801 8.18186 22.2053C8.1523 22.2018 8.12239 22.1995 8.09186 22.1995C8.06017 22.1995 8.02914 22.2021 7.99847 22.2058C6.92839 22.1858 5.86445 21.7696 5.04968 20.9549L5.04364 20.9488C3.37316 19.2784 3.37316 16.5603 5.04364 14.8898L14.892 5.0414C15.7273 4.20616 16.8244 3.78854 17.9215 3.78854C18.0034 3.78854 18.0852 3.79164 18.167 3.79626C18.1694 3.79651 18.1719 3.79656 18.1743 3.79677C19.1812 3.85573 20.171 4.2669 20.9406 5.03139C20.9441 5.035 20.9471 5.03891 20.9507 5.04252C20.9548 5.04668 20.9594 5.05018 20.9637 5.05425C22.6275 6.72529 22.6254 9.43822 20.9572 11.1065L17.8919 14.1718Z"/>
</mask>
<path d="M25.2382 7.05697H23.643C23.4842 6.15977 23.1143 5.29305 22.5329 4.53764L23.6307 3.43984C23.9282 3.14233 23.9282 2.66 23.6307 2.3625C23.3332 2.06499 22.8509 2.06499 22.5534 2.3625L21.4548 3.46106C20.7195 2.89672 19.8792 2.53223 19.0082 2.36762V0.772056C19.0082 0.351338 18.6671 0.0102539 18.2464 0.0102539C17.8257 0.0102539 17.4846 0.351338 17.4846 0.772056V2.28215C16.4944 2.3562 15.5199 2.68255 14.6662 3.26076L13.5354 2.12999C13.238 1.83248 12.7556 1.83248 12.4581 2.12999C12.1606 2.4275 12.1606 2.90982 12.4581 3.20733L13.5148 4.264L11.2343 6.54443L10.1703 5.48035C9.8728 5.18284 9.39043 5.18284 9.09292 5.48035C8.79541 5.77786 8.79541 6.26018 9.09292 6.55769L10.157 7.62177L7.87658 9.9022L6.81249 8.83812C6.51503 8.54061 6.03266 8.54061 5.73515 8.83812C5.43764 9.13563 5.43764 9.61795 5.73515 9.91546L6.79924 10.9795L4.51881 13.26L3.45462 12.1958C3.15716 11.8983 2.67479 11.8983 2.37728 12.1958C2.07977 12.4933 2.07977 12.9756 2.37728 13.2731L3.47483 14.3707C2.82705 15.2088 2.44031 16.1847 2.314 17.1876H0.761802C0.341084 17.1876 0 17.5287 0 17.9494C0 18.3701 0.341084 18.7112 0.761802 18.7112H2.32202C2.45534 19.688 2.83644 20.6371 3.46559 21.4557L2.35956 22.5616C2.06205 22.8591 2.06205 23.3415 2.35956 23.639C2.50831 23.7877 2.70328 23.8621 2.8982 23.8621C3.09312 23.8621 3.28814 23.7878 3.43684 23.639L4.54283 22.533C5.37329 23.1713 6.33814 23.5542 7.32996 23.6821V25.2279C7.32996 25.6487 7.67104 25.9897 8.09176 25.9897C8.51248 25.9897 8.85356 25.6487 8.85356 25.2279V23.6788C9.89251 23.5402 10.9008 23.1216 11.755 22.4224L12.8387 23.5061C12.9875 23.6549 13.1824 23.7293 13.3773 23.7293C13.5723 23.7293 13.7673 23.6549 13.916 23.5061C14.2135 23.2086 14.2135 22.7263 13.916 22.4288L12.8527 21.3655L15.0951 19.1232L16.1583 20.1864C16.3071 20.3352 16.5021 20.4096 16.697 20.4096C16.8919 20.4096 17.0869 20.3352 17.2356 20.1864C17.5331 19.8889 17.5331 19.4066 17.2356 19.1091L16.1723 18.0458L18.4147 15.8035L19.478 16.8668C19.6267 17.0155 19.8217 17.0899 20.0166 17.0899C20.2115 17.0899 20.4065 17.0156 20.5552 16.8668C20.8528 16.5692 20.8528 16.0869 20.5552 15.7894L19.492 14.7261L21.7343 12.4838L22.7976 13.5471C22.9463 13.6958 23.1413 13.7702 23.3362 13.7702C23.5312 13.7702 23.7262 13.6959 23.8749 13.5471C24.1724 13.2496 24.1724 12.7672 23.8749 12.4697L22.7375 11.3323C23.3027 10.4978 23.627 9.54781 23.7105 8.58058H25.2378C25.6586 8.58058 25.9996 8.23949 25.9996 7.81878C25.9996 7.39806 25.6589 7.05697 25.2382 7.05697ZM17.8919 14.1718C17.8865 14.1769 17.8807 14.1814 17.8754 14.1867C17.8702 14.192 17.8657 14.1977 17.8606 14.2031L14.5721 17.4915C14.5667 17.4966 14.561 17.5011 14.5558 17.5063C14.5505 17.5116 14.5461 17.5173 14.541 17.5227L11.2523 20.8113C11.247 20.8163 11.2413 20.8208 11.2361 20.826C11.2308 20.8313 11.2264 20.837 11.2214 20.8423L11.1088 20.9549C10.2996 21.7641 9.24457 22.1801 8.18186 22.2053C8.1523 22.2018 8.12239 22.1995 8.09186 22.1995C8.06017 22.1995 8.02914 22.2021 7.99847 22.2058C6.92839 22.1858 5.86445 21.7696 5.04968 20.9549L5.04364 20.9488C3.37316 19.2784 3.37316 16.5603 5.04364 14.8898L14.892 5.0414C15.7273 4.20616 16.8244 3.78854 17.9215 3.78854C18.0034 3.78854 18.0852 3.79164 18.167 3.79626C18.1694 3.79651 18.1719 3.79656 18.1743 3.79677C19.1812 3.85573 20.171 4.2669 20.9406 5.03139C20.9441 5.035 20.9471 5.03891 20.9507 5.04252C20.9548 5.04668 20.9594 5.05018 20.9637 5.05425C22.6275 6.72529 22.6254 9.43822 20.9572 11.1065L17.8919 14.1718Z" fill="#186282" stroke="white" stroke-width="0.4" mask="url(#path-1-inside-1)"/>
<path d="M11.7646 14.2879C11.7646 15.0176 12.358 15.6109 13.0876 15.6109C13.4531 15.6109 13.7494 15.9072 13.7494 16.2727C13.7494 16.6382 13.4531 16.9345 13.0876 16.9345C11.6283 16.9345 10.441 15.7472 10.441 14.2879C10.441 13.9224 10.7373 13.6261 11.1028 13.6261C11.4683 13.6261 11.7646 13.9224 11.7646 14.2879Z" fill="#186282" stroke="white" stroke-width="0.2"/>
<path d="M18.3671 6.9928L18.3671 6.9928C17.8671 7.49278 17.592 8.15708 17.592 8.86422C17.592 9.57132 17.8671 10.2356 18.3671 10.7356C18.4964 10.8649 18.6656 10.9295 18.8351 10.9295C19.0046 10.9295 19.1738 10.8649 19.3031 10.7356L19.3031 10.7356C19.5615 10.4771 19.5615 10.0581 19.3031 9.79967C19.0533 9.54994 18.9156 9.2174 18.9156 8.86422C18.9156 8.51104 19.0533 8.1785 19.3031 7.92877L18.3671 6.9928ZM18.3671 6.9928C18.6256 6.73435 19.0447 6.73439 19.3031 6.9928M18.3671 6.9928H19.3031M19.3031 6.9928C19.5615 7.25125 19.5615 7.67025 19.3031 7.92877V6.9928Z" fill="#186282" stroke="white" stroke-width="0.2"/>
<path d="M7.0306 16.3103L7.03059 16.3103C6.77215 16.0519 6.77214 15.6329 7.0306 15.3744C7.28905 15.116 7.70806 15.116 7.96651 15.3744C8.99835 16.4062 8.99835 18.0854 7.96651 19.1172C7.70806 19.3757 7.28905 19.3757 7.0306 19.1172C6.77214 18.8588 6.77214 18.4398 7.0306 18.1813C7.54649 17.6654 7.54649 16.8262 7.0306 16.3103Z" fill="#186282" stroke="white" stroke-width="0.2"/>
<path d="M12.7253 8.49648L12.7253 8.49648C12.9837 8.23802 13.4027 8.23802 13.6612 8.49648C14.693 9.52832 14.693 11.2074 13.6612 12.2393C13.4027 12.4977 12.9837 12.4977 12.7253 12.2393C12.4668 11.9808 12.4668 11.5618 12.7253 11.3034C13.2412 10.7875 13.2412 9.94829 12.7253 9.4324C12.4668 9.17394 12.4668 8.75489 12.7253 8.49648Z" fill="#186282" stroke="white" stroke-width="0.2"/>
</svg>
