<svg width="100" height="73" viewBox="0 0 100 73" fill="none" xmlns="http://www.w3.org/2000/svg">
<g clip-path="url(#clip0)">
<mask id="path-1-inside-1" fill="white">
<path d="M-6.09756e-05 70.9156C0.672832 69.8174 1.78911 69.9327 2.96423 69.9427C2.96423 69.2739 2.96643 68.6662 2.96374 68.0588C2.95422 65.7576 3.62907 64.9797 5.85161 64.6714C6.02179 63.5128 6.05158 62.3282 6.39779 61.2449C6.70567 60.2817 7.38247 59.4398 7.86077 58.5257C8.07465 58.117 8.34444 57.6631 8.34566 57.229C8.37276 47.3983 8.36642 37.5674 8.36397 27.7365C8.36397 27.4499 8.33907 27.163 8.31905 26.7364C6.69102 26.7364 5.1084 26.7433 3.52603 26.7325C3.0072 26.7291 2.47592 26.7435 1.97296 26.6402C0.658182 26.3704 0.0663493 25.1807 0.609595 23.957C0.753647 23.6322 0.954587 23.3312 1.14503 23.0292C4.8601 17.1428 8.60252 11.2738 12.2773 5.36257C13.2393 3.81511 14.4937 3.14173 16.3005 3.14808C25.9686 3.18202 35.6366 3.15516 45.3047 3.18104C46.0645 3.18299 46.5863 2.98572 47.0175 2.35824C47.4025 1.7979 47.8627 1.28224 48.3349 0.790027C49.3477 -0.265458 50.6615 -0.257645 51.6855 0.779284C51.8224 0.917964 51.9767 1.05347 52.0688 1.22023C52.9954 2.89758 54.3988 3.235 56.268 3.21254C65.4141 3.10291 74.5621 3.17738 83.7091 3.14173C85.5166 3.13465 86.7691 3.82268 87.7299 5.36574C91.3746 11.2189 95.0848 17.0317 98.7701 22.8597C98.9266 23.1071 99.0895 23.3512 99.2313 23.6068C100.105 25.1816 99.362 26.6197 97.5623 26.7132C96.1013 26.7892 94.6334 26.7359 93.1687 26.7394C92.7151 26.7403 92.2614 26.7396 91.7279 26.7396C91.7279 41.1301 91.7279 55.4635 91.7279 69.8846C91.9836 69.9058 92.2617 69.9481 92.54 69.949C94.3304 69.9551 96.1208 69.949 97.9112 69.9532C99.2875 69.9564 100.018 70.4869 99.9987 71.4567C99.9802 72.3925 99.2868 72.8813 97.952 72.8818C87.828 72.8855 77.7044 72.8884 67.5805 72.8882C45.8028 72.8874 24.0253 72.8813 2.24763 72.8948C1.31154 72.8953 0.500946 72.7844 -0.0010376 71.8923C-6.09756e-05 71.5668 -6.09756e-05 71.2411 -6.09756e-05 70.9156ZM88.6484 69.919C88.6484 55.4835 88.6484 41.1482 88.6484 26.7391C87.7721 26.7391 86.9623 26.7662 86.1551 26.7315C85.3413 26.6964 84.6872 26.3878 84.55 25.4749C84.4013 24.4843 85.0422 23.8241 86.2073 23.8173C89.0393 23.8007 91.8715 23.8112 94.7037 23.8107C95.0355 23.8107 95.3673 23.8107 95.8422 23.8107C95.588 23.3646 95.4157 23.1263 95.3075 22.8619C94.8265 21.6858 93.9988 21.3799 92.7219 21.3921C85.2029 21.4649 77.6826 21.428 70.1627 21.428C69.7918 21.428 69.4207 21.428 68.8655 21.428C69.2676 21.9395 69.5591 22.2418 69.7706 22.5926C70.3692 23.5856 71.1976 23.895 72.3627 23.8398C74.5064 23.7382 76.6584 23.8046 78.807 23.8144C79.6742 23.8183 80.2333 24.2353 80.3347 25.127C80.4287 25.9544 79.8818 26.5855 78.9703 26.7176C78.6507 26.764 78.3209 26.7464 77.9959 26.7469C76.4704 26.7494 74.9447 26.7482 73.3997 26.7482C74.0572 29.0278 73.3936 29.8799 71.0326 29.8836C69.91 29.8853 68.7873 29.8838 67.6183 29.8838C67.6183 31.6059 67.6188 33.1653 67.6181 34.7247C67.6166 38.2078 67.6249 41.6912 67.6056 45.1743C67.6003 46.1524 67.0753 46.7184 66.2457 46.7626C65.3914 46.808 64.7864 46.2205 64.6953 45.2366C64.6684 44.9458 64.6845 44.6511 64.6845 44.3581C64.6841 39.4425 64.7016 34.5269 64.6587 29.6116C64.654 29.0881 64.4179 28.4682 64.0842 28.0612C59.6261 22.6256 55.1317 17.2195 50.6446 11.8078C50.4464 11.5688 50.2298 11.3449 49.9922 11.0809C49.7378 11.3764 49.5452 11.5929 49.3604 11.8158C44.874 17.2283 40.3791 22.6341 35.9213 28.07C35.588 28.4763 35.3544 29.0999 35.3534 29.6231C35.3248 42.7096 35.3336 55.7958 35.3358 68.8823C35.3358 69.2227 35.3358 69.5628 35.3358 69.8738C37.2717 69.8738 39.0441 69.8738 40.8574 69.8738C40.8574 69.4068 40.8574 69.0173 40.8574 68.6282C40.8552 61.4991 40.8506 54.3697 40.8528 47.2406C40.8535 45.2815 41.8274 44.3071 43.7829 44.3054C47.8847 44.3017 51.9863 44.3056 56.0881 44.3112C58.2454 44.3142 59.1556 45.2337 59.1559 47.3956C59.1561 54.5247 59.1556 61.6541 59.1556 68.7832C59.1556 69.1567 59.1556 69.5301 59.1556 69.8792C61.0867 69.8792 62.859 69.8792 64.6841 69.8792C64.6841 69.4522 64.6841 69.0969 64.6841 68.7419C64.6841 63.5009 64.6816 58.2598 64.6892 53.0185C64.6897 52.6323 64.7097 52.2319 64.812 51.8632C65.012 51.1422 65.5576 50.7801 66.2794 50.8409C66.9962 50.901 67.4772 51.3353 67.5807 52.08C67.6298 52.4323 67.6198 52.7944 67.6198 53.1521C67.6198 58.3607 67.6169 63.5692 67.6147 68.7778C67.6144 69.1514 67.6147 69.5252 67.6147 69.9187C74.7052 69.919 81.6333 69.919 88.6484 69.919ZM11.3693 26.7782C11.3693 36.6216 11.3693 46.3599 11.3693 56.1577C13.7684 55.5548 16.0263 55.7521 17.9483 57.2139C19.0072 58.0191 19.9604 58.5199 21.3321 58.3126C21.9051 58.2261 22.2974 58.2095 22.7001 57.7102C24.5119 55.4643 26.8795 54.461 29.7608 54.88C30.6368 55.0074 31.4835 55.3353 32.319 55.5648C32.319 47.0082 32.319 38.4705 32.319 29.8841C31.5902 29.8841 30.941 29.8846 30.2918 29.8838C29.6411 29.8831 28.9893 29.907 28.34 29.8748C26.6883 29.7928 25.9832 28.7034 26.5423 27.1346C26.5787 27.0323 26.5899 26.9208 26.6202 26.7779C21.5022 26.7782 16.468 26.7782 11.3693 26.7782ZM56.152 69.9146C56.152 62.3099 56.152 54.8177 56.152 47.3246C52.0041 47.3246 47.9301 47.3246 43.8583 47.3246C43.8583 54.8998 43.8583 62.3917 43.8583 69.9146C47.9828 69.9146 52.0375 69.9146 56.152 69.9146ZM10.8534 13.1509C11.2858 13.1821 11.5658 13.2202 11.8459 13.2202C20.0766 13.2217 28.3073 13.2212 36.5378 13.2156C38.0645 13.2146 39.057 12.4778 39.6603 10.8798C36.383 10.8798 33.1331 10.8819 29.8829 10.8768C29.4942 10.8763 29.1003 10.8697 28.7182 10.8077C27.8869 10.6727 27.4542 10.1531 27.4989 9.31569C27.5409 8.52609 28.0004 8.07026 28.792 7.98529C29.1143 7.95062 29.4412 7.95013 29.7659 7.94989C33.5723 7.94745 37.3784 7.94915 41.1848 7.9472C42.4771 7.94647 43.1776 7.41885 43.6129 6.09479C43.2101 6.09479 42.8221 6.09479 42.4342 6.09479C33.8782 6.09479 25.322 6.09479 16.7661 6.09479C15.1285 6.09479 14.9479 6.22615 14.3392 7.90301C14.6058 7.91863 14.8566 7.94525 15.1073 7.94622C17.417 7.95428 19.7267 7.94183 22.0362 7.97113C22.9049 7.98211 23.4369 8.45797 23.4972 9.35085C23.5517 10.1585 23.0494 10.7066 22.1463 10.8436C21.8274 10.892 21.4983 10.8824 21.1736 10.8824C18.4735 10.8837 15.7731 10.8715 13.0732 10.8924C12.7505 10.8949 12.3078 10.9733 12.1306 11.1889C11.6672 11.7533 11.3202 12.413 10.8534 13.1509ZM30.4913 26.8668C32.0515 27.1085 33.1248 26.9286 34.1566 25.6429C38.7987 19.8591 43.5819 14.1883 48.3156 8.47775C49.6365 6.88439 50.3795 6.88561 51.7035 8.48312C56.437 14.1937 61.22 19.8644 65.8624 25.6482C66.8944 26.9337 67.9626 27.1137 69.5025 26.8514C62.9796 18.9821 56.5219 11.1915 50.0054 3.32973C43.4562 11.2291 37.0112 19.0028 30.4913 26.8668ZM32.3947 64.6606C32.3947 63.0165 32.4135 61.4317 32.375 59.8483C32.3689 59.6015 32.1379 59.3273 31.9492 59.1227C29.8968 56.8992 26.1505 57.3772 24.6218 60.048C23.6579 61.7322 23.5993 61.7583 21.8052 61.3049C20.1594 60.8889 18.5509 61.9124 18.2225 63.5846C18.0357 64.5354 18.1895 64.7283 19.1737 64.7292C23.268 64.7327 27.362 64.7319 31.4562 64.728C31.7387 64.7275 32.0207 64.6885 32.3947 64.6606ZM89.1604 13.2227C88.926 12.814 88.7719 12.6018 88.6745 12.3662C88.1799 11.1676 87.3378 10.8319 86.0228 10.8434C77.8301 10.9152 69.6365 10.8795 61.4434 10.8795C61.0713 10.8795 60.699 10.8795 60.1337 10.8795C60.4614 11.3058 60.6794 11.5373 60.8379 11.8041C61.5191 12.9529 62.4747 13.2717 63.8268 13.259C71.8244 13.1846 79.8227 13.2224 87.821 13.2224C88.2028 13.2227 88.5844 13.2227 89.1604 13.2227ZM5.94732 69.8985C14.8085 69.8985 23.5519 69.8985 32.3335 69.8985C32.3335 69.1514 32.3335 68.4592 32.3335 67.7411C23.5014 67.7411 14.7352 67.7411 5.94732 67.7411C5.94732 68.4924 5.94732 69.1638 5.94732 69.8985ZM7.47403 18.4969C8.02264 18.4969 8.36446 18.4969 8.70604 18.4969C16.4453 18.494 24.1857 18.4173 31.923 18.5414C33.7969 18.5714 34.4928 17.5103 35.3446 16.2929C35.2167 16.2316 35.162 16.1826 35.1073 16.1826C26.5553 16.1713 18.0032 16.1616 9.4512 16.1677C9.22658 16.1679 8.9165 16.2822 8.7932 16.4509C8.35934 17.0435 7.98993 17.6829 7.47403 18.4969ZM64.4592 16.154C64.8955 16.6846 65.1885 16.9543 65.3755 17.2842C65.9634 18.3216 66.84 18.5196 67.9809 18.513C75.7243 18.4683 83.4679 18.4942 91.2115 18.4972C91.5858 18.4974 91.9604 18.4972 92.5222 18.4972C92.1242 17.8501 91.8092 17.4046 91.5646 16.9233C91.2643 16.333 90.8453 16.1381 90.1707 16.1401C82.0694 16.1645 73.9678 16.155 65.8663 16.1542C65.4868 16.154 65.1079 16.154 64.4592 16.154ZM4.17866 23.7206C4.4714 23.7736 4.56321 23.8049 4.65501 23.8049C12.654 23.8061 20.6531 23.8075 28.6521 23.7931C28.9153 23.7926 29.2612 23.706 29.4261 23.5275C29.9871 22.92 30.4845 22.2535 31.0707 21.5296C30.8129 21.4829 30.6939 21.4429 30.575 21.4427C22.4459 21.4361 14.317 21.43 6.18782 21.4422C5.93536 21.4427 5.58841 21.5633 5.44827 21.75C5.00684 22.3385 4.6428 22.9852 4.17866 23.7206ZM56.3654 6.09504C56.9863 6.90344 57.179 7.97821 58.505 7.97137C67.2623 7.92669 76.02 7.94842 84.7776 7.94842C85.083 7.94842 85.3884 7.94842 85.7405 7.94842C85.2639 6.53867 84.4951 6.04621 83.0812 6.05841C74.5196 6.13215 65.9571 6.09504 57.3948 6.09504C57.0515 6.09504 56.7085 6.09504 56.3654 6.09504ZM16.6018 59.8461C15.4169 58.6441 13.2361 58.3697 11.4254 59.3639C9.4656 60.4399 8.57981 62.4449 9.12086 64.666C11.13 64.666 13.1526 64.666 14.8851 64.666C15.4796 62.9972 16.0209 61.4773 16.6018 59.8461Z"/>
<path d="M72.7331 43.2791C72.7331 41.0334 72.726 38.7879 72.7353 36.5421C72.7438 34.4448 73.6638 33.539 75.7814 33.5302C77.3435 33.5236 78.9058 33.5178 80.4679 33.5322C82.3477 33.5495 83.3273 34.4687 83.337 36.3233C83.3614 41.0097 83.3607 45.6965 83.3348 50.3828C83.3251 52.1449 82.2864 53.1071 80.4909 53.1191C78.8636 53.13 77.2363 53.1293 75.609 53.1193C73.7375 53.1078 72.7429 52.1129 72.7289 50.2112C72.7121 47.9005 72.725 45.5898 72.725 43.2791C72.7277 43.2791 72.7304 43.2791 72.7331 43.2791ZM80.3515 50.143C80.3515 45.5659 80.3515 41.0671 80.3515 36.5302C78.7818 36.5302 77.2746 36.5302 75.7284 36.5302C75.7284 41.0988 75.7284 45.5969 75.7284 50.143C77.2759 50.143 78.7598 50.143 80.3515 50.143Z"/>
<path d="M49.9744 35.1612C48.6416 35.1605 47.308 35.1861 45.9759 35.1536C44.5398 35.1187 43.683 34.3726 43.6349 32.9548C43.5688 31.0079 43.5187 29.0461 43.6796 27.1087C43.9362 24.0218 45.9495 22.0906 49.0132 21.7444C52.1235 21.3928 54.5606 22.5274 55.758 24.9362C56.0131 25.4494 56.2414 26.033 56.2663 26.5935C56.3598 28.7016 56.426 30.815 56.3803 32.9238C56.3486 34.3843 55.4699 35.1092 53.9732 35.161C53.9083 35.1632 53.8431 35.1619 53.7781 35.1619C52.5102 35.1617 51.2423 35.1617 49.9744 35.1612ZM53.4544 32.1857C53.4544 30.4773 53.5157 28.8862 53.4356 27.3021C53.3682 25.9692 52.5215 24.9775 51.2604 24.7756C50.4139 24.6401 49.5054 24.6523 48.6606 24.8024C47.5397 25.0016 46.7438 25.7978 46.6625 26.9207C46.537 28.653 46.6295 30.4009 46.6295 32.1854C48.8884 32.1857 51.1163 32.1857 53.4544 32.1857Z"/>
<path d="M16.6637 43.357C16.6637 41.078 16.6608 38.7993 16.6647 36.5204C16.6681 34.4824 17.6139 33.5273 19.6338 33.5231C21.2616 33.52 22.8896 33.5114 24.5169 33.5344C26.2717 33.5593 27.2617 34.5007 27.2713 36.2413C27.2969 40.9616 27.2974 45.6823 27.271 50.4026C27.2615 52.1227 26.2265 53.102 24.5045 53.1178C22.8118 53.1335 21.1188 53.1349 19.4261 53.1173C17.7026 53.0995 16.6942 52.1109 16.6764 50.3884C16.6522 48.0448 16.6703 45.7006 16.6703 43.3565C16.6681 43.357 16.6659 43.357 16.6637 43.357ZM24.2923 50.1633C24.2923 45.5746 24.2923 41.0778 24.2923 36.5233C22.7273 36.5233 21.2206 36.5233 19.701 36.5233C19.701 41.1037 19.701 45.6201 19.701 50.1633C21.2584 50.1633 22.7158 50.1633 24.2923 50.1633Z"/>
<path d="M47.5987 58.2237C47.5662 58.8561 47.5733 59.4103 47.501 59.9538C47.3968 60.7375 46.9085 61.1663 46.1174 61.1738C45.3322 61.1814 44.7638 60.7829 44.7108 59.9933C44.6351 58.8668 44.6464 57.7293 44.7067 56.6008C44.7494 55.7983 45.3344 55.3751 46.0837 55.3659C46.8306 55.3568 47.3946 55.7587 47.5008 56.5612C47.5767 57.1367 47.5718 57.7229 47.5987 58.2237Z"/>
</mask>
<path d="M-6.09756e-05 70.9156C0.672832 69.8174 1.78911 69.9327 2.96423 69.9427C2.96423 69.2739 2.96643 68.6662 2.96374 68.0588C2.95422 65.7576 3.62907 64.9797 5.85161 64.6714C6.02179 63.5128 6.05158 62.3282 6.39779 61.2449C6.70567 60.2817 7.38247 59.4398 7.86077 58.5257C8.07465 58.117 8.34444 57.6631 8.34566 57.229C8.37276 47.3983 8.36642 37.5674 8.36397 27.7365C8.36397 27.4499 8.33907 27.163 8.31905 26.7364C6.69102 26.7364 5.1084 26.7433 3.52603 26.7325C3.0072 26.7291 2.47592 26.7435 1.97296 26.6402C0.658182 26.3704 0.0663493 25.1807 0.609595 23.957C0.753647 23.6322 0.954587 23.3312 1.14503 23.0292C4.8601 17.1428 8.60252 11.2738 12.2773 5.36257C13.2393 3.81511 14.4937 3.14173 16.3005 3.14808C25.9686 3.18202 35.6366 3.15516 45.3047 3.18104C46.0645 3.18299 46.5863 2.98572 47.0175 2.35824C47.4025 1.7979 47.8627 1.28224 48.3349 0.790027C49.3477 -0.265458 50.6615 -0.257645 51.6855 0.779284C51.8224 0.917964 51.9767 1.05347 52.0688 1.22023C52.9954 2.89758 54.3988 3.235 56.268 3.21254C65.4141 3.10291 74.5621 3.17738 83.7091 3.14173C85.5166 3.13465 86.7691 3.82268 87.7299 5.36574C91.3746 11.2189 95.0848 17.0317 98.7701 22.8597C98.9266 23.1071 99.0895 23.3512 99.2313 23.6068C100.105 25.1816 99.362 26.6197 97.5623 26.7132C96.1013 26.7892 94.6334 26.7359 93.1687 26.7394C92.7151 26.7403 92.2614 26.7396 91.7279 26.7396C91.7279 41.1301 91.7279 55.4635 91.7279 69.8846C91.9836 69.9058 92.2617 69.9481 92.54 69.949C94.3304 69.9551 96.1208 69.949 97.9112 69.9532C99.2875 69.9564 100.018 70.4869 99.9987 71.4567C99.9802 72.3925 99.2868 72.8813 97.952 72.8818C87.828 72.8855 77.7044 72.8884 67.5805 72.8882C45.8028 72.8874 24.0253 72.8813 2.24763 72.8948C1.31154 72.8953 0.500946 72.7844 -0.0010376 71.8923C-6.09756e-05 71.5668 -6.09756e-05 71.2411 -6.09756e-05 70.9156ZM88.6484 69.919C88.6484 55.4835 88.6484 41.1482 88.6484 26.7391C87.7721 26.7391 86.9623 26.7662 86.1551 26.7315C85.3413 26.6964 84.6872 26.3878 84.55 25.4749C84.4013 24.4843 85.0422 23.8241 86.2073 23.8173C89.0393 23.8007 91.8715 23.8112 94.7037 23.8107C95.0355 23.8107 95.3673 23.8107 95.8422 23.8107C95.588 23.3646 95.4157 23.1263 95.3075 22.8619C94.8265 21.6858 93.9988 21.3799 92.7219 21.3921C85.2029 21.4649 77.6826 21.428 70.1627 21.428C69.7918 21.428 69.4207 21.428 68.8655 21.428C69.2676 21.9395 69.5591 22.2418 69.7706 22.5926C70.3692 23.5856 71.1976 23.895 72.3627 23.8398C74.5064 23.7382 76.6584 23.8046 78.807 23.8144C79.6742 23.8183 80.2333 24.2353 80.3347 25.127C80.4287 25.9544 79.8818 26.5855 78.9703 26.7176C78.6507 26.764 78.3209 26.7464 77.9959 26.7469C76.4704 26.7494 74.9447 26.7482 73.3997 26.7482C74.0572 29.0278 73.3936 29.8799 71.0326 29.8836C69.91 29.8853 68.7873 29.8838 67.6183 29.8838C67.6183 31.6059 67.6188 33.1653 67.6181 34.7247C67.6166 38.2078 67.6249 41.6912 67.6056 45.1743C67.6003 46.1524 67.0753 46.7184 66.2457 46.7626C65.3914 46.808 64.7864 46.2205 64.6953 45.2366C64.6684 44.9458 64.6845 44.6511 64.6845 44.3581C64.6841 39.4425 64.7016 34.5269 64.6587 29.6116C64.654 29.0881 64.4179 28.4682 64.0842 28.0612C59.6261 22.6256 55.1317 17.2195 50.6446 11.8078C50.4464 11.5688 50.2298 11.3449 49.9922 11.0809C49.7378 11.3764 49.5452 11.5929 49.3604 11.8158C44.874 17.2283 40.3791 22.6341 35.9213 28.07C35.588 28.4763 35.3544 29.0999 35.3534 29.6231C35.3248 42.7096 35.3336 55.7958 35.3358 68.8823C35.3358 69.2227 35.3358 69.5628 35.3358 69.8738C37.2717 69.8738 39.0441 69.8738 40.8574 69.8738C40.8574 69.4068 40.8574 69.0173 40.8574 68.6282C40.8552 61.4991 40.8506 54.3697 40.8528 47.2406C40.8535 45.2815 41.8274 44.3071 43.7829 44.3054C47.8847 44.3017 51.9863 44.3056 56.0881 44.3112C58.2454 44.3142 59.1556 45.2337 59.1559 47.3956C59.1561 54.5247 59.1556 61.6541 59.1556 68.7832C59.1556 69.1567 59.1556 69.5301 59.1556 69.8792C61.0867 69.8792 62.859 69.8792 64.6841 69.8792C64.6841 69.4522 64.6841 69.0969 64.6841 68.7419C64.6841 63.5009 64.6816 58.2598 64.6892 53.0185C64.6897 52.6323 64.7097 52.2319 64.812 51.8632C65.012 51.1422 65.5576 50.7801 66.2794 50.8409C66.9962 50.901 67.4772 51.3353 67.5807 52.08C67.6298 52.4323 67.6198 52.7944 67.6198 53.1521C67.6198 58.3607 67.6169 63.5692 67.6147 68.7778C67.6144 69.1514 67.6147 69.5252 67.6147 69.9187C74.7052 69.919 81.6333 69.919 88.6484 69.919ZM11.3693 26.7782C11.3693 36.6216 11.3693 46.3599 11.3693 56.1577C13.7684 55.5548 16.0263 55.7521 17.9483 57.2139C19.0072 58.0191 19.9604 58.5199 21.3321 58.3126C21.9051 58.2261 22.2974 58.2095 22.7001 57.7102C24.5119 55.4643 26.8795 54.461 29.7608 54.88C30.6368 55.0074 31.4835 55.3353 32.319 55.5648C32.319 47.0082 32.319 38.4705 32.319 29.8841C31.5902 29.8841 30.941 29.8846 30.2918 29.8838C29.6411 29.8831 28.9893 29.907 28.34 29.8748C26.6883 29.7928 25.9832 28.7034 26.5423 27.1346C26.5787 27.0323 26.5899 26.9208 26.6202 26.7779C21.5022 26.7782 16.468 26.7782 11.3693 26.7782ZM56.152 69.9146C56.152 62.3099 56.152 54.8177 56.152 47.3246C52.0041 47.3246 47.9301 47.3246 43.8583 47.3246C43.8583 54.8998 43.8583 62.3917 43.8583 69.9146C47.9828 69.9146 52.0375 69.9146 56.152 69.9146ZM10.8534 13.1509C11.2858 13.1821 11.5658 13.2202 11.8459 13.2202C20.0766 13.2217 28.3073 13.2212 36.5378 13.2156C38.0645 13.2146 39.057 12.4778 39.6603 10.8798C36.383 10.8798 33.1331 10.8819 29.8829 10.8768C29.4942 10.8763 29.1003 10.8697 28.7182 10.8077C27.8869 10.6727 27.4542 10.1531 27.4989 9.31569C27.5409 8.52609 28.0004 8.07026 28.792 7.98529C29.1143 7.95062 29.4412 7.95013 29.7659 7.94989C33.5723 7.94745 37.3784 7.94915 41.1848 7.9472C42.4771 7.94647 43.1776 7.41885 43.6129 6.09479C43.2101 6.09479 42.8221 6.09479 42.4342 6.09479C33.8782 6.09479 25.322 6.09479 16.7661 6.09479C15.1285 6.09479 14.9479 6.22615 14.3392 7.90301C14.6058 7.91863 14.8566 7.94525 15.1073 7.94622C17.417 7.95428 19.7267 7.94183 22.0362 7.97113C22.9049 7.98211 23.4369 8.45797 23.4972 9.35085C23.5517 10.1585 23.0494 10.7066 22.1463 10.8436C21.8274 10.892 21.4983 10.8824 21.1736 10.8824C18.4735 10.8837 15.7731 10.8715 13.0732 10.8924C12.7505 10.8949 12.3078 10.9733 12.1306 11.1889C11.6672 11.7533 11.3202 12.413 10.8534 13.1509ZM30.4913 26.8668C32.0515 27.1085 33.1248 26.9286 34.1566 25.6429C38.7987 19.8591 43.5819 14.1883 48.3156 8.47775C49.6365 6.88439 50.3795 6.88561 51.7035 8.48312C56.437 14.1937 61.22 19.8644 65.8624 25.6482C66.8944 26.9337 67.9626 27.1137 69.5025 26.8514C62.9796 18.9821 56.5219 11.1915 50.0054 3.32973C43.4562 11.2291 37.0112 19.0028 30.4913 26.8668ZM32.3947 64.6606C32.3947 63.0165 32.4135 61.4317 32.375 59.8483C32.3689 59.6015 32.1379 59.3273 31.9492 59.1227C29.8968 56.8992 26.1505 57.3772 24.6218 60.048C23.6579 61.7322 23.5993 61.7583 21.8052 61.3049C20.1594 60.8889 18.5509 61.9124 18.2225 63.5846C18.0357 64.5354 18.1895 64.7283 19.1737 64.7292C23.268 64.7327 27.362 64.7319 31.4562 64.728C31.7387 64.7275 32.0207 64.6885 32.3947 64.6606ZM89.1604 13.2227C88.926 12.814 88.7719 12.6018 88.6745 12.3662C88.1799 11.1676 87.3378 10.8319 86.0228 10.8434C77.8301 10.9152 69.6365 10.8795 61.4434 10.8795C61.0713 10.8795 60.699 10.8795 60.1337 10.8795C60.4614 11.3058 60.6794 11.5373 60.8379 11.8041C61.5191 12.9529 62.4747 13.2717 63.8268 13.259C71.8244 13.1846 79.8227 13.2224 87.821 13.2224C88.2028 13.2227 88.5844 13.2227 89.1604 13.2227ZM5.94732 69.8985C14.8085 69.8985 23.5519 69.8985 32.3335 69.8985C32.3335 69.1514 32.3335 68.4592 32.3335 67.7411C23.5014 67.7411 14.7352 67.7411 5.94732 67.7411C5.94732 68.4924 5.94732 69.1638 5.94732 69.8985ZM7.47403 18.4969C8.02264 18.4969 8.36446 18.4969 8.70604 18.4969C16.4453 18.494 24.1857 18.4173 31.923 18.5414C33.7969 18.5714 34.4928 17.5103 35.3446 16.2929C35.2167 16.2316 35.162 16.1826 35.1073 16.1826C26.5553 16.1713 18.0032 16.1616 9.4512 16.1677C9.22658 16.1679 8.9165 16.2822 8.7932 16.4509C8.35934 17.0435 7.98993 17.6829 7.47403 18.4969ZM64.4592 16.154C64.8955 16.6846 65.1885 16.9543 65.3755 17.2842C65.9634 18.3216 66.84 18.5196 67.9809 18.513C75.7243 18.4683 83.4679 18.4942 91.2115 18.4972C91.5858 18.4974 91.9604 18.4972 92.5222 18.4972C92.1242 17.8501 91.8092 17.4046 91.5646 16.9233C91.2643 16.333 90.8453 16.1381 90.1707 16.1401C82.0694 16.1645 73.9678 16.155 65.8663 16.1542C65.4868 16.154 65.1079 16.154 64.4592 16.154ZM4.17866 23.7206C4.4714 23.7736 4.56321 23.8049 4.65501 23.8049C12.654 23.8061 20.6531 23.8075 28.6521 23.7931C28.9153 23.7926 29.2612 23.706 29.4261 23.5275C29.9871 22.92 30.4845 22.2535 31.0707 21.5296C30.8129 21.4829 30.6939 21.4429 30.575 21.4427C22.4459 21.4361 14.317 21.43 6.18782 21.4422C5.93536 21.4427 5.58841 21.5633 5.44827 21.75C5.00684 22.3385 4.6428 22.9852 4.17866 23.7206ZM56.3654 6.09504C56.9863 6.90344 57.179 7.97821 58.505 7.97137C67.2623 7.92669 76.02 7.94842 84.7776 7.94842C85.083 7.94842 85.3884 7.94842 85.7405 7.94842C85.2639 6.53867 84.4951 6.04621 83.0812 6.05841C74.5196 6.13215 65.9571 6.09504 57.3948 6.09504C57.0515 6.09504 56.7085 6.09504 56.3654 6.09504ZM16.6018 59.8461C15.4169 58.6441 13.2361 58.3697 11.4254 59.3639C9.4656 60.4399 8.57981 62.4449 9.12086 64.666C11.13 64.666 13.1526 64.666 14.8851 64.666C15.4796 62.9972 16.0209 61.4773 16.6018 59.8461Z" fill="#9CC155"/>
<path d="M72.7331 43.2791C72.7331 41.0334 72.726 38.7879 72.7353 36.5421C72.7438 34.4448 73.6638 33.539 75.7814 33.5302C77.3435 33.5236 78.9058 33.5178 80.4679 33.5322C82.3477 33.5495 83.3273 34.4687 83.337 36.3233C83.3614 41.0097 83.3607 45.6965 83.3348 50.3828C83.3251 52.1449 82.2864 53.1071 80.4909 53.1191C78.8636 53.13 77.2363 53.1293 75.609 53.1193C73.7375 53.1078 72.7429 52.1129 72.7289 50.2112C72.7121 47.9005 72.725 45.5898 72.725 43.2791C72.7277 43.2791 72.7304 43.2791 72.7331 43.2791ZM80.3515 50.143C80.3515 45.5659 80.3515 41.0671 80.3515 36.5302C78.7818 36.5302 77.2746 36.5302 75.7284 36.5302C75.7284 41.0988 75.7284 45.5969 75.7284 50.143C77.2759 50.143 78.7598 50.143 80.3515 50.143Z" fill="#9CC155"/>
<path d="M49.9744 35.1612C48.6416 35.1605 47.308 35.1861 45.9759 35.1536C44.5398 35.1187 43.683 34.3726 43.6349 32.9548C43.5688 31.0079 43.5187 29.0461 43.6796 27.1087C43.9362 24.0218 45.9495 22.0906 49.0132 21.7444C52.1235 21.3928 54.5606 22.5274 55.758 24.9362C56.0131 25.4494 56.2414 26.033 56.2663 26.5935C56.3598 28.7016 56.426 30.815 56.3803 32.9238C56.3486 34.3843 55.4699 35.1092 53.9732 35.161C53.9083 35.1632 53.8431 35.1619 53.7781 35.1619C52.5102 35.1617 51.2423 35.1617 49.9744 35.1612ZM53.4544 32.1857C53.4544 30.4773 53.5157 28.8862 53.4356 27.3021C53.3682 25.9692 52.5215 24.9775 51.2604 24.7756C50.4139 24.6401 49.5054 24.6523 48.6606 24.8024C47.5397 25.0016 46.7438 25.7978 46.6625 26.9207C46.537 28.653 46.6295 30.4009 46.6295 32.1854C48.8884 32.1857 51.1163 32.1857 53.4544 32.1857Z" fill="#9CC155"/>
<path d="M16.6637 43.357C16.6637 41.078 16.6608 38.7993 16.6647 36.5204C16.6681 34.4824 17.6139 33.5273 19.6338 33.5231C21.2616 33.52 22.8896 33.5114 24.5169 33.5344C26.2717 33.5593 27.2617 34.5007 27.2713 36.2413C27.2969 40.9616 27.2974 45.6823 27.271 50.4026C27.2615 52.1227 26.2265 53.102 24.5045 53.1178C22.8118 53.1335 21.1188 53.1349 19.4261 53.1173C17.7026 53.0995 16.6942 52.1109 16.6764 50.3884C16.6522 48.0448 16.6703 45.7006 16.6703 43.3565C16.6681 43.357 16.6659 43.357 16.6637 43.357ZM24.2923 50.1633C24.2923 45.5746 24.2923 41.0778 24.2923 36.5233C22.7273 36.5233 21.2206 36.5233 19.701 36.5233C19.701 41.1037 19.701 45.6201 19.701 50.1633C21.2584 50.1633 22.7158 50.1633 24.2923 50.1633Z" fill="#9CC155"/>
<path d="M47.5987 58.2237C47.5662 58.8561 47.5733 59.4103 47.501 59.9538C47.3968 60.7375 46.9085 61.1663 46.1174 61.1738C45.3322 61.1814 44.7638 60.7829 44.7108 59.9933C44.6351 58.8668 44.6464 57.7293 44.7067 56.6008C44.7494 55.7983 45.3344 55.3751 46.0837 55.3659C46.8306 55.3568 47.3946 55.7587 47.5008 56.5612C47.5767 57.1367 47.5718 57.7229 47.5987 58.2237Z" fill="#9CC155"/>
<path d="M-6.09756e-05 70.9156C0.672832 69.8174 1.78911 69.9327 2.96423 69.9427C2.96423 69.2739 2.96643 68.6662 2.96374 68.0588C2.95422 65.7576 3.62907 64.9797 5.85161 64.6714C6.02179 63.5128 6.05158 62.3282 6.39779 61.2449C6.70567 60.2817 7.38247 59.4398 7.86077 58.5257C8.07465 58.117 8.34444 57.6631 8.34566 57.229C8.37276 47.3983 8.36642 37.5674 8.36397 27.7365C8.36397 27.4499 8.33907 27.163 8.31905 26.7364C6.69102 26.7364 5.1084 26.7433 3.52603 26.7325C3.0072 26.7291 2.47592 26.7435 1.97296 26.6402C0.658182 26.3704 0.0663493 25.1807 0.609595 23.957C0.753647 23.6322 0.954587 23.3312 1.14503 23.0292C4.8601 17.1428 8.60252 11.2738 12.2773 5.36257C13.2393 3.81511 14.4937 3.14173 16.3005 3.14808C25.9686 3.18202 35.6366 3.15516 45.3047 3.18104C46.0645 3.18299 46.5863 2.98572 47.0175 2.35824C47.4025 1.7979 47.8627 1.28224 48.3349 0.790027C49.3477 -0.265458 50.6615 -0.257645 51.6855 0.779284C51.8224 0.917964 51.9767 1.05347 52.0688 1.22023C52.9954 2.89758 54.3988 3.235 56.268 3.21254C65.4141 3.10291 74.5621 3.17738 83.7091 3.14173C85.5166 3.13465 86.7691 3.82268 87.7299 5.36574C91.3746 11.2189 95.0848 17.0317 98.7701 22.8597C98.9266 23.1071 99.0895 23.3512 99.2313 23.6068C100.105 25.1816 99.362 26.6197 97.5623 26.7132C96.1013 26.7892 94.6334 26.7359 93.1687 26.7394C92.7151 26.7403 92.2614 26.7396 91.7279 26.7396C91.7279 41.1301 91.7279 55.4635 91.7279 69.8846C91.9836 69.9058 92.2617 69.9481 92.54 69.949C94.3304 69.9551 96.1208 69.949 97.9112 69.9532C99.2875 69.9564 100.018 70.4869 99.9987 71.4567C99.9802 72.3925 99.2868 72.8813 97.952 72.8818C87.828 72.8855 77.7044 72.8884 67.5805 72.8882C45.8028 72.8874 24.0253 72.8813 2.24763 72.8948C1.31154 72.8953 0.500946 72.7844 -0.0010376 71.8923C-6.09756e-05 71.5668 -6.09756e-05 71.2411 -6.09756e-05 70.9156ZM88.6484 69.919C88.6484 55.4835 88.6484 41.1482 88.6484 26.7391C87.7721 26.7391 86.9623 26.7662 86.1551 26.7315C85.3413 26.6964 84.6872 26.3878 84.55 25.4749C84.4013 24.4843 85.0422 23.8241 86.2073 23.8173C89.0393 23.8007 91.8715 23.8112 94.7037 23.8107C95.0355 23.8107 95.3673 23.8107 95.8422 23.8107C95.588 23.3646 95.4157 23.1263 95.3075 22.8619C94.8265 21.6858 93.9988 21.3799 92.7219 21.3921C85.2029 21.4649 77.6826 21.428 70.1627 21.428C69.7918 21.428 69.4207 21.428 68.8655 21.428C69.2676 21.9395 69.5591 22.2418 69.7706 22.5926C70.3692 23.5856 71.1976 23.895 72.3627 23.8398C74.5064 23.7382 76.6584 23.8046 78.807 23.8144C79.6742 23.8183 80.2333 24.2353 80.3347 25.127C80.4287 25.9544 79.8818 26.5855 78.9703 26.7176C78.6507 26.764 78.3209 26.7464 77.9959 26.7469C76.4704 26.7494 74.9447 26.7482 73.3997 26.7482C74.0572 29.0278 73.3936 29.8799 71.0326 29.8836C69.91 29.8853 68.7873 29.8838 67.6183 29.8838C67.6183 31.6059 67.6188 33.1653 67.6181 34.7247C67.6166 38.2078 67.6249 41.6912 67.6056 45.1743C67.6003 46.1524 67.0753 46.7184 66.2457 46.7626C65.3914 46.808 64.7864 46.2205 64.6953 45.2366C64.6684 44.9458 64.6845 44.6511 64.6845 44.3581C64.6841 39.4425 64.7016 34.5269 64.6587 29.6116C64.654 29.0881 64.4179 28.4682 64.0842 28.0612C59.6261 22.6256 55.1317 17.2195 50.6446 11.8078C50.4464 11.5688 50.2298 11.3449 49.9922 11.0809C49.7378 11.3764 49.5452 11.5929 49.3604 11.8158C44.874 17.2283 40.3791 22.6341 35.9213 28.07C35.588 28.4763 35.3544 29.0999 35.3534 29.6231C35.3248 42.7096 35.3336 55.7958 35.3358 68.8823C35.3358 69.2227 35.3358 69.5628 35.3358 69.8738C37.2717 69.8738 39.0441 69.8738 40.8574 69.8738C40.8574 69.4068 40.8574 69.0173 40.8574 68.6282C40.8552 61.4991 40.8506 54.3697 40.8528 47.2406C40.8535 45.2815 41.8274 44.3071 43.7829 44.3054C47.8847 44.3017 51.9863 44.3056 56.0881 44.3112C58.2454 44.3142 59.1556 45.2337 59.1559 47.3956C59.1561 54.5247 59.1556 61.6541 59.1556 68.7832C59.1556 69.1567 59.1556 69.5301 59.1556 69.8792C61.0867 69.8792 62.859 69.8792 64.6841 69.8792C64.6841 69.4522 64.6841 69.0969 64.6841 68.7419C64.6841 63.5009 64.6816 58.2598 64.6892 53.0185C64.6897 52.6323 64.7097 52.2319 64.812 51.8632C65.012 51.1422 65.5576 50.7801 66.2794 50.8409C66.9962 50.901 67.4772 51.3353 67.5807 52.08C67.6298 52.4323 67.6198 52.7944 67.6198 53.1521C67.6198 58.3607 67.6169 63.5692 67.6147 68.7778C67.6144 69.1514 67.6147 69.5252 67.6147 69.9187C74.7052 69.919 81.6333 69.919 88.6484 69.919ZM11.3693 26.7782C11.3693 36.6216 11.3693 46.3599 11.3693 56.1577C13.7684 55.5548 16.0263 55.7521 17.9483 57.2139C19.0072 58.0191 19.9604 58.5199 21.3321 58.3126C21.9051 58.2261 22.2974 58.2095 22.7001 57.7102C24.5119 55.4643 26.8795 54.461 29.7608 54.88C30.6368 55.0074 31.4835 55.3353 32.319 55.5648C32.319 47.0082 32.319 38.4705 32.319 29.8841C31.5902 29.8841 30.941 29.8846 30.2918 29.8838C29.6411 29.8831 28.9893 29.907 28.34 29.8748C26.6883 29.7928 25.9832 28.7034 26.5423 27.1346C26.5787 27.0323 26.5899 26.9208 26.6202 26.7779C21.5022 26.7782 16.468 26.7782 11.3693 26.7782ZM56.152 69.9146C56.152 62.3099 56.152 54.8177 56.152 47.3246C52.0041 47.3246 47.9301 47.3246 43.8583 47.3246C43.8583 54.8998 43.8583 62.3917 43.8583 69.9146C47.9828 69.9146 52.0375 69.9146 56.152 69.9146ZM10.8534 13.1509C11.2858 13.1821 11.5658 13.2202 11.8459 13.2202C20.0766 13.2217 28.3073 13.2212 36.5378 13.2156C38.0645 13.2146 39.057 12.4778 39.6603 10.8798C36.383 10.8798 33.1331 10.8819 29.8829 10.8768C29.4942 10.8763 29.1003 10.8697 28.7182 10.8077C27.8869 10.6727 27.4542 10.1531 27.4989 9.31569C27.5409 8.52609 28.0004 8.07026 28.792 7.98529C29.1143 7.95062 29.4412 7.95013 29.7659 7.94989C33.5723 7.94745 37.3784 7.94915 41.1848 7.9472C42.4771 7.94647 43.1776 7.41885 43.6129 6.09479C43.2101 6.09479 42.8221 6.09479 42.4342 6.09479C33.8782 6.09479 25.322 6.09479 16.7661 6.09479C15.1285 6.09479 14.9479 6.22615 14.3392 7.90301C14.6058 7.91863 14.8566 7.94525 15.1073 7.94622C17.417 7.95428 19.7267 7.94183 22.0362 7.97113C22.9049 7.98211 23.4369 8.45797 23.4972 9.35085C23.5517 10.1585 23.0494 10.7066 22.1463 10.8436C21.8274 10.892 21.4983 10.8824 21.1736 10.8824C18.4735 10.8837 15.7731 10.8715 13.0732 10.8924C12.7505 10.8949 12.3078 10.9733 12.1306 11.1889C11.6672 11.7533 11.3202 12.413 10.8534 13.1509ZM30.4913 26.8668C32.0515 27.1085 33.1248 26.9286 34.1566 25.6429C38.7987 19.8591 43.5819 14.1883 48.3156 8.47775C49.6365 6.88439 50.3795 6.88561 51.7035 8.48312C56.437 14.1937 61.22 19.8644 65.8624 25.6482C66.8944 26.9337 67.9626 27.1137 69.5025 26.8514C62.9796 18.9821 56.5219 11.1915 50.0054 3.32973C43.4562 11.2291 37.0112 19.0028 30.4913 26.8668ZM32.3947 64.6606C32.3947 63.0165 32.4135 61.4317 32.375 59.8483C32.3689 59.6015 32.1379 59.3273 31.9492 59.1227C29.8968 56.8992 26.1505 57.3772 24.6218 60.048C23.6579 61.7322 23.5993 61.7583 21.8052 61.3049C20.1594 60.8889 18.5509 61.9124 18.2225 63.5846C18.0357 64.5354 18.1895 64.7283 19.1737 64.7292C23.268 64.7327 27.362 64.7319 31.4562 64.728C31.7387 64.7275 32.0207 64.6885 32.3947 64.6606ZM89.1604 13.2227C88.926 12.814 88.7719 12.6018 88.6745 12.3662C88.1799 11.1676 87.3378 10.8319 86.0228 10.8434C77.8301 10.9152 69.6365 10.8795 61.4434 10.8795C61.0713 10.8795 60.699 10.8795 60.1337 10.8795C60.4614 11.3058 60.6794 11.5373 60.8379 11.8041C61.5191 12.9529 62.4747 13.2717 63.8268 13.259C71.8244 13.1846 79.8227 13.2224 87.821 13.2224C88.2028 13.2227 88.5844 13.2227 89.1604 13.2227ZM5.94732 69.8985C14.8085 69.8985 23.5519 69.8985 32.3335 69.8985C32.3335 69.1514 32.3335 68.4592 32.3335 67.7411C23.5014 67.7411 14.7352 67.7411 5.94732 67.7411C5.94732 68.4924 5.94732 69.1638 5.94732 69.8985ZM7.47403 18.4969C8.02264 18.4969 8.36446 18.4969 8.70604 18.4969C16.4453 18.494 24.1857 18.4173 31.923 18.5414C33.7969 18.5714 34.4928 17.5103 35.3446 16.2929C35.2167 16.2316 35.162 16.1826 35.1073 16.1826C26.5553 16.1713 18.0032 16.1616 9.4512 16.1677C9.22658 16.1679 8.9165 16.2822 8.7932 16.4509C8.35934 17.0435 7.98993 17.6829 7.47403 18.4969ZM64.4592 16.154C64.8955 16.6846 65.1885 16.9543 65.3755 17.2842C65.9634 18.3216 66.84 18.5196 67.9809 18.513C75.7243 18.4683 83.4679 18.4942 91.2115 18.4972C91.5858 18.4974 91.9604 18.4972 92.5222 18.4972C92.1242 17.8501 91.8092 17.4046 91.5646 16.9233C91.2643 16.333 90.8453 16.1381 90.1707 16.1401C82.0694 16.1645 73.9678 16.155 65.8663 16.1542C65.4868 16.154 65.1079 16.154 64.4592 16.154ZM4.17866 23.7206C4.4714 23.7736 4.56321 23.8049 4.65501 23.8049C12.654 23.8061 20.6531 23.8075 28.6521 23.7931C28.9153 23.7926 29.2612 23.706 29.4261 23.5275C29.9871 22.92 30.4845 22.2535 31.0707 21.5296C30.8129 21.4829 30.6939 21.4429 30.575 21.4427C22.4459 21.4361 14.317 21.43 6.18782 21.4422C5.93536 21.4427 5.58841 21.5633 5.44827 21.75C5.00684 22.3385 4.6428 22.9852 4.17866 23.7206ZM56.3654 6.09504C56.9863 6.90344 57.179 7.97821 58.505 7.97137C67.2623 7.92669 76.02 7.94842 84.7776 7.94842C85.083 7.94842 85.3884 7.94842 85.7405 7.94842C85.2639 6.53867 84.4951 6.04621 83.0812 6.05841C74.5196 6.13215 65.9571 6.09504 57.3948 6.09504C57.0515 6.09504 56.7085 6.09504 56.3654 6.09504ZM16.6018 59.8461C15.4169 58.6441 13.2361 58.3697 11.4254 59.3639C9.4656 60.4399 8.57981 62.4449 9.12086 64.666C11.13 64.666 13.1526 64.666 14.8851 64.666C15.4796 62.9972 16.0209 61.4773 16.6018 59.8461Z" stroke="white" stroke-width="1.2" mask="url(#path-1-inside-1)"/>
<path d="M72.7331 43.2791C72.7331 41.0334 72.726 38.7879 72.7353 36.5421C72.7438 34.4448 73.6638 33.539 75.7814 33.5302C77.3435 33.5236 78.9058 33.5178 80.4679 33.5322C82.3477 33.5495 83.3273 34.4687 83.337 36.3233C83.3614 41.0097 83.3607 45.6965 83.3348 50.3828C83.3251 52.1449 82.2864 53.1071 80.4909 53.1191C78.8636 53.13 77.2363 53.1293 75.609 53.1193C73.7375 53.1078 72.7429 52.1129 72.7289 50.2112C72.7121 47.9005 72.725 45.5898 72.725 43.2791C72.7277 43.2791 72.7304 43.2791 72.7331 43.2791ZM80.3515 50.143C80.3515 45.5659 80.3515 41.0671 80.3515 36.5302C78.7818 36.5302 77.2746 36.5302 75.7284 36.5302C75.7284 41.0988 75.7284 45.5969 75.7284 50.143C77.2759 50.143 78.7598 50.143 80.3515 50.143Z" stroke="white" stroke-width="1.2" mask="url(#path-1-inside-1)"/>
<path d="M49.9744 35.1612C48.6416 35.1605 47.308 35.1861 45.9759 35.1536C44.5398 35.1187 43.683 34.3726 43.6349 32.9548C43.5688 31.0079 43.5187 29.0461 43.6796 27.1087C43.9362 24.0218 45.9495 22.0906 49.0132 21.7444C52.1235 21.3928 54.5606 22.5274 55.758 24.9362C56.0131 25.4494 56.2414 26.033 56.2663 26.5935C56.3598 28.7016 56.426 30.815 56.3803 32.9238C56.3486 34.3843 55.4699 35.1092 53.9732 35.161C53.9083 35.1632 53.8431 35.1619 53.7781 35.1619C52.5102 35.1617 51.2423 35.1617 49.9744 35.1612ZM53.4544 32.1857C53.4544 30.4773 53.5157 28.8862 53.4356 27.3021C53.3682 25.9692 52.5215 24.9775 51.2604 24.7756C50.4139 24.6401 49.5054 24.6523 48.6606 24.8024C47.5397 25.0016 46.7438 25.7978 46.6625 26.9207C46.537 28.653 46.6295 30.4009 46.6295 32.1854C48.8884 32.1857 51.1163 32.1857 53.4544 32.1857Z" stroke="white" stroke-width="1.2" mask="url(#path-1-inside-1)"/>
<path d="M16.6637 43.357C16.6637 41.078 16.6608 38.7993 16.6647 36.5204C16.6681 34.4824 17.6139 33.5273 19.6338 33.5231C21.2616 33.52 22.8896 33.5114 24.5169 33.5344C26.2717 33.5593 27.2617 34.5007 27.2713 36.2413C27.2969 40.9616 27.2974 45.6823 27.271 50.4026C27.2615 52.1227 26.2265 53.102 24.5045 53.1178C22.8118 53.1335 21.1188 53.1349 19.4261 53.1173C17.7026 53.0995 16.6942 52.1109 16.6764 50.3884C16.6522 48.0448 16.6703 45.7006 16.6703 43.3565C16.6681 43.357 16.6659 43.357 16.6637 43.357ZM24.2923 50.1633C24.2923 45.5746 24.2923 41.0778 24.2923 36.5233C22.7273 36.5233 21.2206 36.5233 19.701 36.5233C19.701 41.1037 19.701 45.6201 19.701 50.1633C21.2584 50.1633 22.7158 50.1633 24.2923 50.1633Z" stroke="white" stroke-width="1.2" mask="url(#path-1-inside-1)"/>
<path d="M47.5987 58.2237C47.5662 58.8561 47.5733 59.4103 47.501 59.9538C47.3968 60.7375 46.9085 61.1663 46.1174 61.1738C45.3322 61.1814 44.7638 60.7829 44.7108 59.9933C44.6351 58.8668 44.6464 57.7293 44.7067 56.6008C44.7494 55.7983 45.3344 55.3751 46.0837 55.3659C46.8306 55.3568 47.3946 55.7587 47.5008 56.5612C47.5767 57.1367 47.5718 57.7229 47.5987 58.2237Z" stroke="white" stroke-width="1.2" mask="url(#path-1-inside-1)"/>
</g>
<defs>
<clipPath id="clip0">
<rect width="100" height="72.8946" fill="white"/>
</clipPath>
</defs>
</svg>
