<svg width="26" height="26" viewBox="0 0 26 26" fill="none" xmlns="http://www.w3.org/2000/svg">
<g clip-path="url(#clip0)">
<path d="M25.8779 1.23563C25.7996 1.1555 25.6914 1.11137 25.5793 1.11361C25.2566 1.11727 17.6239 1.24682 13.8066 5.06336C13.3237 5.55024 12.8995 6.09203 12.5426 6.67775C12.4313 6.55369 12.3168 6.43187 12.1985 6.31249C8.3799 2.49513 0.744378 2.36721 0.422028 2.36192C0.309562 2.35948 0.201163 2.40362 0.122456 2.48395C0.0429368 2.56326 -0.0011956 2.67146 2.46482e-05 2.78372C0.00388878 3.10648 0.133439 10.742 3.95059 14.5594C6.67805 17.2868 10.9064 17.7023 13.233 17.7023C13.9111 17.7023 14.423 17.6673 14.6908 17.6437L16.4531 19.406C16.6166 19.5638 16.8763 19.5616 17.037 19.4009C17.1976 19.2402 17.1999 18.9803 17.0421 18.817L15.2798 17.0548C15.2944 16.8847 15.3136 16.6195 15.326 16.2758C17.3933 15.9948 20.1159 15.2453 22.0485 13.3082C25.8667 9.48961 25.9958 1.85776 25.9999 1.53419C26.0011 1.42233 25.9572 1.31474 25.8779 1.23563ZM11.1556 12.9283L11.4338 9.88497C11.4547 9.65577 11.2859 9.45301 11.0567 9.43206C10.8277 9.41111 10.625 9.57991 10.604 9.80912L10.389 12.162L9.38945 11.1624L9.66848 8.11724C9.68943 7.88722 9.51981 7.68385 9.2898 7.6629C9.05978 7.64215 8.8564 7.81177 8.83546 8.04179L8.62069 10.3946L7.32519 9.09974L7.60341 6.05583C7.62436 5.82683 7.45535 5.62406 7.22635 5.60332C6.99715 5.58257 6.79459 5.75137 6.77384 5.98058L6.55847 8.33302L4.24345 6.018C4.13891 5.9096 3.98414 5.86628 3.83832 5.90431C3.69271 5.94255 3.57902 6.05623 3.54099 6.20185C3.50276 6.34747 3.54628 6.50244 3.65447 6.60697L5.96949 8.92199L3.61705 9.13716C3.38703 9.14754 3.20888 9.34217 3.21905 9.57218C3.22922 9.8024 3.42405 9.98056 3.65407 9.97019H3.6925L6.73622 9.69197L8.03131 10.9875L5.68009 11.1974C5.45007 11.2077 5.27192 11.4026 5.28229 11.6326C5.29266 11.8626 5.48749 12.0408 5.71751 12.0304H5.75534L8.79966 11.7522L9.79925 12.7518L7.4464 12.9667C7.21639 12.9771 7.03843 13.1719 7.0486 13.4019C7.05897 13.632 7.25401 13.8101 7.48403 13.7997H7.52226L10.5658 13.5215L13.8979 16.8536C11.9565 16.9165 7.31075 16.746 4.53834 13.9734C1.46331 10.8937 0.937584 4.88011 0.850133 3.21142C2.51822 3.29847 8.52897 3.82216 11.6083 6.90187C14.3805 9.67407 14.5505 14.32 14.4885 16.2612L11.1556 12.9283ZM21.4608 12.72C19.727 14.4577 17.2582 15.1575 15.3382 15.4333C15.3315 14.4324 15.2448 13.4339 15.0791 12.4469H15.0831C15.1936 12.4469 15.2995 12.403 15.3776 12.3249L15.4348 12.2677L18.4783 12.5459H18.5165C18.7465 12.5563 18.9414 12.3782 18.9517 12.1481C18.9621 11.9181 18.784 11.7233 18.5539 11.7129L16.2011 11.4979L17.2007 10.4984L20.2481 10.7808H20.2859C20.5159 10.7912 20.7107 10.6131 20.7211 10.383C20.7315 10.153 20.5533 9.95819 20.3233 9.94782L17.9705 9.73285L19.2654 8.43755L22.3093 8.71577H22.3477C22.5777 8.72594 22.7724 8.54778 22.7827 8.31777C22.7929 8.08775 22.6147 7.89291 22.3847 7.88275L20.0323 7.66737L22.3471 5.35235C22.4555 5.24782 22.4988 5.09305 22.4608 4.94723C22.4227 4.80161 22.3089 4.68793 22.1632 4.64989C22.0176 4.61166 21.8629 4.65518 21.7583 4.76338L19.4433 7.0784L19.2279 4.72596C19.2072 4.49675 19.0044 4.32795 18.7754 4.3489C18.5462 4.36964 18.3774 4.5722 18.3982 4.80141L18.6764 7.84512L17.3811 9.14021L17.1657 6.79225C17.145 6.56223 16.9416 6.39262 16.7116 6.41336C16.4816 6.43431 16.3119 6.63768 16.3327 6.8677L16.6109 9.91202L15.6113 10.9116L15.3963 8.55876C15.3756 8.32956 15.1728 8.16076 14.9436 8.18171C14.7146 8.20266 14.5458 8.40542 14.5668 8.63442L14.7946 11.1252C14.4628 9.78247 13.8873 8.51179 13.0968 7.37654C13.4502 6.74608 13.8863 6.16565 14.3939 5.65111C17.4697 2.57547 23.4813 2.05117 25.1504 1.96371C25.0632 3.6318 24.5381 9.64031 21.4608 12.7192V12.72Z" fill="#0D5667"/>
<path d="M10.085 21.1934C10.315 21.1934 10.5015 21.0069 10.5015 20.7769C10.5015 20.5468 10.315 20.3604 10.085 20.3604H7.58595C7.35593 20.3604 7.16943 20.5468 7.16943 20.7769V24.5255C7.16943 24.7555 7.35593 24.942 7.58595 24.942H10.085C10.315 24.942 10.5015 24.7555 10.5015 24.5255C10.5015 24.2955 10.315 24.109 10.085 24.109H8.00246V22.8594H8.83548C9.0655 22.8594 9.252 22.6729 9.252 22.4429C9.252 22.2129 9.0655 22.0264 8.83548 22.0264H8.00246V21.1934H10.085Z" fill="#0D5667"/>
<path d="M14.2501 21.1934C14.4802 21.1934 14.6666 21.0069 14.6666 20.7769C14.6666 20.5468 14.4802 20.3604 14.2501 20.3604H11.751C11.521 20.3604 11.3345 20.5468 11.3345 20.7769V24.5255C11.3345 24.7555 11.521 24.942 11.751 24.942H14.2501C14.4802 24.942 14.6666 24.7555 14.6666 24.5255C14.6666 24.2955 14.4802 24.109 14.2501 24.109H12.1676V21.1934H14.2501Z" fill="#0D5667"/>
<path d="M18.4152 20.3604H15.9161C15.6861 20.3604 15.4996 20.5468 15.4996 20.7769V24.5255C15.4996 24.7555 15.6861 24.942 15.9161 24.942H18.4152C18.6452 24.942 18.8317 24.7555 18.8317 24.5255V20.7769C18.8317 20.5468 18.6452 20.3604 18.4152 20.3604ZM17.9987 24.109H16.3327V21.1934H17.9987V24.109Z" fill="#0D5667"/>
</g>
<defs>
<clipPath id="clip0">
<rect width="26" height="26" fill="white"/>
</clipPath>
</defs>
</svg>
