<svg width="26" height="26" viewBox="0 0 26 26" fill="none" xmlns="http://www.w3.org/2000/svg">
<path d="M1.62622 19.3207H24.3738C24.6537 19.3207 24.88 19.0943 24.88 18.8145C24.88 18.5346 24.6537 18.3082 24.3738 18.3082H1.62622C1.34634 18.3082 1.11997 18.5346 1.11997 18.8145C1.11997 19.0943 1.34634 19.3207 1.62622 19.3207Z" fill="#186282" stroke="#186282" stroke-width="0.2"/>
<path d="M5.67579 10.356L5.6758 10.356C5.87777 10.6319 6.10265 10.979 6.3098 11.3339C6.47301 11.6135 6.69314 12.0153 6.87306 12.4327C7.05013 12.8435 7.2 13.2955 7.2 13.667C7.2 14.931 6.22329 15.9778 5 15.9778C3.77671 15.9778 2.8 14.931 2.8 13.667C2.8 13.2955 2.94987 12.8435 3.12694 12.4327C3.30686 12.0153 3.52699 11.6135 3.6902 11.3339L3.6902 11.3339C3.89736 10.979 4.12223 10.6319 4.32422 10.356L5.67579 10.356ZM5.67579 10.356C5.58037 10.2257 5.49444 10.1173 5.42087 10.0361L5.67579 10.356ZM4.57915 10.0361L4.57916 10.0361C4.67203 9.93358 4.80463 9.8 5.00001 9.8C5.1954 9.8 5.328 9.93358 5.42087 10.0361L4.57915 10.0361ZM4.57915 10.0361C4.50559 10.1173 4.41966 10.2256 4.32423 10.356L4.57915 10.0361ZM5.00001 15.1577C4.23715 15.1577 3.59802 14.4991 3.59802 13.667C3.59802 13.5127 3.65473 13.2707 3.77926 12.9514C3.90181 12.6371 4.08327 12.2649 4.31652 11.8563C4.57656 11.4009 4.82709 11.0296 5.00001 10.7982C5.17293 11.0296 5.42347 11.4008 5.68351 11.8563L5.85719 11.7572L5.68351 11.8563C5.91676 12.2649 6.09821 12.6372 6.22077 12.9514C6.34529 13.2707 6.402 13.5127 6.402 13.667C6.402 14.4991 5.76286 15.1577 5.00001 15.1577Z" fill="#186282" stroke="#186282" stroke-width="0.4"/>
<path d="M12.3436 1.24001L12.3436 1.24002C12.2046 1.39342 12.0385 1.60242 11.8502 1.85965C11.4522 2.40313 11.0072 3.08989 10.5963 3.79374L10.5963 3.79375C10.2725 4.34853 9.83771 5.14249 9.48346 5.96438C9.13135 6.78133 8.85 7.64538 8.85 8.33397C8.85 10.7369 10.704 12.7056 13 12.7056C15.296 12.7056 17.15 10.7369 17.15 8.33397C17.15 7.64539 16.8686 6.78134 16.5165 5.96439C16.1623 5.14249 15.7275 4.34853 15.4037 3.79375C14.9929 3.08989 14.5478 2.40316 14.1499 1.85966L14.1499 1.85965C13.9616 1.60246 13.7954 1.39345 13.6565 1.24004C13.4677 1.03168 13.2697 0.85 13 0.85C12.7304 0.85 12.5323 1.03168 12.3436 1.24001ZM13 11.5654C11.3237 11.5654 9.94605 10.1234 9.94605 8.33397C9.94605 7.97788 10.0734 7.45863 10.3256 6.81197C10.5763 6.1691 10.9452 5.41327 11.4159 4.58869C12.0476 3.48223 12.6552 2.6157 13 2.1878C13.3449 2.61568 13.9524 3.48222 14.5841 4.58869C15.0549 5.41328 15.4237 6.16911 15.6745 6.81198C15.9266 7.45864 16.054 7.97788 16.054 8.33397C16.054 10.1234 14.6763 11.5654 13 11.5654Z" fill="#186282" stroke="#186282" stroke-width="0.3"/>
<path d="M21.6758 10.356L21.6758 10.356C21.8778 10.6319 22.1027 10.979 22.3098 11.3339C22.473 11.6135 22.6931 12.0153 22.8731 12.4327C23.0501 12.8435 23.2 13.2955 23.2 13.667C23.2 14.931 22.2233 15.9778 21 15.9778C19.7767 15.9778 18.8 14.931 18.8 13.667C18.8 13.2955 18.9499 12.8435 19.1269 12.4327C19.3069 12.0153 19.527 11.6135 19.6902 11.3339L19.6902 11.3339C19.8974 10.979 20.1222 10.6319 20.3242 10.356L21.6758 10.356ZM21.6758 10.356C21.5804 10.2257 21.4944 10.1173 21.4209 10.0361L21.6758 10.356ZM20.5792 10.0361L20.5792 10.0361C20.672 9.93358 20.8046 9.8 21 9.8C21.1954 9.8 21.328 9.93358 21.4209 10.0361L20.5792 10.0361ZM20.5792 10.0361C20.5056 10.1173 20.4197 10.2256 20.3242 10.356L20.5792 10.0361ZM21 15.1577C20.2372 15.1577 19.598 14.4991 19.598 13.667C19.598 13.5127 19.6547 13.2707 19.7793 12.9514C19.9018 12.6371 20.0833 12.2649 20.3165 11.8563L20.1428 11.7572L20.3165 11.8563C20.5766 11.4009 20.8271 11.0296 21 10.7982C21.1729 11.0296 21.4235 11.4008 21.6835 11.8563L21.8572 11.7572L21.6835 11.8563C21.9168 12.2649 22.0982 12.6372 22.2208 12.9514C22.3453 13.2707 22.402 13.5127 22.402 13.667C22.402 14.4991 21.7629 15.1577 21 15.1577Z" fill="#186282" stroke="#186282" stroke-width="0.4"/>
<circle cx="3" cy="22" r="1" fill="#186282"/>
<circle cx="8" cy="22" r="1" fill="#186282"/>
<circle cx="13" cy="22" r="1" fill="#186282"/>
<circle cx="18" cy="22" r="1" fill="#186282"/>
<circle cx="23" cy="22" r="1" fill="#186282"/>
<circle cx="6" cy="25" r="1" fill="#186282"/>
<circle cx="11" cy="25" r="1" fill="#186282"/>
<circle cx="16" cy="25" r="1" fill="#186282"/>
<circle cx="21" cy="25" r="1" fill="#186282"/>
</svg>
