<svg width="46" height="46" viewBox="0 0 46 46" fill="none" xmlns="http://www.w3.org/2000/svg">
<g clip-path="url(#clip0)">
<path d="M43.5928 23.1747L42.5171 22.6473C42.5249 21.8874 42.5131 21.1971 42.5171 20.5473C42.5171 17.2038 41.6593 13.9196 40.0333 11.0154C40.4134 10.4673 40.4323 9.7361 40.0467 9.1593C38.6178 7.02084 36.8248 5.18776 34.7178 3.71091C33.3378 2.74365 31.8434 1.94907 30.276 1.34909C29.9284 1.21604 29.5389 1.38997 29.4058 1.73749C29.2728 2.08509 29.4467 2.47466 29.7942 2.60771C31.2584 3.16816 32.6547 3.91063 33.9443 4.81455C35.9141 6.19527 37.5903 7.90904 38.9262 9.90815C39.0105 10.0342 38.9907 10.2002 38.8794 10.3029C38.7772 10.3838 36.5269 12.5008 36.3908 12.5832C36.3223 12.6174 36.2563 12.6166 36.2174 12.6114C36.1625 12.6039 36.06 12.5747 35.9904 12.4628C35.1057 11.0408 34.0011 9.77832 32.7074 8.71017C29.9668 6.44755 26.5019 5.20141 22.9509 5.20141C19.2169 5.20141 15.616 6.56362 12.8112 9.0372C11.7072 10.0107 10.7499 11.1343 9.96552 12.3765C9.90074 12.479 9.80263 12.5043 9.7498 12.5101C9.69455 12.5164 9.58835 12.5131 9.49707 12.4217L7.15745 10.082C7.05323 9.97769 7.03859 9.81336 7.12268 9.69109C8.11465 8.24954 9.2987 6.94825 10.6419 5.82331C14.0887 2.93717 18.4602 1.34766 22.951 1.34766C24.1862 1.34766 25.4221 1.46625 26.6247 1.7002C26.9899 1.77127 27.3437 1.53273 27.4148 1.16743C27.4859 0.802125 27.2473 0.44841 26.882 0.377344C25.5949 0.126949 24.2723 0 22.951 0C18.1444 0 13.4656 1.70128 9.77675 4.79029C8.34006 5.99348 7.07354 7.38543 6.01248 8.92732C5.60612 9.51796 5.63127 10.2925 6.04878 10.8527C5.37962 12.0005 4.8269 13.2104 4.4041 14.4566C4.28452 14.8089 4.47337 15.1916 4.82574 15.3112C4.89752 15.3355 4.97047 15.347 5.04226 15.347C5.32302 15.347 5.58509 15.1701 5.68033 14.8895C6.03431 13.8462 6.48731 12.8304 7.02799 11.8585L8.46692 13.2975C7.32411 15.5845 6.72171 18.1306 6.72171 20.6987V34.7273L3.00065 32.9029C2.5623 32.688 2.27902 32.2338 2.27902 31.7456V25.542C2.27902 25.0538 2.5623 24.5996 3.00065 24.3847C3.22813 24.263 3.68714 24.0629 4.067 23.8616C4.47759 23.6414 4.73266 23.215 4.73266 22.7488V20.7068C4.7278 19.8397 4.78764 18.9646 4.91046 18.1058C4.9632 17.7373 4.70723 17.396 4.33887 17.3433C3.97096 17.2905 3.6292 17.5466 3.57646 17.9149C3.44421 18.8392 3.37988 19.7811 3.385 20.7106V22.6979C3.21645 22.7909 2.65655 23.0439 2.38288 23.1868C1.50026 23.6312 0.931458 24.5526 0.931458 25.542V31.7456C0.931458 32.7441 1.51086 33.6734 2.40741 34.113L6.90211 36.3166C7.37451 37.7502 8.72558 38.7882 10.3154 38.7882C12.2969 38.7882 13.9089 37.1763 13.9089 35.1948V23.0744C13.9089 21.0929 12.2969 19.4808 10.3154 19.4808C9.46922 19.4808 8.69099 19.7755 8.07628 20.2667C8.13989 18.0393 8.69387 15.8421 9.69212 13.8593C9.76085 13.8601 9.82994 13.8572 9.89939 13.8494C10.3985 13.7937 10.838 13.5191 11.1052 13.0959C11.821 11.9622 12.695 10.9366 13.7027 10.0479C16.2611 7.79161 19.5456 6.54898 22.951 6.54898C26.1896 6.54898 29.3498 7.6855 31.8495 9.7493C33.0305 10.7244 34.0387 11.8767 34.8461 13.1745C35.11 13.5986 35.5439 13.8801 36.0367 13.9467C36.1111 13.9568 36.1854 13.9617 36.2594 13.9617C36.2919 13.9617 36.3241 13.9591 36.3564 13.9572C37.3237 15.9138 37.8614 18.0766 37.924 20.2667C37.3093 19.7754 36.5311 19.4807 35.6848 19.4807C33.7033 19.4807 32.0912 21.0928 32.0912 23.0743V25.0952C32.0912 25.4673 32.3929 25.769 32.7651 25.769C33.1372 25.769 33.4389 25.4673 33.4389 25.0952V23.0743C33.4389 21.8359 34.4464 20.8284 35.6848 20.8284C36.9232 20.8284 37.9307 21.8359 37.9307 23.0743V35.1947C37.9307 36.433 36.9232 37.4405 35.6848 37.4405C34.4464 37.4405 33.4389 36.433 33.4389 35.1947V28.4927C33.4389 28.1206 33.1372 27.8189 32.7651 27.8189C32.3929 27.8189 32.0912 28.1206 32.0912 28.4927V35.1947C32.0912 37.1762 33.7033 38.7882 35.6848 38.7882C36.5341 38.7882 37.3149 38.4914 37.9307 37.9969V39.602C37.9307 40.0868 37.5362 40.4813 37.0514 40.4813H28.978C28.768 39.8597 28.1806 39.4104 27.4891 39.4104H22.394C21.5271 39.4104 20.8217 40.1158 20.8217 40.9827V44.4277C20.8217 45.2946 21.5271 46 22.394 46H27.4891C28.1782 46 28.7639 45.5537 28.9756 44.9354H33.3504C33.7225 44.9354 34.0242 44.6337 34.0242 44.2615C34.0242 43.8894 33.7225 43.5877 33.3504 43.5877H29.0614V41.8291H37.0514C38.2793 41.8291 39.2784 40.83 39.2784 39.6021V36.2281L41.037 35.366V41.3494C41.037 42.5836 40.0329 43.5877 38.7987 43.5877H36.7118C36.3397 43.5877 36.038 43.8894 36.038 44.2615C36.038 44.6337 36.3397 44.9354 36.7118 44.9354H38.7987C40.776 44.9354 42.3846 43.3267 42.3846 41.3494V34.7053L43.5928 34.113C44.4893 33.6734 45.0687 32.7442 45.0687 31.7456V25.542C45.0687 24.5435 44.4893 23.6143 43.5928 23.1747ZM10.3153 20.8286C11.5537 20.8286 12.5612 21.8361 12.5612 23.0745V35.1949C12.5612 36.4332 11.5537 37.4407 10.3153 37.4407C9.07687 37.4407 8.06936 36.4332 8.06936 35.1949V23.0744C8.06936 21.836 9.07687 20.8286 10.3153 20.8286ZM22.1693 44.4277V40.9829C22.1693 40.8591 22.2701 40.7582 22.3939 40.7582H24.2676V44.6523H22.3939C22.2701 44.6523 22.1693 44.5515 22.1693 44.4277ZM27.7136 44.4277C27.7136 44.5515 27.6128 44.6523 27.489 44.6523H25.6153V40.7582H27.489C27.6128 40.7582 27.7136 40.8591 27.7136 40.9829V44.4277ZM43.7211 31.7457C43.7211 32.2339 43.4378 32.6881 42.9994 32.903L39.2784 34.7274C39.2784 33.0089 39.2784 22.0983 39.2784 20.6988C39.2784 18.1526 38.6857 15.6253 37.5611 13.3532L39.0332 11.9948C40.4308 14.6143 41.1673 17.5488 41.1694 20.5347C41.1646 21.0942 41.178 21.8447 41.1685 22.7492C41.1643 23.1952 41.4201 23.6103 41.8203 23.8066L42.9995 24.3848C43.4379 24.5997 43.7212 25.0539 43.7212 25.5421V31.7457H43.7211Z" fill="#38500D"/>
</g>
<defs>
<clipPath id="clip0">
<rect width="46" height="46" fill="white" transform="translate(0.000244141)"/>
</clipPath>
</defs>
</svg>
