<svg width="46" height="46" viewBox="0 0 46 46" fill="none" xmlns="http://www.w3.org/2000/svg">
<g clip-path="url(#clip0)">
<path d="M43.593 23.1747L42.5173 22.6473C42.5251 21.8874 42.5133 21.1971 42.5173 20.5473C42.5173 17.2038 41.6595 13.9196 40.0335 11.0154C40.4136 10.4673 40.4324 9.7361 40.0469 9.1593C38.618 7.02084 36.825 5.18776 34.718 3.71091C33.338 2.74365 31.8435 1.94907 30.2762 1.34909C29.9286 1.21604 29.5391 1.38997 29.406 1.73749C29.2729 2.08509 29.4469 2.47466 29.7944 2.60771C31.2586 3.16816 32.6549 3.91063 33.9445 4.81455C35.9143 6.19527 37.5905 7.90904 38.9264 9.90815C39.0107 10.0342 38.9909 10.2002 38.8796 10.3029C38.7774 10.3838 36.5271 12.5008 36.391 12.5832C36.3225 12.6174 36.2565 12.6166 36.2176 12.6114C36.1627 12.6039 36.0602 12.5747 35.9906 12.4628C35.1059 11.0408 34.0013 9.77832 32.7076 8.71017C29.967 6.44755 26.5021 5.20141 22.9511 5.20141C19.2171 5.20141 15.6162 6.56362 12.8114 9.0372C11.7074 10.0107 10.75 11.1343 9.9657 12.3765C9.90092 12.479 9.80281 12.5043 9.74998 12.5101C9.69473 12.5164 9.58854 12.5131 9.49725 12.4217L7.15763 10.082C7.05341 9.97769 7.03877 9.81336 7.12286 9.69109C8.11483 8.24954 9.29888 6.94825 10.6421 5.82331C14.0889 2.93717 18.4603 1.34766 22.9512 1.34766C24.1863 1.34766 25.4223 1.46625 26.6249 1.7002C26.9901 1.77127 27.3439 1.53273 27.415 1.16743C27.486 0.802125 27.2475 0.44841 26.8822 0.377344C25.5951 0.126949 24.2725 0 22.9512 0C18.1445 0 13.4658 1.70128 9.77694 4.79029C8.34025 5.99348 7.07372 7.38543 6.01266 8.92732C5.6063 9.51796 5.63146 10.2925 6.04896 10.8527C5.3798 12.0005 4.82709 13.2104 4.40428 14.4566C4.2847 14.8089 4.47355 15.1916 4.82592 15.3112C4.8977 15.3355 4.97066 15.347 5.04244 15.347C5.3232 15.347 5.58528 15.1701 5.68051 14.8895C6.0345 13.8462 6.48749 12.8304 7.02817 11.8585L8.46711 13.2975C7.32429 15.5845 6.72189 18.1306 6.72189 20.6987V34.7273L3.00083 32.9029C2.56248 32.688 2.27921 32.2338 2.27921 31.7456V25.542C2.27921 25.0538 2.56248 24.5996 3.00083 24.3847C3.22832 24.263 3.68733 24.0629 4.06719 23.8616C4.47777 23.6414 4.73284 23.215 4.73284 22.7488V20.7068C4.72799 19.8397 4.78782 18.9646 4.91064 18.1058C4.96338 17.7373 4.70741 17.396 4.33905 17.3433C3.97114 17.2905 3.62938 17.5466 3.57664 17.9149C3.44439 18.8392 3.38006 19.7811 3.38518 20.7106V22.6979C3.21664 22.7909 2.65673 23.0439 2.38307 23.1868C1.50044 23.6312 0.931641 24.5526 0.931641 25.542V31.7456C0.931641 32.7441 1.51104 33.6734 2.40759 34.113L6.9023 36.3166C7.3747 37.7502 8.72577 38.7882 10.3156 38.7882C12.2971 38.7882 13.9091 37.1763 13.9091 35.1948V23.0744C13.9091 21.0929 12.2971 19.4808 10.3156 19.4808C9.4694 19.4808 8.69118 19.7755 8.07647 20.2667C8.14007 18.0393 8.69405 15.8421 9.6923 13.8593C9.76103 13.8601 9.83012 13.8572 9.89957 13.8494C10.3987 13.7937 10.8382 13.5191 11.1054 13.0959C11.8212 11.9622 12.6952 10.9366 13.7029 10.0479C16.2613 7.79161 19.5457 6.54898 22.9512 6.54898C26.1898 6.54898 29.3499 7.6855 31.8497 9.7493C33.0307 10.7244 34.0389 11.8767 34.8463 13.1745C35.1102 13.5986 35.5441 13.8801 36.0369 13.9467C36.1113 13.9568 36.1856 13.9617 36.2596 13.9617C36.2921 13.9617 36.3243 13.9591 36.3566 13.9572C37.3239 15.9138 37.8616 18.0766 37.9242 20.2667C37.3095 19.7754 36.5312 19.4807 35.685 19.4807C33.7035 19.4807 32.0914 21.0928 32.0914 23.0743V25.0952C32.0914 25.4673 32.3931 25.769 32.7653 25.769C33.1374 25.769 33.4391 25.4673 33.4391 25.0952V23.0743C33.4391 21.8359 34.4466 20.8284 35.685 20.8284C36.9234 20.8284 37.9309 21.8359 37.9309 23.0743V35.1947C37.9309 36.433 36.9234 37.4405 35.685 37.4405C34.4466 37.4405 33.4391 36.433 33.4391 35.1947V28.4927C33.4391 28.1206 33.1374 27.8189 32.7653 27.8189C32.3931 27.8189 32.0914 28.1206 32.0914 28.4927V35.1947C32.0914 37.1762 33.7035 38.7882 35.685 38.7882C36.5343 38.7882 37.3151 38.4914 37.9309 37.9969V39.602C37.9309 40.0868 37.5364 40.4813 37.0516 40.4813H28.9782C28.7682 39.8597 28.1808 39.4104 27.4893 39.4104H22.3941C21.5272 39.4104 20.8219 40.1158 20.8219 40.9827V44.4277C20.8219 45.2946 21.5272 46 22.3941 46H27.4893C28.1784 46 28.7641 45.5537 28.9758 44.9354H33.3506C33.7227 44.9354 34.0244 44.6337 34.0244 44.2615C34.0244 43.8894 33.7227 43.5877 33.3506 43.5877H29.0615V41.8291H37.0516C38.2795 41.8291 39.2786 40.83 39.2786 39.6021V36.2281L41.0372 35.366V41.3494C41.0372 42.5836 40.0331 43.5877 38.7989 43.5877H36.712C36.3399 43.5877 36.0382 43.8894 36.0382 44.2615C36.0382 44.6337 36.3399 44.9354 36.712 44.9354H38.7989C40.7762 44.9354 42.3848 43.3267 42.3848 41.3494V34.7053L43.593 34.113C44.4895 33.6734 45.0689 32.7442 45.0689 31.7456V25.542C45.0689 24.5435 44.4895 23.6143 43.593 23.1747ZM10.3155 20.8286C11.5539 20.8286 12.5614 21.8361 12.5614 23.0745V35.1949C12.5614 36.4332 11.5539 37.4407 10.3155 37.4407C9.07705 37.4407 8.06955 36.4332 8.06955 35.1949V23.0744C8.06955 21.836 9.07705 20.8286 10.3155 20.8286ZM22.1694 44.4277V40.9829C22.1694 40.8591 22.2703 40.7582 22.3941 40.7582H24.2677V44.6523H22.3941C22.2703 44.6523 22.1694 44.5515 22.1694 44.4277ZM27.7138 44.4277C27.7138 44.5515 27.613 44.6523 27.4892 44.6523H25.6155V40.7582H27.4892C27.613 40.7582 27.7138 40.8591 27.7138 40.9829V44.4277ZM43.7213 31.7457C43.7213 32.2339 43.438 32.6881 42.9996 32.903L39.2786 34.7274C39.2786 33.0089 39.2786 22.0983 39.2786 20.6988C39.2786 18.1526 38.6859 15.6253 37.5613 13.3532L39.0334 11.9948C40.431 14.6143 41.1674 17.5488 41.1696 20.5347C41.1647 21.0942 41.1782 21.8447 41.1687 22.7492C41.1645 23.1952 41.4203 23.6103 41.8205 23.8066L42.9997 24.3848C43.4381 24.5997 43.7213 25.0539 43.7213 25.5421V31.7457H43.7213Z" fill="#A7DC52"/>
</g>
<defs>
<clipPath id="clip0">
<rect width="46" height="46" fill="white"/>
</clipPath>
</defs>
</svg>
