<svg width="80" height="80" viewBox="0 0 80 80" fill="none" xmlns="http://www.w3.org/2000/svg">
<mask id="path-1-inside-1" fill="white">
<path d="M73.7472 65.1575C73.7491 65.1046 73.75 65.0521 73.75 65C73.7485 63.6744 73.2213 62.4035 72.2839 61.4661C71.3466 60.5288 70.0757 60.0015 68.75 60V36.875L73.25 33.5C73.4063 33.3828 73.533 33.2306 73.6198 33.0555C73.7066 32.8805 73.7512 32.6876 73.75 32.4922C73.7488 32.2969 73.7018 32.1045 73.6128 31.9306C73.5238 31.7567 73.3953 31.6061 73.2375 31.4908L62.5 23.6441V10C62.8315 10 63.1495 9.8683 63.3839 9.63388C63.6183 9.39946 63.75 9.08152 63.75 8.75V3.75C63.75 3.41848 63.6183 3.10054 63.3839 2.86612C63.1495 2.6317 62.8315 2.5 62.5 2.5H50C49.6685 2.5 49.3506 2.6317 49.1161 2.86612C48.8817 3.10054 48.75 3.41848 48.75 3.75V8.75C48.75 9.08152 48.8817 9.39946 49.1161 9.63388C49.3506 9.8683 49.6685 10 50 10V14.5095L40.7375 7.74078C40.5234 7.58435 40.2652 7.50004 40 7.50004C39.7349 7.50004 39.4766 7.58435 39.2625 7.74078L6.76253 31.4908C6.60479 31.6061 6.47627 31.7567 6.38728 31.9306C6.29828 32.1045 6.25129 32.2969 6.25008 32.4922C6.24886 32.6876 6.29345 32.8805 6.38028 33.0555C6.4671 33.2306 6.59374 33.3828 6.75003 33.5L11.25 36.875V60C9.9244 60.0015 8.6535 60.5288 7.71614 61.4661C6.77878 62.4035 6.25152 63.6744 6.25003 65C6.25003 65.0521 6.25097 65.1046 6.25284 65.1575C5.07361 65.4607 4.04553 66.1838 3.3615 67.1911C2.67748 68.1983 2.38451 69.4206 2.53757 70.6285C2.69063 71.8365 3.2792 72.947 4.19285 73.7519C5.1065 74.5567 6.28244 75.0005 7.50003 75H72.5C73.7176 75.0005 74.8936 74.5567 75.8072 73.7519C76.7208 72.947 77.3094 71.8365 77.4625 70.6285C77.6155 69.4206 77.3226 68.1983 76.6385 67.1911C75.9545 66.1838 74.9264 65.4607 73.7472 65.1575ZM51.25 5H61.25V7.5H51.25V5ZM52.5 16.25V10H60V21.8172L52.3817 16.25H52.5ZM40 10.2981L70.3992 32.5131L67.4886 34.6961L40.7353 15.2391C40.5217 15.0836 40.2642 14.9999 40 14.9999C39.7358 14.9999 39.4784 15.0836 39.2647 15.2391L12.5114 34.6961L9.60081 32.5131L40 10.2981ZM5.00003 70C5.00072 69.3436 5.25921 68.7138 5.71981 68.2462C6.1804 67.7786 6.80625 67.5106 7.46253 67.5H7.4655C7.5294 67.5089 7.59331 67.5166 7.65847 67.5208C7.86561 67.5339 8.07275 67.4951 8.26119 67.4081C8.44963 67.3211 8.61343 67.1886 8.73783 67.0224C8.86222 66.8563 8.94329 66.6618 8.9737 66.4565C9.00412 66.2511 8.98294 66.0415 8.91206 65.8464C8.80861 65.576 8.75376 65.2895 8.75003 65C8.75081 64.3372 9.01446 63.7018 9.48313 63.2331C9.9518 62.7644 10.5872 62.5008 11.25 62.5V72.5H7.50003C6.83723 72.4992 6.2018 72.2356 5.73313 71.7669C5.26446 71.2982 5.00081 70.6628 5.00003 70ZM58.75 72.5H43.75V45H58.75V72.5ZM61.25 72.5V43.75C61.25 43.4185 61.1183 43.1005 60.8839 42.8661C60.6495 42.6317 60.3315 42.5 60 42.5H42.5C42.1685 42.5 41.8506 42.6317 41.6161 42.8661C41.3817 43.1005 41.25 43.4185 41.25 43.75V72.5H13.75V36.8866L40 17.7956L66.25 36.8866V72.5H61.25ZM72.5 72.5H68.75V62.5C69.4128 62.5008 70.0483 62.7644 70.5169 63.2331C70.9856 63.7018 71.2492 64.3372 71.25 65C71.2464 65.2897 71.1915 65.5764 71.088 65.847C71.0171 66.0421 70.9959 66.2518 71.0264 66.4571C71.0568 66.6624 71.1378 66.8569 71.2622 67.0231C71.3866 67.1892 71.5504 67.3218 71.7389 67.4088C71.9273 67.4958 72.1344 67.5345 72.3416 67.5214C72.4067 67.5172 72.4706 67.5095 72.5346 67.5006H72.5375C73.2006 67.5056 73.8345 67.7738 74.2998 68.2461C74.7651 68.7185 75.0238 69.3563 75.0188 70.0194C75.0138 70.6824 74.7456 71.3163 74.2733 71.7816C73.8009 72.247 73.1631 72.5056 72.5 72.5006V72.5Z"/>
</mask>
<path d="M73.7472 65.1575C73.7491 65.1046 73.75 65.0521 73.75 65C73.7485 63.6744 73.2213 62.4035 72.2839 61.4661C71.3466 60.5288 70.0757 60.0015 68.75 60V36.875L73.25 33.5C73.4063 33.3828 73.533 33.2306 73.6198 33.0555C73.7066 32.8805 73.7512 32.6876 73.75 32.4922C73.7488 32.2969 73.7018 32.1045 73.6128 31.9306C73.5238 31.7567 73.3953 31.6061 73.2375 31.4908L62.5 23.6441V10C62.8315 10 63.1495 9.8683 63.3839 9.63388C63.6183 9.39946 63.75 9.08152 63.75 8.75V3.75C63.75 3.41848 63.6183 3.10054 63.3839 2.86612C63.1495 2.6317 62.8315 2.5 62.5 2.5H50C49.6685 2.5 49.3506 2.6317 49.1161 2.86612C48.8817 3.10054 48.75 3.41848 48.75 3.75V8.75C48.75 9.08152 48.8817 9.39946 49.1161 9.63388C49.3506 9.8683 49.6685 10 50 10V14.5095L40.7375 7.74078C40.5234 7.58435 40.2652 7.50004 40 7.50004C39.7349 7.50004 39.4766 7.58435 39.2625 7.74078L6.76253 31.4908C6.60479 31.6061 6.47627 31.7567 6.38728 31.9306C6.29828 32.1045 6.25129 32.2969 6.25008 32.4922C6.24886 32.6876 6.29345 32.8805 6.38028 33.0555C6.4671 33.2306 6.59374 33.3828 6.75003 33.5L11.25 36.875V60C9.9244 60.0015 8.6535 60.5288 7.71614 61.4661C6.77878 62.4035 6.25152 63.6744 6.25003 65C6.25003 65.0521 6.25097 65.1046 6.25284 65.1575C5.07361 65.4607 4.04553 66.1838 3.3615 67.1911C2.67748 68.1983 2.38451 69.4206 2.53757 70.6285C2.69063 71.8365 3.2792 72.947 4.19285 73.7519C5.1065 74.5567 6.28244 75.0005 7.50003 75H72.5C73.7176 75.0005 74.8936 74.5567 75.8072 73.7519C76.7208 72.947 77.3094 71.8365 77.4625 70.6285C77.6155 69.4206 77.3226 68.1983 76.6385 67.1911C75.9545 66.1838 74.9264 65.4607 73.7472 65.1575ZM51.25 5H61.25V7.5H51.25V5ZM52.5 16.25V10H60V21.8172L52.3817 16.25H52.5ZM40 10.2981L70.3992 32.5131L67.4886 34.6961L40.7353 15.2391C40.5217 15.0836 40.2642 14.9999 40 14.9999C39.7358 14.9999 39.4784 15.0836 39.2647 15.2391L12.5114 34.6961L9.60081 32.5131L40 10.2981ZM5.00003 70C5.00072 69.3436 5.25921 68.7138 5.71981 68.2462C6.1804 67.7786 6.80625 67.5106 7.46253 67.5H7.4655C7.5294 67.5089 7.59331 67.5166 7.65847 67.5208C7.86561 67.5339 8.07275 67.4951 8.26119 67.4081C8.44963 67.3211 8.61343 67.1886 8.73783 67.0224C8.86222 66.8563 8.94329 66.6618 8.9737 66.4565C9.00412 66.2511 8.98294 66.0415 8.91206 65.8464C8.80861 65.576 8.75376 65.2895 8.75003 65C8.75081 64.3372 9.01446 63.7018 9.48313 63.2331C9.9518 62.7644 10.5872 62.5008 11.25 62.5V72.5H7.50003C6.83723 72.4992 6.2018 72.2356 5.73313 71.7669C5.26446 71.2982 5.00081 70.6628 5.00003 70ZM58.75 72.5H43.75V45H58.75V72.5ZM61.25 72.5V43.75C61.25 43.4185 61.1183 43.1005 60.8839 42.8661C60.6495 42.6317 60.3315 42.5 60 42.5H42.5C42.1685 42.5 41.8506 42.6317 41.6161 42.8661C41.3817 43.1005 41.25 43.4185 41.25 43.75V72.5H13.75V36.8866L40 17.7956L66.25 36.8866V72.5H61.25ZM72.5 72.5H68.75V62.5C69.4128 62.5008 70.0483 62.7644 70.5169 63.2331C70.9856 63.7018 71.2492 64.3372 71.25 65C71.2464 65.2897 71.1915 65.5764 71.088 65.847C71.0171 66.0421 70.9959 66.2518 71.0264 66.4571C71.0568 66.6624 71.1378 66.8569 71.2622 67.0231C71.3866 67.1892 71.5504 67.3218 71.7389 67.4088C71.9273 67.4958 72.1344 67.5345 72.3416 67.5214C72.4067 67.5172 72.4706 67.5095 72.5346 67.5006H72.5375C73.2006 67.5056 73.8345 67.7738 74.2998 68.2461C74.7651 68.7185 75.0238 69.3563 75.0188 70.0194C75.0138 70.6824 74.7456 71.3163 74.2733 71.7816C73.8009 72.247 73.1631 72.5056 72.5 72.5006V72.5Z" fill="#97BA56" stroke="white" stroke-width="0.8" mask="url(#path-1-inside-1)"/>
<path d="M33.75 51.45H33.95V51.25V45V44.8H33.75H28.75H28.55V45V51.25V51.45H28.75H33.75ZM26.45 45V44.8H26.25H21.25H21.05V45V51.25V51.45H21.25H26.25H26.45V51.25V45ZM21.25 53.55H21.05V53.75V60V60.2H21.25H26.25H26.45V60V53.75V53.55H26.25H21.25ZM28.55 60V60.2H28.75H33.75H33.95V60V53.75V53.55H33.75H28.75H28.55V53.75V60ZM20 42.7H35C35.2785 42.7 35.5455 42.8106 35.7425 43.0075C35.9394 43.2044 36.05 43.4715 36.05 43.75V61.25C36.05 61.5285 35.9394 61.7955 35.7425 61.9925C35.5455 62.1894 35.2785 62.3 35 62.3H20C19.7215 62.3 19.4545 62.1894 19.2575 61.9925C19.0606 61.7955 18.95 61.5285 18.95 61.25V43.75C18.95 43.4715 19.0606 43.2045 19.2575 43.0075C19.4545 42.8106 19.7215 42.7 20 42.7Z" fill="#97BA56" stroke="white" stroke-width="0.4"/>
<path d="M47.9019 56.5302C48.4377 56.7521 48.6921 57.3663 48.4702 57.9021C48.2483 58.4378 47.6341 58.6923 47.0983 58.4703C46.5625 58.2484 46.3081 57.6342 46.53 57.0984C46.752 56.5627 47.3662 56.3083 47.9019 56.5302Z" fill="#97BA56" stroke="white" stroke-width="0.4"/>
</svg>
