<svg width="100" height="100" viewBox="0 0 100 100" fill="none" xmlns="http://www.w3.org/2000/svg">
<path d="M76.1625 14.0625V14.4625H76.5625H96.875C97.1833 14.4625 97.479 14.585 97.697 14.803C97.915 15.021 98.0375 15.3167 98.0375 15.625V20.3125C98.0375 20.6208 97.915 20.9165 97.697 21.1345C97.479 21.3525 97.1833 21.475 96.875 21.475H93.75H93.35V21.875V90.625V91.025H93.75H96.875C97.1833 91.025 97.479 91.1475 97.697 91.3655C97.915 91.5835 98.0375 91.8792 98.0375 92.1875V96.875C98.0375 97.1833 97.915 97.479 97.697 97.697C97.479 97.915 97.1833 98.0375 96.875 98.0375H3.125C2.81669 98.0375 2.521 97.915 2.30299 97.697C2.08498 97.479 1.9625 97.1833 1.9625 96.875V92.1875C1.9625 91.8792 2.08498 91.5835 2.30299 91.3655C2.521 91.1475 2.81669 91.025 3.125 91.025H6.25H6.65V90.625V21.875V21.475H6.25H3.125C2.81669 21.475 2.521 21.3525 2.30299 21.1345C2.08498 20.9165 1.9625 20.6208 1.9625 20.3125V15.625C1.9625 15.3167 2.08498 15.021 2.30299 14.803C2.521 14.585 2.81669 14.4625 3.125 14.4625H23.4375H23.8375V14.0625V3.125C23.8375 2.81669 23.96 2.521 24.178 2.30299C24.396 2.08498 24.6917 1.9625 25 1.9625H75C75.3083 1.9625 75.604 2.08498 75.822 2.30299C76.04 2.521 76.1625 2.81669 76.1625 3.125V14.0625ZM26.5625 4.2875H26.1625V4.6875V14.0625V14.4625H26.5625H73.4375H73.8375V14.0625V4.6875V4.2875H73.4375H26.5625ZM95.7125 93.75V93.35H95.3125H4.6875H4.2875V93.75V95.3125V95.7125H4.6875H95.3125H95.7125V95.3125V93.75ZM40.625 91.025H41.025V90.625V76.5625C41.025 76.2542 41.1475 75.9585 41.3655 75.7405C41.5835 75.5225 41.8792 75.4 42.1875 75.4H57.8125C58.1208 75.4 58.4165 75.5225 58.6345 75.7405C58.8525 75.9585 58.975 76.2542 58.975 76.5625V90.625V91.025H59.375H60.9375H61.3375V90.625V73.4375V73.0375H60.9375H39.0625H38.6625V73.4375V90.625V91.025H39.0625H40.625ZM56.65 78.125V77.725H56.25H51.5625H51.1625V78.125V90.625V91.025H51.5625H56.25H56.65V90.625V78.125ZM48.8375 78.125V77.725H48.4375H43.75H43.35V78.125V90.625V91.025H43.75H48.4375H48.8375V90.625V78.125ZM35.5375 70.3125V70.7125H35.9375H64.0625H64.4625V70.3125V67.1875V66.7875H64.0625H35.9375H35.5375V67.1875V70.3125ZM64.0625 73.0375H63.6625V73.4375V90.625V91.025H64.0625H90.625H91.025V90.625V68.75V68.35H90.625H67.1875H66.7875V68.75V71.875C66.7875 72.1833 66.665 72.479 66.447 72.697C66.229 72.915 65.9333 73.0375 65.625 73.0375H64.0625ZM66.7875 65.625V66.025H67.1875H90.625H91.025V65.625V21.875V21.475H90.625H9.375H8.975V21.875V65.625V66.025H9.375H32.8125H33.2125V65.625C33.2125 65.3167 33.335 65.021 33.553 64.803C33.771 64.585 34.0667 64.4625 34.375 64.4625H65.625C65.9333 64.4625 66.229 64.585 66.447 64.803C66.665 65.021 66.7875 65.3167 66.7875 65.625ZM33.2125 68.75V68.35H32.8125H9.375H8.975V68.75V90.625V91.025H9.375H35.9375H36.3375V90.625V73.4375V73.0375H35.9375H34.375C34.0667 73.0375 33.771 72.915 33.553 72.697C33.335 72.479 33.2125 72.1833 33.2125 71.875V68.75ZM4.2875 18.75V19.15H4.6875H95.3125H95.7125V18.75V17.1875V16.7875H95.3125H4.6875H4.2875V17.1875V18.75Z" fill="#87B72B" stroke="white" stroke-width="0.8"/>
<path d="M15.225 37.5V37.9H15.625H21.875H22.275V37.5V32.8125V32.4125H21.875H15.625H15.225V32.8125V37.5ZM22.275 28.125V27.725H21.875H15.625H15.225V28.125V29.6875V30.0875H15.625H21.875H22.275V29.6875V28.125ZM23.4375 40.225H14.0625C13.7542 40.225 13.4585 40.1025 13.2405 39.8845C13.0225 39.6665 12.9 39.3708 12.9 39.0625V26.5625C12.9 26.2542 13.0225 25.9585 13.2405 25.7405C13.4585 25.5225 13.7542 25.4 14.0625 25.4H23.4375C23.7458 25.4 24.0415 25.5225 24.2595 25.7405C24.4775 25.9585 24.6 26.2542 24.6 26.5625V39.0625C24.6 39.3708 24.4775 39.6665 24.2595 39.8845C24.0415 40.1025 23.7458 40.225 23.4375 40.225Z" fill="#87B72B" stroke="white" stroke-width="0.8"/>
<path d="M46.475 37.5V37.9H46.875H53.125H53.525V37.5V32.8125V32.4125H53.125H46.875H46.475V32.8125V37.5ZM53.525 28.125V27.725H53.125H46.875H46.475V28.125V29.6875V30.0875H46.875H53.125H53.525V29.6875V28.125ZM54.6875 40.225H45.3125C45.0042 40.225 44.7085 40.1025 44.4905 39.8845C44.2725 39.6665 44.15 39.3708 44.15 39.0625V26.5625C44.15 26.2542 44.2725 25.9585 44.4905 25.7405C44.7085 25.5225 45.0042 25.4 45.3125 25.4H54.6875C54.9958 25.4 55.2915 25.5225 55.5095 25.7405C55.7275 25.9585 55.85 26.2542 55.85 26.5625V39.0625C55.85 39.3708 55.7275 39.6665 55.5095 39.8845C55.2915 40.1025 54.9958 40.225 54.6875 40.225Z" fill="#87B72B" stroke="white" stroke-width="0.8"/>
<path d="M30.85 37.5V37.9H31.25H37.5H37.9V37.5V32.8125V32.4125H37.5H31.25H30.85V32.8125V37.5ZM37.9 28.125V27.725H37.5H31.25H30.85V28.125V29.6875V30.0875H31.25H37.5H37.9V29.6875V28.125ZM39.0625 40.225H29.6875C29.3792 40.225 29.0835 40.1025 28.8655 39.8845C28.6475 39.6665 28.525 39.3708 28.525 39.0625V26.5625C28.525 26.2542 28.6475 25.9585 28.8655 25.7405C29.0835 25.5225 29.3792 25.4 29.6875 25.4H39.0625C39.3708 25.4 39.6665 25.5225 39.8845 25.7405C40.1025 25.9585 40.225 26.2542 40.225 26.5625V39.0625C40.225 39.3708 40.1025 39.6665 39.8845 39.8845C39.6665 40.1025 39.3708 40.225 39.0625 40.225Z" fill="#87B72B" stroke="white" stroke-width="0.8"/>
<path d="M77.725 37.5V37.9H78.125H84.375H84.775V37.5V32.8125V32.4125H84.375H78.125H77.725V32.8125V37.5ZM84.775 28.125V27.725H84.375H78.125H77.725V28.125V29.6875V30.0875H78.125H84.375H84.775V29.6875V28.125ZM85.9375 40.225H76.5625C76.2542 40.225 75.9585 40.1025 75.7405 39.8845C75.5225 39.6665 75.4 39.3708 75.4 39.0625V26.5625C75.4 26.2542 75.5225 25.9585 75.7405 25.7405C75.9585 25.5225 76.2542 25.4 76.5625 25.4H85.9375C86.2458 25.4 86.5415 25.5225 86.7595 25.7405C86.9775 25.9585 87.1 26.2542 87.1 26.5625V39.0625C87.1 39.3708 86.9775 39.6665 86.7595 39.8845C86.5415 40.1025 86.2458 40.225 85.9375 40.225Z" fill="#87B72B" stroke="white" stroke-width="0.8"/>
<path d="M62.1 37.5V37.9H62.5H68.75H69.15V37.5V32.8125V32.4125H68.75H62.5H62.1V32.8125V37.5ZM69.15 28.125V27.725H68.75H62.5H62.1V28.125V29.6875V30.0875H62.5H68.75H69.15V29.6875V28.125ZM70.3125 40.225H60.9375C60.6292 40.225 60.3335 40.1025 60.1155 39.8845C59.8975 39.6665 59.775 39.3708 59.775 39.0625V26.5625C59.775 26.2542 59.8975 25.9585 60.1155 25.7405C60.3335 25.5225 60.6292 25.4 60.9375 25.4H70.3125C70.6208 25.4 70.9165 25.5225 71.1345 25.7405C71.3525 25.9585 71.475 26.2542 71.475 26.5625V39.0625C71.475 39.3708 71.3525 39.6665 71.1345 39.8845C70.9165 40.1025 70.6208 40.225 70.3125 40.225Z" fill="#87B72B" stroke="white" stroke-width="0.8"/>
<path d="M15.225 56.25V56.65H15.625H21.875H22.275V56.25V51.5625V51.1625H21.875H15.625H15.225V51.5625V56.25ZM22.275 46.875V46.475H21.875H15.625H15.225V46.875V48.4375V48.8375H15.625H21.875H22.275V48.4375V46.875ZM23.4375 58.975H14.0625C13.7542 58.975 13.4585 58.8525 13.2405 58.6345C13.0225 58.4165 12.9 58.1208 12.9 57.8125V45.3125C12.9 45.0042 13.0225 44.7085 13.2405 44.4905C13.4585 44.2725 13.7542 44.15 14.0625 44.15H23.4375C23.7458 44.15 24.0415 44.2725 24.2595 44.4905C24.4775 44.7085 24.6 45.0042 24.6 45.3125V57.8125C24.6 58.1208 24.4775 58.4165 24.2595 58.6345C24.0415 58.8525 23.7458 58.975 23.4375 58.975Z" fill="#87B72B" stroke="white" stroke-width="0.8"/>
<path d="M46.475 56.25V56.65H46.875H53.125H53.525V56.25V51.5625V51.1625H53.125H46.875H46.475V51.5625V56.25ZM53.525 46.875V46.475H53.125H46.875H46.475V46.875V48.4375V48.8375H46.875H53.125H53.525V48.4375V46.875ZM54.6875 58.975H45.3125C45.0042 58.975 44.7085 58.8525 44.4905 58.6345C44.2725 58.4165 44.15 58.1208 44.15 57.8125V45.3125C44.15 45.0042 44.2725 44.7085 44.4905 44.4905C44.7085 44.2725 45.0042 44.15 45.3125 44.15H54.6875C54.9958 44.15 55.2915 44.2725 55.5095 44.4905C55.7275 44.7085 55.85 45.0042 55.85 45.3125V57.8125C55.85 58.1208 55.7275 58.4165 55.5095 58.6345C55.2915 58.8525 54.9958 58.975 54.6875 58.975Z" fill="#87B72B" stroke="white" stroke-width="0.8"/>
<path d="M30.85 56.25V56.65H31.25H37.5H37.9V56.25V51.5625V51.1625H37.5H31.25H30.85V51.5625V56.25ZM37.9 46.875V46.475H37.5H31.25H30.85V46.875V48.4375V48.8375H31.25H37.5H37.9V48.4375V46.875ZM39.0625 58.975H29.6875C29.3792 58.975 29.0835 58.8525 28.8655 58.6345C28.6475 58.4165 28.525 58.1208 28.525 57.8125V45.3125C28.525 45.0042 28.6475 44.7085 28.8655 44.4905C29.0835 44.2725 29.3792 44.15 29.6875 44.15H39.0625C39.3708 44.15 39.6665 44.2725 39.8845 44.4905C40.1025 44.7085 40.225 45.0042 40.225 45.3125V57.8125C40.225 58.1208 40.1025 58.4165 39.8845 58.6345C39.6665 58.8525 39.3708 58.975 39.0625 58.975Z" fill="#87B72B" stroke="white" stroke-width="0.8"/>
<path d="M77.725 56.25V56.65H78.125H84.375H84.775V56.25V51.5625V51.1625H84.375H78.125H77.725V51.5625V56.25ZM84.775 46.875V46.475H84.375H78.125H77.725V46.875V48.4375V48.8375H78.125H84.375H84.775V48.4375V46.875ZM85.9375 58.975H76.5625C76.2542 58.975 75.9585 58.8525 75.7405 58.6345C75.5225 58.4165 75.4 58.1208 75.4 57.8125V45.3125C75.4 45.0042 75.5225 44.7085 75.7405 44.4905C75.9585 44.2725 76.2542 44.15 76.5625 44.15H85.9375C86.2458 44.15 86.5415 44.2725 86.7595 44.4905C86.9775 44.7085 87.1 45.0042 87.1 45.3125V57.8125C87.1 58.1208 86.9775 58.4165 86.7595 58.6345C86.5415 58.8525 86.2458 58.975 85.9375 58.975Z" fill="#87B72B" stroke="white" stroke-width="0.8"/>
<path d="M25.4 75V74.6H25H15.625H15.225V75V76.5625V76.9625H15.625H25H25.4V76.5625V75ZM15.225 84.375V84.775H15.625H25H25.4V84.375V79.6875V79.2875H25H15.625H15.225V79.6875V84.375ZM14.0625 72.275H26.5625C26.8708 72.275 27.1665 72.3975 27.3845 72.6155C27.6025 72.8335 27.725 73.1292 27.725 73.4375V85.9375C27.725 86.2458 27.6025 86.5415 27.3845 86.7595C27.1665 86.9775 26.8708 87.1 26.5625 87.1H14.0625C13.7542 87.1 13.4585 86.9775 13.2405 86.7595C13.0225 86.5415 12.9 86.2458 12.9 85.9375V73.4375C12.9 73.1292 13.0225 72.8335 13.2405 72.6155C13.4585 72.3975 13.7542 72.275 14.0625 72.275Z" fill="#87B72B" stroke="white" stroke-width="0.8"/>
<path d="M84.775 75V74.6H84.375H75H74.6V75V76.5625V76.9625H75H84.375H84.775V76.5625V75ZM74.6 84.375V84.775H75H84.375H84.775V84.375V79.6875V79.2875H84.375H75H74.6V79.6875V84.375ZM73.4375 72.275H85.9375C86.2458 72.275 86.5415 72.3975 86.7595 72.6155C86.9775 72.8335 87.1 73.1292 87.1 73.4375V85.9375C87.1 86.2458 86.9775 86.5415 86.7595 86.7595C86.5415 86.9775 86.2458 87.1 85.9375 87.1H73.4375C73.1292 87.1 72.8335 86.9775 72.6155 86.7595C72.3975 86.5415 72.275 86.2458 72.275 85.9375V73.4375C72.275 73.1292 72.3975 72.8335 72.6155 72.6155C72.8335 72.3975 73.1292 72.275 73.4375 72.275Z" fill="#87B72B" stroke="white" stroke-width="0.8"/>
<path d="M62.1 56.25V56.65H62.5H68.75H69.15V56.25V51.5625V51.1625H68.75H62.5H62.1V51.5625V56.25ZM69.15 46.875V46.475H68.75H62.5H62.1V46.875V48.4375V48.8375H62.5H68.75H69.15V48.4375V46.875ZM70.3125 58.975H60.9375C60.6292 58.975 60.3335 58.8525 60.1155 58.6345C59.8975 58.4165 59.775 58.1208 59.775 57.8125V45.3125C59.775 45.0042 59.8975 44.7085 60.1155 44.4905C60.3335 44.2725 60.6292 44.15 60.9375 44.15H70.3125C70.6208 44.15 70.9165 44.2725 71.1345 44.4905C71.3525 44.7085 71.475 45.0042 71.475 45.3125V57.8125C71.475 58.1208 71.3525 58.4165 71.1345 58.6345C70.9165 58.8525 70.6208 58.975 70.3125 58.975Z" fill="#87B72B" stroke="white" stroke-width="0.8"/>
</svg>
