<svg width="28" height="28" viewBox="0 0 28 28" fill="none" xmlns="http://www.w3.org/2000/svg">
<g clip-path="url(#clip0)">
<path d="M23.9799 21.5396L24.0608 21.6054L24.1232 21.5217C25.6934 19.4153 26.633 16.8106 26.633 13.982C26.633 6.99472 20.9692 1.33298 13.98 1.33298C10.22 1.33298 6.84927 2.98428 4.53226 5.59054L4.46282 5.66865L4.54393 5.73458L11.7339 11.5786L11.8037 11.6353L11.8675 11.5719L18.5432 4.93159L15.8705 12.6543L15.8246 12.787H15.965H19.7185L16.8363 15.5862L16.7556 15.6646L16.8429 15.7356L23.9799 21.5396ZM3.37608 7.32038L3.28787 7.24868L3.228 7.3453C2.03266 9.27437 1.332 11.5435 1.332 13.981C1.332 20.9662 6.99574 26.633 13.981 26.632C17.3539 26.632 20.4072 25.3043 22.6728 23.1566L22.7554 23.0782L22.6671 23.0064L15.4051 17.0994L15.3361 17.0433L15.2723 17.1052L9.17812 23.0209L12.0935 15.3093L12.1447 15.174H12H8.24257L10.3215 13.1089L10.4004 13.0305L10.3141 12.9604L3.37608 7.32038ZM0.1 13.981C0.1 6.31421 6.31522 0.100977 13.98 0.100977C21.6498 0.100977 27.865 6.31424 27.864 13.981C27.864 21.6458 21.6498 27.864 13.98 27.864C6.31525 27.864 0.1 21.6468 0.1 13.981Z" fill="#186282" stroke="white" stroke-width="0.2"/>
</g>
<defs>
<clipPath id="clip0">
<rect width="27.964" height="27.964" fill="white"/>
</clipPath>
</defs>
</svg>
