<svg width="26" height="26" viewBox="0 0 26 26" fill="none" xmlns="http://www.w3.org/2000/svg">
<mask id="path-1-outside-1" maskUnits="userSpaceOnUse" x="0.224487" y="-0.300293" width="26" height="26" fill="black">
<rect fill="white" x="0.224487" y="-0.300293" width="26" height="26"/>
<path d="M6.99165 6.95376C6.37318 6.95376 5.7686 6.77037 5.25437 6.42676C4.74013 6.08316 4.33933 5.59479 4.10266 5.0234C3.86598 4.45201 3.80405 3.82327 3.92471 3.21668C4.04537 2.6101 4.34319 2.05292 4.78051 1.61559C5.21783 1.17827 5.77501 0.88045 6.38159 0.759793C6.98818 0.639136 7.61692 0.701062 8.1883 0.937739C8.75969 1.17442 9.24807 1.57522 9.59167 2.08945C9.93527 2.60369 10.1187 3.20827 10.1187 3.82674C10.1181 4.6559 9.78848 5.45095 9.20217 6.03726C8.61586 6.62357 7.82081 6.9532 6.99165 6.95376ZM6.99165 1.40522C6.51216 1.40522 6.04344 1.54741 5.64477 1.81379C5.24609 2.08018 4.93536 2.45881 4.75187 2.9018C4.56838 3.34478 4.52037 3.83224 4.61391 4.30251C4.70745 4.77278 4.93835 5.20475 5.27739 5.5438C5.61644 5.88285 6.04841 6.11375 6.51868 6.20729C6.98896 6.30083 7.47641 6.25282 7.91939 6.06933C8.36238 5.88584 8.741 5.57511 9.00739 5.17643C9.27378 4.77775 9.41596 4.30903 9.41596 3.82955C9.41596 3.18658 9.16055 2.56994 8.7059 2.11529C8.25125 1.66064 7.63462 1.40522 6.99165 1.40522Z"/>
<path d="M10.7141 17.708H10.0248C9.9316 17.708 9.84223 17.671 9.77634 17.6051C9.71045 17.5392 9.67343 17.4498 9.67343 17.3566C9.67343 17.2634 9.71045 17.1741 9.77634 17.1082C9.84223 17.0423 9.9316 17.0053 10.0248 17.0053H10.7138C11.074 17.0049 11.4194 16.8616 11.6741 16.6069C11.9288 16.3522 12.0721 16.0068 12.0725 15.6466V10.1188C12.0719 9.7054 11.9075 9.30909 11.6153 9.01668C11.3231 8.72428 10.9269 8.55962 10.5135 8.55878H3.48649C3.07286 8.55925 2.6763 8.72374 2.38379 9.01619C2.09128 9.30863 1.92669 9.70515 1.92614 10.1188V15.6483C1.92697 16.0085 2.07059 16.3535 2.32549 16.6079C2.58038 16.8623 2.92576 17.0052 3.28587 17.0053H3.94992C4.0431 17.0053 4.13247 17.0423 4.19836 17.1082C4.26425 17.1741 4.30127 17.2634 4.30127 17.3566C4.30127 17.4498 4.26425 17.5392 4.19836 17.6051C4.13247 17.671 4.0431 17.708 3.94992 17.708H3.28587C2.73933 17.7074 2.21533 17.4901 1.82887 17.1036C1.4424 16.7171 1.22505 16.1931 1.22449 15.6466V10.1188C1.22523 9.51902 1.46376 8.94404 1.88779 8.51988C2.31182 8.09572 2.88673 7.85701 3.48649 7.85608H10.5135C11.1135 7.85673 11.6886 8.09532 12.1129 8.51951C12.5371 8.94369 12.7758 9.51884 12.7766 10.1188V15.6483C12.7755 16.1948 12.5578 16.7185 12.1712 17.1046C11.7846 17.4907 11.2606 17.7077 10.7141 17.708Z"/>
<path d="M8.50628 25.2972C8.01379 25.2966 7.54162 25.1007 7.19338 24.7525C6.84513 24.4043 6.64924 23.9321 6.64868 23.4396V17.585C6.64868 17.4918 6.6857 17.4025 6.75159 17.3366C6.81748 17.2707 6.90685 17.2337 7.00003 17.2337C7.09322 17.2337 7.18259 17.2707 7.24848 17.3366C7.31437 17.4025 7.35139 17.4918 7.35139 17.585V23.4396C7.35139 23.7459 7.47306 24.0396 7.68965 24.2562C7.90623 24.4728 8.19999 24.5945 8.50628 24.5945C8.81258 24.5945 9.10633 24.4728 9.32292 24.2562C9.5395 24.0396 9.66118 23.7459 9.66118 23.4396V12.3415C9.66118 12.2483 9.6982 12.1589 9.76409 12.093C9.82998 12.0271 9.91935 11.9901 10.0125 11.9901C10.1057 11.9901 10.1951 12.0271 10.261 12.093C10.3269 12.1589 10.3639 12.2483 10.3639 12.3415V23.4396C10.3633 23.9321 10.1674 24.4043 9.81919 24.7525C9.47094 25.1007 8.99878 25.2966 8.50628 25.2972Z"/>
<path d="M5.4937 25.2972C5.00121 25.2966 4.52905 25.1007 4.1808 24.7525C3.83256 24.4043 3.63667 23.9321 3.63611 23.4396V12.3415C3.63611 12.2483 3.67313 12.1589 3.73902 12.093C3.80491 12.0271 3.89428 11.9901 3.98746 11.9901C4.08064 11.9901 4.17001 12.0271 4.2359 12.093C4.30179 12.1589 4.33881 12.2483 4.33881 12.3415V23.4396C4.33881 23.7459 4.46049 24.0396 4.67707 24.2562C4.89366 24.4728 5.18741 24.5945 5.4937 24.5945C5.8 24.5945 6.09375 24.4728 6.31033 24.2562C6.52692 24.0396 6.64868 23.7459 6.64868 23.4396V17.585C6.64868 17.4918 6.6857 17.4025 6.75159 17.3366C6.81748 17.2707 6.90685 17.2337 7.00003 17.2337C7.09322 17.2337 7.18259 17.2707 7.24848 17.3366C7.31437 17.4025 7.35139 17.4918 7.35139 17.585V23.4396C7.35083 23.9321 7.15485 24.4043 6.8066 24.7525C6.45836 25.1007 5.9862 25.2966 5.4937 25.2972Z"/>
<path d="M19.9916 6.95376C19.3732 6.95376 18.7686 6.77037 18.2544 6.42676C17.7401 6.08316 17.3393 5.59479 17.1027 5.0234C16.866 4.45201 16.8041 3.82327 16.9247 3.21668C17.0454 2.6101 17.3432 2.05292 17.7805 1.61559C18.2178 1.17827 18.775 0.88045 19.3816 0.759793C19.9882 0.639136 20.6169 0.701062 21.1883 0.937739C21.7597 1.17442 22.2481 1.57522 22.5917 2.08945C22.9353 2.60369 23.1187 3.20827 23.1187 3.82674C23.1181 4.6559 22.7885 5.45095 22.2022 6.03726C21.6159 6.62357 20.8208 6.9532 19.9916 6.95376ZM19.9916 1.40522C19.5122 1.40522 19.0434 1.54741 18.6448 1.81379C18.2461 2.08018 17.9354 2.45881 17.7519 2.9018C17.5684 3.34478 17.5204 3.83224 17.6139 4.30251C17.7075 4.77278 17.9383 5.20475 18.2774 5.5438C18.6164 5.88285 19.0484 6.11375 19.5187 6.20729C19.989 6.30083 20.4764 6.25282 20.9194 6.06933C21.3624 5.88584 21.741 5.57511 22.0074 5.17643C22.2738 4.77775 22.416 4.30903 22.416 3.82955C22.416 3.18658 22.1605 2.56994 21.7059 2.11529C21.2512 1.66064 20.6346 1.40522 19.9916 1.40522Z"/>
<path d="M23.7141 17.708H23.0248C22.9316 17.708 22.8422 17.671 22.7763 17.6051C22.7104 17.5392 22.6734 17.4498 22.6734 17.3566C22.6734 17.2634 22.7104 17.1741 22.7763 17.1082C22.8422 17.0423 22.9316 17.0053 23.0248 17.0053H23.7138C24.074 17.0049 24.4194 16.8616 24.6741 16.6069C24.9288 16.3522 25.0721 16.0068 25.0725 15.6466V10.1188C25.0719 9.7054 24.9075 9.30909 24.6153 9.01668C24.3231 8.72428 23.9269 8.55962 23.5135 8.55878H16.4865C16.0729 8.55925 15.6763 8.72374 15.3838 9.01619C15.0913 9.30863 14.9267 9.70515 14.9261 10.1188V15.6483C14.927 16.0085 15.0706 16.3535 15.3255 16.6079C15.5804 16.8623 15.9258 17.0052 16.2859 17.0053H16.9499C17.0431 17.0053 17.1325 17.0423 17.1984 17.1082C17.2643 17.1741 17.3013 17.2634 17.3013 17.3566C17.3013 17.4498 17.2643 17.5392 17.1984 17.6051C17.1325 17.671 17.0431 17.708 16.9499 17.708H16.2859C15.7393 17.7074 15.2153 17.4901 14.8289 17.1036C14.4424 16.7171 14.225 16.1931 14.2245 15.6466V10.1188C14.2252 9.51902 14.4638 8.94404 14.8878 8.51988C15.3118 8.09572 15.8867 7.85701 16.4865 7.85608H23.5135C24.1135 7.85673 24.6886 8.09532 25.1129 8.51951C25.5371 8.94369 25.7758 9.51884 25.7766 10.1188V15.6483C25.7755 16.1948 25.5578 16.7185 25.1712 17.1046C24.7846 17.4907 24.2606 17.7077 23.7141 17.708Z"/>
<path d="M21.5063 25.2972C21.0138 25.2966 20.5416 25.1007 20.1934 24.7525C19.8451 24.4043 19.6492 23.9321 19.6487 23.4396V17.585C19.6487 17.4918 19.6857 17.4025 19.7516 17.3366C19.8175 17.2707 19.9068 17.2337 20 17.2337C20.0932 17.2337 20.1826 17.2707 20.2485 17.3366C20.3144 17.4025 20.3514 17.4918 20.3514 17.585V23.4396C20.3514 23.7459 20.4731 24.0396 20.6896 24.2562C20.9062 24.4728 21.2 24.5945 21.5063 24.5945C21.8126 24.5945 22.1063 24.4728 22.3229 24.2562C22.5395 24.0396 22.6612 23.7459 22.6612 23.4396V12.3415C22.6612 12.2483 22.6982 12.1589 22.7641 12.093C22.83 12.0271 22.9193 11.9901 23.0125 11.9901C23.1057 11.9901 23.1951 12.0271 23.261 12.093C23.3269 12.1589 23.3639 12.2483 23.3639 12.3415V23.4396C23.3633 23.9321 23.1674 24.4043 22.8192 24.7525C22.4709 25.1007 21.9988 25.2966 21.5063 25.2972Z"/>
<path d="M18.4937 25.2972C18.0012 25.2966 17.529 25.1007 17.1808 24.7525C16.8326 24.4043 16.6367 23.9321 16.6361 23.4396V12.3415C16.6361 12.2483 16.6731 12.1589 16.739 12.093C16.8049 12.0271 16.8943 11.9901 16.9875 11.9901C17.0806 11.9901 17.17 12.0271 17.2359 12.093C17.3018 12.1589 17.3388 12.2483 17.3388 12.3415V23.4396C17.3388 23.7459 17.4605 24.0396 17.6771 24.2562C17.8937 24.4728 18.1874 24.5945 18.4937 24.5945C18.8 24.5945 19.0937 24.4728 19.3103 24.2562C19.5269 24.0396 19.6487 23.7459 19.6487 23.4396V17.585C19.6487 17.4918 19.6857 17.4025 19.7516 17.3366C19.8175 17.2707 19.9068 17.2337 20 17.2337C20.0932 17.2337 20.1826 17.2707 20.2485 17.3366C20.3144 17.4025 20.3514 17.4918 20.3514 17.585V23.4396C20.3508 23.9321 20.1549 24.4043 19.8066 24.7525C19.4584 25.1007 18.9862 25.2966 18.4937 25.2972Z"/>
</mask>
<path d="M6.99165 6.95376C6.37318 6.95376 5.7686 6.77037 5.25437 6.42676C4.74013 6.08316 4.33933 5.59479 4.10266 5.0234C3.86598 4.45201 3.80405 3.82327 3.92471 3.21668C4.04537 2.6101 4.34319 2.05292 4.78051 1.61559C5.21783 1.17827 5.77501 0.88045 6.38159 0.759793C6.98818 0.639136 7.61692 0.701062 8.1883 0.937739C8.75969 1.17442 9.24807 1.57522 9.59167 2.08945C9.93527 2.60369 10.1187 3.20827 10.1187 3.82674C10.1181 4.6559 9.78848 5.45095 9.20217 6.03726C8.61586 6.62357 7.82081 6.9532 6.99165 6.95376ZM6.99165 1.40522C6.51216 1.40522 6.04344 1.54741 5.64477 1.81379C5.24609 2.08018 4.93536 2.45881 4.75187 2.9018C4.56838 3.34478 4.52037 3.83224 4.61391 4.30251C4.70745 4.77278 4.93835 5.20475 5.27739 5.5438C5.61644 5.88285 6.04841 6.11375 6.51868 6.20729C6.98896 6.30083 7.47641 6.25282 7.91939 6.06933C8.36238 5.88584 8.741 5.57511 9.00739 5.17643C9.27378 4.77775 9.41596 4.30903 9.41596 3.82955C9.41596 3.18658 9.16055 2.56994 8.7059 2.11529C8.25125 1.66064 7.63462 1.40522 6.99165 1.40522Z" fill="#186282"/>
<path d="M10.7141 17.708H10.0248C9.9316 17.708 9.84223 17.671 9.77634 17.6051C9.71045 17.5392 9.67343 17.4498 9.67343 17.3566C9.67343 17.2634 9.71045 17.1741 9.77634 17.1082C9.84223 17.0423 9.9316 17.0053 10.0248 17.0053H10.7138C11.074 17.0049 11.4194 16.8616 11.6741 16.6069C11.9288 16.3522 12.0721 16.0068 12.0725 15.6466V10.1188C12.0719 9.7054 11.9075 9.30909 11.6153 9.01668C11.3231 8.72428 10.9269 8.55962 10.5135 8.55878H3.48649C3.07286 8.55925 2.6763 8.72374 2.38379 9.01619C2.09128 9.30863 1.92669 9.70515 1.92614 10.1188V15.6483C1.92697 16.0085 2.07059 16.3535 2.32549 16.6079C2.58038 16.8623 2.92576 17.0052 3.28587 17.0053H3.94992C4.0431 17.0053 4.13247 17.0423 4.19836 17.1082C4.26425 17.1741 4.30127 17.2634 4.30127 17.3566C4.30127 17.4498 4.26425 17.5392 4.19836 17.6051C4.13247 17.671 4.0431 17.708 3.94992 17.708H3.28587C2.73933 17.7074 2.21533 17.4901 1.82887 17.1036C1.4424 16.7171 1.22505 16.1931 1.22449 15.6466V10.1188C1.22523 9.51902 1.46376 8.94404 1.88779 8.51988C2.31182 8.09572 2.88673 7.85701 3.48649 7.85608H10.5135C11.1135 7.85673 11.6886 8.09532 12.1129 8.51951C12.5371 8.94369 12.7758 9.51884 12.7766 10.1188V15.6483C12.7755 16.1948 12.5578 16.7185 12.1712 17.1046C11.7846 17.4907 11.2606 17.7077 10.7141 17.708Z" fill="#186282"/>
<path d="M8.50628 25.2972C8.01379 25.2966 7.54162 25.1007 7.19338 24.7525C6.84513 24.4043 6.64924 23.9321 6.64868 23.4396V17.585C6.64868 17.4918 6.6857 17.4025 6.75159 17.3366C6.81748 17.2707 6.90685 17.2337 7.00003 17.2337C7.09322 17.2337 7.18259 17.2707 7.24848 17.3366C7.31437 17.4025 7.35139 17.4918 7.35139 17.585V23.4396C7.35139 23.7459 7.47306 24.0396 7.68965 24.2562C7.90623 24.4728 8.19999 24.5945 8.50628 24.5945C8.81258 24.5945 9.10633 24.4728 9.32292 24.2562C9.5395 24.0396 9.66118 23.7459 9.66118 23.4396V12.3415C9.66118 12.2483 9.6982 12.1589 9.76409 12.093C9.82998 12.0271 9.91935 11.9901 10.0125 11.9901C10.1057 11.9901 10.1951 12.0271 10.261 12.093C10.3269 12.1589 10.3639 12.2483 10.3639 12.3415V23.4396C10.3633 23.9321 10.1674 24.4043 9.81919 24.7525C9.47094 25.1007 8.99878 25.2966 8.50628 25.2972Z" fill="#186282"/>
<path d="M5.4937 25.2972C5.00121 25.2966 4.52905 25.1007 4.1808 24.7525C3.83256 24.4043 3.63667 23.9321 3.63611 23.4396V12.3415C3.63611 12.2483 3.67313 12.1589 3.73902 12.093C3.80491 12.0271 3.89428 11.9901 3.98746 11.9901C4.08064 11.9901 4.17001 12.0271 4.2359 12.093C4.30179 12.1589 4.33881 12.2483 4.33881 12.3415V23.4396C4.33881 23.7459 4.46049 24.0396 4.67707 24.2562C4.89366 24.4728 5.18741 24.5945 5.4937 24.5945C5.8 24.5945 6.09375 24.4728 6.31033 24.2562C6.52692 24.0396 6.64868 23.7459 6.64868 23.4396V17.585C6.64868 17.4918 6.6857 17.4025 6.75159 17.3366C6.81748 17.2707 6.90685 17.2337 7.00003 17.2337C7.09322 17.2337 7.18259 17.2707 7.24848 17.3366C7.31437 17.4025 7.35139 17.4918 7.35139 17.585V23.4396C7.35083 23.9321 7.15485 24.4043 6.8066 24.7525C6.45836 25.1007 5.9862 25.2966 5.4937 25.2972Z" fill="#186282"/>
<path d="M19.9916 6.95376C19.3732 6.95376 18.7686 6.77037 18.2544 6.42676C17.7401 6.08316 17.3393 5.59479 17.1027 5.0234C16.866 4.45201 16.8041 3.82327 16.9247 3.21668C17.0454 2.6101 17.3432 2.05292 17.7805 1.61559C18.2178 1.17827 18.775 0.88045 19.3816 0.759793C19.9882 0.639136 20.6169 0.701062 21.1883 0.937739C21.7597 1.17442 22.2481 1.57522 22.5917 2.08945C22.9353 2.60369 23.1187 3.20827 23.1187 3.82674C23.1181 4.6559 22.7885 5.45095 22.2022 6.03726C21.6159 6.62357 20.8208 6.9532 19.9916 6.95376ZM19.9916 1.40522C19.5122 1.40522 19.0434 1.54741 18.6448 1.81379C18.2461 2.08018 17.9354 2.45881 17.7519 2.9018C17.5684 3.34478 17.5204 3.83224 17.6139 4.30251C17.7075 4.77278 17.9383 5.20475 18.2774 5.5438C18.6164 5.88285 19.0484 6.11375 19.5187 6.20729C19.989 6.30083 20.4764 6.25282 20.9194 6.06933C21.3624 5.88584 21.741 5.57511 22.0074 5.17643C22.2738 4.77775 22.416 4.30903 22.416 3.82955C22.416 3.18658 22.1605 2.56994 21.7059 2.11529C21.2512 1.66064 20.6346 1.40522 19.9916 1.40522Z" fill="#186282"/>
<path d="M23.7141 17.708H23.0248C22.9316 17.708 22.8422 17.671 22.7763 17.6051C22.7104 17.5392 22.6734 17.4498 22.6734 17.3566C22.6734 17.2634 22.7104 17.1741 22.7763 17.1082C22.8422 17.0423 22.9316 17.0053 23.0248 17.0053H23.7138C24.074 17.0049 24.4194 16.8616 24.6741 16.6069C24.9288 16.3522 25.0721 16.0068 25.0725 15.6466V10.1188C25.0719 9.7054 24.9075 9.30909 24.6153 9.01668C24.3231 8.72428 23.9269 8.55962 23.5135 8.55878H16.4865C16.0729 8.55925 15.6763 8.72374 15.3838 9.01619C15.0913 9.30863 14.9267 9.70515 14.9261 10.1188V15.6483C14.927 16.0085 15.0706 16.3535 15.3255 16.6079C15.5804 16.8623 15.9258 17.0052 16.2859 17.0053H16.9499C17.0431 17.0053 17.1325 17.0423 17.1984 17.1082C17.2643 17.1741 17.3013 17.2634 17.3013 17.3566C17.3013 17.4498 17.2643 17.5392 17.1984 17.6051C17.1325 17.671 17.0431 17.708 16.9499 17.708H16.2859C15.7393 17.7074 15.2153 17.4901 14.8289 17.1036C14.4424 16.7171 14.225 16.1931 14.2245 15.6466V10.1188C14.2252 9.51902 14.4638 8.94404 14.8878 8.51988C15.3118 8.09572 15.8867 7.85701 16.4865 7.85608H23.5135C24.1135 7.85673 24.6886 8.09532 25.1129 8.51951C25.5371 8.94369 25.7758 9.51884 25.7766 10.1188V15.6483C25.7755 16.1948 25.5578 16.7185 25.1712 17.1046C24.7846 17.4907 24.2606 17.7077 23.7141 17.708Z" fill="#186282"/>
<path d="M21.5063 25.2972C21.0138 25.2966 20.5416 25.1007 20.1934 24.7525C19.8451 24.4043 19.6492 23.9321 19.6487 23.4396V17.585C19.6487 17.4918 19.6857 17.4025 19.7516 17.3366C19.8175 17.2707 19.9068 17.2337 20 17.2337C20.0932 17.2337 20.1826 17.2707 20.2485 17.3366C20.3144 17.4025 20.3514 17.4918 20.3514 17.585V23.4396C20.3514 23.7459 20.4731 24.0396 20.6896 24.2562C20.9062 24.4728 21.2 24.5945 21.5063 24.5945C21.8126 24.5945 22.1063 24.4728 22.3229 24.2562C22.5395 24.0396 22.6612 23.7459 22.6612 23.4396V12.3415C22.6612 12.2483 22.6982 12.1589 22.7641 12.093C22.83 12.0271 22.9193 11.9901 23.0125 11.9901C23.1057 11.9901 23.1951 12.0271 23.261 12.093C23.3269 12.1589 23.3639 12.2483 23.3639 12.3415V23.4396C23.3633 23.9321 23.1674 24.4043 22.8192 24.7525C22.4709 25.1007 21.9988 25.2966 21.5063 25.2972Z" fill="#186282"/>
<path d="M18.4937 25.2972C18.0012 25.2966 17.529 25.1007 17.1808 24.7525C16.8326 24.4043 16.6367 23.9321 16.6361 23.4396V12.3415C16.6361 12.2483 16.6731 12.1589 16.739 12.093C16.8049 12.0271 16.8943 11.9901 16.9875 11.9901C17.0806 11.9901 17.17 12.0271 17.2359 12.093C17.3018 12.1589 17.3388 12.2483 17.3388 12.3415V23.4396C17.3388 23.7459 17.4605 24.0396 17.6771 24.2562C17.8937 24.4728 18.1874 24.5945 18.4937 24.5945C18.8 24.5945 19.0937 24.4728 19.3103 24.2562C19.5269 24.0396 19.6487 23.7459 19.6487 23.4396V17.585C19.6487 17.4918 19.6857 17.4025 19.7516 17.3366C19.8175 17.2707 19.9068 17.2337 20 17.2337C20.0932 17.2337 20.1826 17.2707 20.2485 17.3366C20.3144 17.4025 20.3514 17.4918 20.3514 17.585V23.4396C20.3508 23.9321 20.1549 24.4043 19.8066 24.7525C19.4584 25.1007 18.9862 25.2966 18.4937 25.2972Z" fill="#186282"/>
<path d="M6.75159 17.3366L6.68088 17.2659L6.68088 17.2659L6.75159 17.3366ZM7.24848 17.3366L7.31919 17.2659L7.31919 17.2659L7.24848 17.3366ZM19.7516 17.3366L19.6809 17.2659L19.6809 17.2659L19.7516 17.3366ZM20.2485 17.3366L20.3192 17.2659L20.3192 17.2659L20.2485 17.3366ZM6.74868 23.4396V17.585H6.54868V23.4396H6.74868ZM6.74868 17.585C6.74868 17.5184 6.77516 17.4544 6.8223 17.4073L6.68088 17.2659C6.59623 17.3505 6.54868 17.4653 6.54868 17.585H6.74868ZM6.8223 17.4073C6.86944 17.3602 6.93337 17.3337 7.00003 17.3337V17.1337C6.88033 17.1337 6.76553 17.1812 6.68088 17.2659L6.8223 17.4073ZM7.00003 17.3337C7.0667 17.3337 7.13063 17.3602 7.17777 17.4073L7.31919 17.2659C7.23454 17.1812 7.11974 17.1337 7.00003 17.1337V17.3337ZM7.17777 17.4073C7.22491 17.4544 7.25139 17.5184 7.25139 17.585H7.45139C7.45139 17.4653 7.40383 17.3505 7.31919 17.2659L7.17777 17.4073ZM7.25139 17.585V23.4396H7.45139V17.585H7.25139ZM19.7487 23.4396V17.585H19.5487V23.4396H19.7487ZM19.7487 17.585C19.7487 17.5184 19.7752 17.4544 19.8223 17.4073L19.6809 17.2659C19.5962 17.3505 19.5487 17.4653 19.5487 17.585H19.7487ZM19.8223 17.4073C19.8694 17.3602 19.9334 17.3337 20 17.3337V17.1337C19.8803 17.1337 19.7655 17.1812 19.6809 17.2659L19.8223 17.4073ZM20 17.3337C20.0667 17.3337 20.1306 17.3602 20.1778 17.4073L20.3192 17.2659C20.2345 17.1812 20.1197 17.1337 20 17.1337V17.3337ZM20.1778 17.4073C20.2249 17.4544 20.2514 17.5184 20.2514 17.585H20.4514C20.4514 17.4653 20.4038 17.3505 20.3192 17.2659L20.1778 17.4073ZM20.2514 17.585V23.4396H20.4514V17.585H20.2514ZM6.99165 6.95376L6.99165 7.15376L6.99178 7.15376L6.99165 6.95376ZM5.25437 6.42676L5.36548 6.26047L5.36548 6.26047L5.25437 6.42676ZM4.10266 5.0234L4.28743 4.94686L4.28743 4.94686L4.10266 5.0234ZM3.92471 3.21668L3.72855 3.17766L3.72855 3.17766L3.92471 3.21668ZM4.78051 1.61559L4.63909 1.47417L4.63909 1.47417L4.78051 1.61559ZM6.38159 0.759793L6.42061 0.95595L6.42061 0.95595L6.38159 0.759793ZM8.1883 0.937739L8.26484 0.752963L8.26484 0.752963L8.1883 0.937739ZM9.59167 2.08945L9.75796 1.97834L9.75796 1.97834L9.59167 2.08945ZM10.1187 3.82674L10.3187 3.82687V3.82674H10.1187ZM4.75187 2.9018L4.56709 2.82526L4.56709 2.82526L4.75187 2.9018ZM4.61391 4.30251L4.81007 4.26349L4.81007 4.26349L4.61391 4.30251ZM5.27739 5.5438L5.13597 5.68522L5.13597 5.68522L5.27739 5.5438ZM7.91939 6.06933L7.84286 5.88455L7.84286 5.88455L7.91939 6.06933ZM9.00739 5.17643L9.17369 5.28754L9.17369 5.28754L9.00739 5.17643ZM8.7059 2.11529L8.84732 1.97387L8.84732 1.97387L8.7059 2.11529ZM10.7141 17.708L10.7141 17.908L10.7142 17.908L10.7141 17.708ZM9.77634 17.6051L9.91776 17.4636L9.91776 17.4636L9.77634 17.6051ZM9.77634 17.1082L9.91776 17.2496L9.91776 17.2496L9.77634 17.1082ZM10.7138 17.0053L10.7138 17.2053L10.714 17.2053L10.7138 17.0053ZM11.6741 16.6069L11.8155 16.7483L11.8155 16.7483L11.6741 16.6069ZM12.0725 15.6466L12.2725 15.6468V15.6466H12.0725ZM12.0725 10.1188L12.2725 10.1188L12.2725 10.1185L12.0725 10.1188ZM11.6153 9.01668L11.4738 9.15806L11.4738 9.15806L11.6153 9.01668ZM10.5135 8.55878L10.5139 8.35878H10.5135V8.55878ZM3.48649 8.55878L3.48649 8.35878L3.48626 8.35878L3.48649 8.55878ZM2.38379 9.01619L2.24238 8.87475L2.24238 8.87475L2.38379 9.01619ZM1.92614 10.1188L1.72614 10.1185V10.1188H1.92614ZM1.92614 15.6483L1.72614 15.6483L1.72614 15.6488L1.92614 15.6483ZM2.32549 16.6079L2.46676 16.4663L2.46676 16.4663L2.32549 16.6079ZM3.28587 17.0053L3.28581 17.2053H3.28587V17.0053ZM4.19836 17.1082L4.05694 17.2496L4.05694 17.2496L4.19836 17.1082ZM4.19836 17.6051L4.05694 17.4636L4.05694 17.4636L4.19836 17.6051ZM3.28587 17.708L3.28566 17.908H3.28587V17.708ZM1.82887 17.1036L1.97029 16.9622L1.97029 16.9622L1.82887 17.1036ZM1.22449 15.6466L1.02449 15.6466L1.02449 15.6468L1.22449 15.6466ZM1.22449 10.1188L1.02449 10.1185V10.1188H1.22449ZM1.88779 8.51988L1.74635 8.37848L1.74635 8.37848L1.88779 8.51988ZM3.48649 7.85608L3.48649 7.65608L3.48618 7.65608L3.48649 7.85608ZM10.5135 7.85608L10.5137 7.65608H10.5135V7.85608ZM12.1129 8.51951L12.2543 8.37807L12.2543 8.37807L12.1129 8.51951ZM12.7766 10.1188L12.9766 10.1188L12.9766 10.1185L12.7766 10.1188ZM12.7766 15.6483L12.9766 15.6487V15.6483H12.7766ZM12.1712 17.1046L12.3125 17.2461L12.3125 17.2461L12.1712 17.1046ZM8.50628 25.2972L8.50606 25.4972L8.50651 25.4972L8.50628 25.2972ZM6.64868 23.4396L6.84868 23.4394L6.44868 23.4396H6.64868ZM7.35139 23.4396H7.55139L7.15139 23.4394L7.35139 23.4396ZM7.68965 24.2562L7.83107 24.1148L7.83107 24.1148L7.68965 24.2562ZM9.32292 24.2562L9.46434 24.3977L9.46434 24.3977L9.32292 24.2562ZM9.76409 12.093L9.90551 12.2344L9.90551 12.2344L9.76409 12.093ZM10.261 12.093L10.1196 12.2344L10.1196 12.2344L10.261 12.093ZM10.3639 23.4396L10.5639 23.4398V23.4396H10.3639ZM9.81919 24.7525L9.96061 24.8939L9.96061 24.8939L9.81919 24.7525ZM5.4937 25.2972L5.49348 25.4972L5.49393 25.4972L5.4937 25.2972ZM4.1808 24.7525L4.03938 24.8939L4.03938 24.8939L4.1808 24.7525ZM3.63611 23.4396L3.43611 23.4396L3.43611 23.4398L3.63611 23.4396ZM3.73902 12.093L3.88044 12.2344L3.88044 12.2344L3.73902 12.093ZM4.2359 12.093L4.09448 12.2344L4.09448 12.2344L4.2359 12.093ZM4.67707 24.2562L4.81849 24.1148L4.81849 24.1148L4.67707 24.2562ZM19.9916 6.95376L19.9916 7.15376L19.9918 7.15376L19.9916 6.95376ZM18.2544 6.42676L18.3655 6.26047L18.3655 6.26047L18.2544 6.42676ZM17.1027 5.0234L17.2874 4.94686L17.2874 4.94686L17.1027 5.0234ZM16.9247 3.21668L16.7286 3.17766L16.7286 3.17766L16.9247 3.21668ZM17.7805 1.61559L17.6391 1.47417L17.6391 1.47417L17.7805 1.61559ZM19.3816 0.759793L19.4206 0.95595L19.4206 0.95595L19.3816 0.759793ZM21.1883 0.937739L21.2648 0.752963L21.2648 0.752963L21.1883 0.937739ZM22.5917 2.08945L22.758 1.97834L22.758 1.97834L22.5917 2.08945ZM23.1187 3.82674L23.3187 3.82687V3.82674H23.1187ZM17.7519 2.9018L17.5671 2.82526L17.5671 2.82526L17.7519 2.9018ZM17.6139 4.30251L17.8101 4.26349L17.8101 4.26349L17.6139 4.30251ZM18.2774 5.5438L18.136 5.68522L18.136 5.68522L18.2774 5.5438ZM20.9194 6.06933L20.8429 5.88455L20.8429 5.88455L20.9194 6.06933ZM22.0074 5.17643L22.1737 5.28754L22.1737 5.28754L22.0074 5.17643ZM21.7059 2.11529L21.8473 1.97387L21.8473 1.97387L21.7059 2.11529ZM23.7141 17.708L23.7141 17.908L23.7142 17.908L23.7141 17.708ZM22.7763 17.6051L22.9178 17.4636L22.9178 17.4636L22.7763 17.6051ZM22.7763 17.1082L22.9178 17.2496L22.9178 17.2496L22.7763 17.1082ZM23.7138 17.0053V17.2053L23.714 17.2053L23.7138 17.0053ZM24.6741 16.6069L24.8155 16.7483L24.8155 16.7483L24.6741 16.6069ZM25.0725 15.6466L25.2725 15.6468V15.6466H25.0725ZM25.0725 10.1188L25.2725 10.1188L25.2725 10.1185L25.0725 10.1188ZM24.6153 9.01668L24.4738 9.15806L24.4738 9.15806L24.6153 9.01668ZM23.5135 8.55878L23.5139 8.35878H23.5135V8.55878ZM16.4865 8.55878L16.4865 8.35878L16.4863 8.35878L16.4865 8.55878ZM15.3838 9.01619L15.2424 8.87475L15.2424 8.87475L15.3838 9.01619ZM14.9261 10.1188L14.7261 10.1185V10.1188H14.9261ZM14.9261 15.6483L14.7261 15.6483L14.7261 15.6488L14.9261 15.6483ZM15.3255 16.6079L15.4668 16.4663L15.4668 16.4663L15.3255 16.6079ZM16.2859 17.0053L16.2858 17.2053H16.2859V17.0053ZM17.1984 17.1082L17.0569 17.2496L17.0569 17.2496L17.1984 17.1082ZM17.1984 17.6051L17.0569 17.4636L17.0569 17.4636L17.1984 17.6051ZM16.2859 17.708L16.2857 17.908H16.2859V17.708ZM14.8289 17.1036L14.9703 16.9622L14.9703 16.9622L14.8289 17.1036ZM14.2245 15.6466L14.0245 15.6466L14.0245 15.6468L14.2245 15.6466ZM14.2245 10.1188L14.0245 10.1185V10.1188H14.2245ZM14.8878 8.51988L14.7463 8.37848L14.7463 8.37848L14.8878 8.51988ZM16.4865 7.85608L16.4865 7.65608L16.4862 7.65608L16.4865 7.85608ZM23.5135 7.85608L23.5137 7.65608H23.5135V7.85608ZM25.1129 8.51951L25.2543 8.37807L25.2543 8.37807L25.1129 8.51951ZM25.7766 10.1188L25.9766 10.1188L25.9766 10.1185L25.7766 10.1188ZM25.7766 15.6483L25.9766 15.6487V15.6483H25.7766ZM25.1712 17.1046L25.3125 17.2461L25.3125 17.2461L25.1712 17.1046ZM21.5063 25.2972L21.5061 25.4972L21.5065 25.4972L21.5063 25.2972ZM19.6487 23.4396L19.8487 23.4394L19.4487 23.4396H19.6487ZM20.3514 23.4396H20.5514L20.1514 23.4394L20.3514 23.4396ZM20.6896 24.2562L20.8311 24.1148L20.8311 24.1148L20.6896 24.2562ZM22.3229 24.2562L22.4643 24.3977L22.4643 24.3977L22.3229 24.2562ZM22.7641 12.093L22.9055 12.2344L22.9055 12.2344L22.7641 12.093ZM23.261 12.093L23.1196 12.2344L23.1196 12.2344L23.261 12.093ZM23.3639 23.4396L23.5639 23.4398V23.4396H23.3639ZM22.8192 24.7525L22.9606 24.8939L22.9606 24.8939L22.8192 24.7525ZM18.4937 25.2972L18.4935 25.4972L18.4939 25.4972L18.4937 25.2972ZM17.1808 24.7525L17.0394 24.8939L17.0394 24.8939L17.1808 24.7525ZM16.6361 23.4396L16.4361 23.4396L16.4361 23.4398L16.6361 23.4396ZM16.739 12.093L16.8804 12.2344L16.8804 12.2344L16.739 12.093ZM17.2359 12.093L17.0945 12.2344L17.0945 12.2344L17.2359 12.093ZM17.6771 24.2562L17.8185 24.1148L17.8185 24.1148L17.6771 24.2562ZM6.99165 6.75376C6.41274 6.75376 5.84683 6.5821 5.36548 6.26047L5.14325 6.59306C5.69038 6.95864 6.33362 7.15376 6.99165 7.15376V6.75376ZM5.36548 6.26047C4.88413 5.93884 4.50897 5.4817 4.28743 4.94686L3.91788 5.09993C4.16969 5.70787 4.59613 6.22748 5.14325 6.59306L5.36548 6.26047ZM4.28743 4.94686C4.06589 4.41202 4.00793 3.82349 4.12087 3.2557L3.72855 3.17766C3.60018 3.82304 3.66607 4.492 3.91788 5.09993L4.28743 4.94686ZM4.12087 3.2557C4.23381 2.68791 4.51258 2.16637 4.92193 1.75701L4.63909 1.47417C4.17379 1.93947 3.85693 2.53228 3.72855 3.17766L4.12087 3.2557ZM4.92193 1.75701C5.33128 1.34766 5.85283 1.06889 6.42061 0.95595L6.34258 0.563636C5.6972 0.69201 5.10438 1.00888 4.63909 1.47417L4.92193 1.75701ZM6.42061 0.95595C6.9884 0.84301 7.57692 0.900975 8.11177 1.12252L8.26484 0.752963C7.65691 0.501149 6.98796 0.435262 6.34258 0.563636L6.42061 0.95595ZM8.11177 1.12252C8.64661 1.34405 9.10375 1.71922 9.42537 2.20057L9.75796 1.97834C9.39238 1.43121 8.87277 1.00478 8.26484 0.752963L8.11177 1.12252ZM9.42537 2.20057C9.747 2.68191 9.91867 3.24782 9.91867 3.82674H10.3187C10.3187 3.16871 10.1235 2.52547 9.75796 1.97834L9.42537 2.20057ZM9.91867 3.8266C9.91814 4.60277 9.60958 5.347 9.06074 5.89584L9.34359 6.17868C9.96737 5.5549 10.3181 4.70904 10.3187 3.82687L9.91867 3.8266ZM9.06074 5.89584C8.51191 6.44468 7.76768 6.75324 6.99151 6.75376L6.99178 7.15376C7.87394 7.15317 8.7198 6.80247 9.34359 6.17868L9.06074 5.89584ZM6.99165 1.20522C6.4726 1.20522 5.96522 1.35914 5.53365 1.6475L5.75588 1.98009C6.12167 1.73568 6.55172 1.60522 6.99165 1.60522V1.20522ZM5.53365 1.6475C5.10209 1.93586 4.76572 2.34573 4.56709 2.82526L4.93664 2.97833C5.105 2.57189 5.39009 2.2245 5.75588 1.98009L5.53365 1.6475ZM4.56709 2.82526C4.36846 3.30479 4.31649 3.83246 4.41775 4.34153L4.81007 4.26349C4.72424 3.83201 4.76829 3.38478 4.93664 2.97833L4.56709 2.82526ZM4.41775 4.34153C4.51901 4.8506 4.76895 5.31821 5.13597 5.68522L5.41881 5.40238C5.10774 5.0913 4.89589 4.69497 4.81007 4.26349L4.41775 4.34153ZM5.13597 5.68522C5.50299 6.05224 5.9706 6.30219 6.47967 6.40345L6.5577 6.01113C6.12623 5.92531 5.72989 5.71346 5.41881 5.40238L5.13597 5.68522ZM6.47967 6.40345C6.98873 6.50471 7.5164 6.45274 7.99593 6.25411L7.84286 5.88455C7.43641 6.05291 6.98918 6.09696 6.5577 6.01113L6.47967 6.40345ZM7.99593 6.25411C8.47546 6.05548 8.88532 5.71911 9.17369 5.28754L8.8411 5.06532C8.59669 5.4311 8.2493 5.7162 7.84286 5.88455L7.99593 6.25411ZM9.17369 5.28754C9.46205 4.85597 9.61596 4.34859 9.61596 3.82955H9.21596C9.21596 4.26948 9.08551 4.69953 8.8411 5.06532L9.17369 5.28754ZM9.61596 3.82955C9.61596 3.13353 9.33948 2.46603 8.84732 1.97387L8.56448 2.25671C8.98162 2.67385 9.21596 3.23962 9.21596 3.82955H9.61596ZM8.84732 1.97387C8.35516 1.48171 7.68766 1.20522 6.99165 1.20522V1.60522C7.58157 1.60522 8.14734 1.83957 8.56448 2.25671L8.84732 1.97387ZM10.7141 17.508H10.0248V17.908H10.7141V17.508ZM10.0248 17.508C9.98465 17.508 9.94615 17.492 9.91776 17.4636L9.63492 17.7465C9.73831 17.8499 9.87855 17.908 10.0248 17.908V17.508ZM9.91776 17.4636C9.88938 17.4353 9.87343 17.3968 9.87343 17.3566H9.47343C9.47343 17.5028 9.53152 17.6431 9.63492 17.7465L9.91776 17.4636ZM9.87343 17.3566C9.87343 17.3165 9.88938 17.278 9.91776 17.2496L9.63492 16.9668C9.53152 17.0702 9.47343 17.2104 9.47343 17.3566H9.87343ZM9.91776 17.2496C9.94615 17.2212 9.98464 17.2053 10.0248 17.2053V16.8053C9.87856 16.8053 9.73832 16.8634 9.63492 16.9668L9.91776 17.2496ZM10.0248 17.2053H10.7138V16.8053H10.0248V17.2053ZM10.714 17.2053C11.1272 17.2048 11.5233 17.0405 11.8155 16.7483L11.5327 16.4655C11.3154 16.6828 11.0208 16.805 10.7136 16.8053L10.714 17.2053ZM11.8155 16.7483C12.1077 16.4562 12.272 16.06 12.2725 15.6468L11.8725 15.6464C11.8721 15.9536 11.7499 16.2482 11.5327 16.4655L11.8155 16.7483ZM12.2725 15.6466V10.1188H11.8725V15.6466H12.2725ZM12.2725 10.1185C12.2718 9.6522 12.0864 9.20515 11.7568 8.87531L11.4738 9.15806C11.7286 9.41302 11.872 9.75859 11.8725 10.1191L12.2725 10.1185ZM11.7568 8.87531C11.4272 8.54547 10.9802 8.35973 10.5139 8.35878L10.5131 8.75878C10.8736 8.75951 11.219 8.90309 11.4738 9.15806L11.7568 8.87531ZM10.5135 8.35878H3.48649V8.75878H10.5135V8.35878ZM3.48626 8.35878C3.01968 8.35931 2.57235 8.54486 2.24238 8.87475L2.52519 9.15762C2.78026 8.90262 3.12604 8.75919 3.48671 8.75878L3.48626 8.35878ZM2.24238 8.87475C1.91242 9.20464 1.72677 9.65193 1.72614 10.1185L2.12614 10.1191C2.12662 9.75838 2.27013 9.41263 2.5252 9.15762L2.24238 8.87475ZM1.72614 10.1188V15.6483H2.12614V10.1188H1.72614ZM1.72614 15.6488C1.7271 16.0619 1.89183 16.4577 2.18421 16.7495L2.46676 16.4663C2.24935 16.2494 2.12685 15.955 2.12614 15.6479L1.72614 15.6488ZM2.18421 16.7495C2.47659 17.0412 2.87275 17.2052 3.28581 17.2053L3.28592 16.8053C2.97876 16.8052 2.68418 16.6833 2.46676 16.4663L2.18421 16.7495ZM3.28587 17.2053H3.94992V16.8053H3.28587V17.2053ZM3.94992 17.2053C3.99006 17.2053 4.02856 17.2212 4.05694 17.2496L4.33978 16.9668C4.23639 16.8634 4.09615 16.8053 3.94992 16.8053V17.2053ZM4.05694 17.2496C4.08532 17.278 4.10127 17.3165 4.10127 17.3566H4.50127C4.50127 17.2104 4.44318 17.0702 4.33978 16.9668L4.05694 17.2496ZM4.10127 17.3566C4.10127 17.3968 4.08533 17.4353 4.05694 17.4636L4.33978 17.7465C4.44318 17.6431 4.50127 17.5028 4.50127 17.3566H4.10127ZM4.05694 17.4636C4.02855 17.492 3.99006 17.508 3.94992 17.508V17.908C4.09615 17.908 4.23639 17.8499 4.33978 17.7465L4.05694 17.4636ZM3.94992 17.508H3.28587V17.908H3.94992V17.508ZM3.28607 17.508C2.7925 17.5075 2.31929 17.3112 1.97029 16.9622L1.68745 17.245C2.11137 17.6689 2.68615 17.9074 3.28566 17.908L3.28607 17.508ZM1.97029 16.9622C1.62128 16.6132 1.42499 16.14 1.42449 15.6464L1.02449 15.6468C1.0251 16.2463 1.26353 16.8211 1.68745 17.245L1.97029 16.9622ZM1.42449 15.6466V10.1188H1.02449V15.6466H1.42449ZM1.42449 10.119C1.42516 9.57222 1.64264 9.04799 2.02923 8.66128L1.74635 8.37848C1.28489 8.84008 1.0253 9.46583 1.02449 10.1185L1.42449 10.119ZM2.02923 8.66128C2.41583 8.27456 2.93999 8.05693 3.4868 8.05608L3.48618 7.65608C2.83347 7.65709 2.20781 7.91688 1.74635 8.37848L2.02923 8.66128ZM3.48649 8.05608H10.5135V7.65608H3.48649V8.05608ZM10.5133 8.05608C11.0603 8.05667 11.5847 8.2742 11.9715 8.66094L12.2543 8.37807C11.7926 7.91644 11.1666 7.65679 10.5137 7.65608L10.5133 8.05608ZM11.9715 8.66094C12.3583 9.04768 12.5759 9.57205 12.5766 10.119L12.9766 10.1185C12.9758 9.46563 12.716 8.83971 12.2543 8.37807L11.9715 8.66094ZM12.5766 10.1188V15.6483H12.9766V10.1188H12.5766ZM12.5766 15.648C12.5756 16.1414 12.379 16.6144 12.0299 16.9631L12.3125 17.2461C12.7366 16.8226 12.9754 16.2481 12.9766 15.6487L12.5766 15.648ZM12.0299 16.9631C11.6807 17.3118 11.2075 17.5077 10.714 17.508L10.7142 17.908C11.3136 17.9077 11.8884 17.6696 12.3125 17.2461L12.0299 16.9631ZM8.50651 25.0972C8.06698 25.0967 7.64559 24.9219 7.3348 24.6111L7.05196 24.8939C7.43766 25.2796 7.9606 25.4966 8.50606 25.4972L8.50651 25.0972ZM7.3348 24.6111C7.024 24.3003 6.84918 23.8789 6.84868 23.4394L6.44868 23.4398C6.4493 23.9853 6.66626 24.5082 7.05196 24.8939L7.3348 24.6111ZM7.15139 23.4396C7.15139 23.7989 7.29414 24.1436 7.54823 24.3977L7.83107 24.1148C7.65199 23.9357 7.55139 23.6929 7.55139 23.4396H7.15139ZM7.54823 24.3977C7.80232 24.6517 8.14694 24.7945 8.50628 24.7945V24.3945C8.25303 24.3945 8.01015 24.2939 7.83107 24.1148L7.54823 24.3977ZM8.50628 24.7945C8.86562 24.7945 9.21025 24.6517 9.46434 24.3977L9.1815 24.1148C9.00242 24.2939 8.75954 24.3945 8.50628 24.3945V24.7945ZM9.46434 24.3977C9.71843 24.1436 9.86118 23.7989 9.86118 23.4396H9.46118C9.46118 23.6929 9.36057 23.9357 9.1815 24.1148L9.46434 24.3977ZM9.86118 23.4396V12.3415H9.46118V23.4396H9.86118ZM9.86118 12.3415C9.86118 12.3013 9.87713 12.2628 9.90551 12.2344L9.62267 11.9516C9.51927 12.055 9.46118 12.1952 9.46118 12.3415H9.86118ZM9.90551 12.2344C9.93389 12.2061 9.97239 12.1901 10.0125 12.1901V11.7901C9.86631 11.7901 9.72607 11.8482 9.62267 11.9516L9.90551 12.2344ZM10.0125 12.1901C10.0527 12.1901 10.0912 12.2061 10.1196 12.2344L10.4024 11.9516C10.299 11.8482 10.1588 11.7901 10.0125 11.7901V12.1901ZM10.1196 12.2344C10.1479 12.2628 10.1639 12.3013 10.1639 12.3415H10.5639C10.5639 12.1952 10.5058 12.055 10.4024 11.9516L10.1196 12.2344ZM10.1639 12.3415V23.4396H10.5639V12.3415H10.1639ZM10.1639 23.4394C10.1634 23.8789 9.98856 24.3003 9.67777 24.6111L9.96061 24.8939C10.3463 24.5082 10.5633 23.9853 10.5639 23.4398L10.1639 23.4394ZM9.67777 24.6111C9.36697 24.9219 8.94559 25.0967 8.50606 25.0972L8.50651 25.4972C9.05197 25.4966 9.57491 25.2796 9.96061 24.8939L9.67777 24.6111ZM5.49393 25.0972C5.0544 25.0967 4.63302 24.9219 4.32222 24.6111L4.03938 24.8939C4.42508 25.2796 4.94802 25.4966 5.49348 25.4972L5.49393 25.0972ZM4.32222 24.6111C4.01143 24.3003 3.83661 23.8789 3.83611 23.4394L3.43611 23.4398C3.43673 23.9853 3.65368 24.5082 4.03938 24.8939L4.32222 24.6111ZM3.83611 23.4396V12.3415H3.43611V23.4396H3.83611ZM3.83611 12.3415C3.83611 12.3013 3.85205 12.2628 3.88044 12.2344L3.5976 11.9516C3.4942 12.055 3.43611 12.1952 3.43611 12.3415H3.83611ZM3.88044 12.2344C3.90882 12.2061 3.94732 12.1901 3.98746 12.1901V11.7901C3.84123 11.7901 3.70099 11.8482 3.5976 11.9516L3.88044 12.2344ZM3.98746 12.1901C4.0276 12.1901 4.0661 12.2061 4.09448 12.2344L4.37732 11.9516C4.27393 11.8482 4.13369 11.7901 3.98746 11.7901V12.1901ZM4.09448 12.2344C4.12286 12.2628 4.13881 12.3013 4.13881 12.3415H4.53881C4.53881 12.1952 4.48072 12.055 4.37732 11.9516L4.09448 12.2344ZM4.13881 12.3415V23.4396H4.53881V12.3415H4.13881ZM4.13881 23.4396C4.13881 23.7989 4.28156 24.1436 4.53565 24.3977L4.81849 24.1148C4.63942 23.9357 4.53881 23.6929 4.53881 23.4396H4.13881ZM4.53565 24.3977C4.78974 24.6517 5.13436 24.7945 5.4937 24.7945V24.3945C5.24045 24.3945 4.99757 24.2939 4.81849 24.1148L4.53565 24.3977ZM5.4937 24.7945C5.85304 24.7945 6.19766 24.6517 6.45176 24.3977L6.16891 24.1148C5.98984 24.2939 5.74696 24.3945 5.4937 24.3945V24.7945ZM6.45176 24.3977C6.70582 24.1436 6.84868 23.799 6.84868 23.4396H6.44868C6.44868 23.6928 6.34802 23.9357 6.16891 24.1148L6.45176 24.3977ZM7.15139 23.4394C7.15089 23.8789 6.97599 24.3003 6.66518 24.6111L6.94803 24.8939C7.33371 24.5082 7.55077 23.9853 7.55139 23.4398L7.15139 23.4394ZM6.66518 24.6111C6.35439 24.9219 5.93301 25.0967 5.49348 25.0972L5.49393 25.4972C6.03939 25.4966 6.56233 25.2796 6.94803 24.8939L6.66518 24.6111ZM19.9916 6.75376C19.4127 6.75376 18.8468 6.5821 18.3655 6.26047L18.1433 6.59306C18.6904 6.95864 19.3336 7.15376 19.9916 7.15376V6.75376ZM18.3655 6.26047C17.8841 5.93884 17.509 5.4817 17.2874 4.94686L16.9179 5.09993C17.1697 5.70787 17.5961 6.22748 18.1433 6.59306L18.3655 6.26047ZM17.2874 4.94686C17.0659 4.41202 17.0079 3.82349 17.1209 3.2557L16.7286 3.17766C16.6002 3.82304 16.6661 4.492 16.9179 5.09993L17.2874 4.94686ZM17.1209 3.2557C17.2338 2.68791 17.5126 2.16637 17.9219 1.75701L17.6391 1.47417C17.1738 1.93947 16.8569 2.53228 16.7286 3.17766L17.1209 3.2557ZM17.9219 1.75701C18.3313 1.34766 18.8528 1.06889 19.4206 0.95595L19.3426 0.563636C18.6972 0.69201 18.1044 1.00888 17.6391 1.47417L17.9219 1.75701ZM19.4206 0.95595C19.9884 0.84301 20.5769 0.900975 21.1118 1.12252L21.2648 0.752963C20.6569 0.501149 19.988 0.435262 19.3426 0.563636L19.4206 0.95595ZM21.1118 1.12252C21.6466 1.34405 22.1037 1.71922 22.4254 2.20057L22.758 1.97834C22.3924 1.43121 21.8728 1.00478 21.2648 0.752963L21.1118 1.12252ZM22.4254 2.20057C22.747 2.68191 22.9187 3.24782 22.9187 3.82674H23.3187C23.3187 3.16871 23.1235 2.52547 22.758 1.97834L22.4254 2.20057ZM22.9187 3.8266C22.9181 4.60277 22.6096 5.347 22.0607 5.89584L22.3436 6.17868C22.9674 5.5549 23.3181 4.70904 23.3187 3.82687L22.9187 3.8266ZM22.0607 5.89584C21.5119 6.44468 20.7677 6.75324 19.9915 6.75376L19.9918 7.15376C20.8739 7.15317 21.7198 6.80247 22.3436 6.17868L22.0607 5.89584ZM19.9916 1.20522C19.4726 1.20522 18.9652 1.35914 18.5337 1.6475L18.7559 1.98009C19.1217 1.73568 19.5517 1.60522 19.9916 1.60522V1.20522ZM18.5337 1.6475C18.1021 1.93587 17.7657 2.34573 17.5671 2.82526L17.9366 2.97833C18.105 2.57189 18.3901 2.2245 18.7559 1.98009L18.5337 1.6475ZM17.5671 2.82526C17.3685 3.30479 17.3165 3.83246 17.4178 4.34153L17.8101 4.26349C17.7242 3.83201 17.7683 3.38478 17.9366 2.97833L17.5671 2.82526ZM17.4178 4.34153C17.519 4.8506 17.769 5.31821 18.136 5.68522L18.4188 5.40238C18.1077 5.0913 17.8959 4.69497 17.8101 4.26349L17.4178 4.34153ZM18.136 5.68522C18.503 6.05224 18.9706 6.30219 19.4797 6.40345L19.5577 6.01113C19.1262 5.92531 18.7299 5.71346 18.4188 5.40238L18.136 5.68522ZM19.4797 6.40345C19.9887 6.50471 20.5164 6.45274 20.9959 6.25411L20.8429 5.88455C20.4364 6.05291 19.9892 6.09696 19.5577 6.01113L19.4797 6.40345ZM20.9959 6.25411C21.4755 6.05548 21.8853 5.71911 22.1737 5.28754L21.8411 5.06532C21.5967 5.4311 21.2493 5.7162 20.8429 5.88455L20.9959 6.25411ZM22.1737 5.28754C22.4621 4.85597 22.616 4.34859 22.616 3.82955H22.216C22.216 4.26948 22.0855 4.69953 21.8411 5.06532L22.1737 5.28754ZM22.616 3.82955C22.616 3.13353 22.3395 2.46603 21.8473 1.97387L21.5645 2.25671C21.9816 2.67385 22.216 3.23962 22.216 3.82955H22.616ZM21.8473 1.97387C21.3552 1.48171 20.6877 1.20522 19.9916 1.20522V1.60522C20.5816 1.60522 21.1473 1.83957 21.5645 2.25671L21.8473 1.97387ZM23.7141 17.508H23.0248V17.908H23.7141V17.508ZM23.0248 17.508C22.9846 17.508 22.9461 17.492 22.9178 17.4636L22.6349 17.7465C22.7383 17.8499 22.8786 17.908 23.0248 17.908V17.508ZM22.9178 17.4636C22.8894 17.4353 22.8734 17.3968 22.8734 17.3566H22.4734C22.4734 17.5028 22.5315 17.6431 22.6349 17.7465L22.9178 17.4636ZM22.8734 17.3566C22.8734 17.3165 22.8894 17.278 22.9178 17.2496L22.6349 16.9668C22.5315 17.0702 22.4734 17.2104 22.4734 17.3566H22.8734ZM22.9178 17.2496C22.9461 17.2212 22.9846 17.2053 23.0248 17.2053V16.8053C22.8786 16.8053 22.7383 16.8634 22.6349 16.9668L22.9178 17.2496ZM23.0248 17.2053H23.7138V16.8053H23.0248V17.2053ZM23.714 17.2053C24.1272 17.2048 24.5233 17.0405 24.8155 16.7483L24.5327 16.4655C24.3154 16.6828 24.0208 16.805 23.7136 16.8053L23.714 17.2053ZM24.8155 16.7483C25.1077 16.4562 25.272 16.06 25.2725 15.6468L24.8725 15.6464C24.8721 15.9536 24.7499 16.2482 24.5327 16.4655L24.8155 16.7483ZM25.2725 15.6466V10.1188H24.8725V15.6466H25.2725ZM25.2725 10.1185C25.2718 9.6522 25.0864 9.20515 24.7568 8.87531L24.4738 9.15806C24.7286 9.41302 24.872 9.75859 24.8725 10.1191L25.2725 10.1185ZM24.7568 8.87531C24.4272 8.54547 23.9802 8.35973 23.5139 8.35878L23.5131 8.75878C23.8736 8.75951 24.219 8.90309 24.4738 9.15806L24.7568 8.87531ZM23.5135 8.35878H16.4865V8.75878H23.5135V8.35878ZM16.4863 8.35878C16.0197 8.35931 15.5723 8.54486 15.2424 8.87475L15.5252 9.15762C15.7803 8.90262 16.126 8.75919 16.4867 8.75878L16.4863 8.35878ZM15.2424 8.87475C14.9124 9.20464 14.7268 9.65193 14.7261 10.1185L15.1261 10.1191C15.1266 9.75838 15.2701 9.41263 15.5252 9.15762L15.2424 8.87475ZM14.7261 10.1188V15.6483H15.1261V10.1188H14.7261ZM14.7261 15.6488C14.7271 16.0619 14.8918 16.4577 15.1842 16.7495L15.4668 16.4663C15.2493 16.2494 15.1268 15.955 15.1261 15.6479L14.7261 15.6488ZM15.1842 16.7495C15.4766 17.0412 15.8728 17.2052 16.2858 17.2053L16.2859 16.8053C15.9788 16.8052 15.6842 16.6833 15.4668 16.4663L15.1842 16.7495ZM16.2859 17.2053H16.9499V16.8053H16.2859V17.2053ZM16.9499 17.2053C16.9901 17.2053 17.0286 17.2212 17.0569 17.2496L17.3398 16.9668C17.2364 16.8634 17.0961 16.8053 16.9499 16.8053V17.2053ZM17.0569 17.2496C17.0853 17.278 17.1013 17.3165 17.1013 17.3566H17.5013C17.5013 17.2104 17.4432 17.0702 17.3398 16.9668L17.0569 17.2496ZM17.1013 17.3566C17.1013 17.3968 17.0853 17.4353 17.0569 17.4636L17.3398 17.7465C17.4432 17.6431 17.5013 17.5028 17.5013 17.3566H17.1013ZM17.0569 17.4636C17.0286 17.492 16.9901 17.508 16.9499 17.508V17.908C17.0962 17.908 17.2364 17.8499 17.3398 17.7465L17.0569 17.4636ZM16.9499 17.508H16.2859V17.908H16.9499V17.508ZM16.2861 17.508C15.7925 17.5075 15.3193 17.3112 14.9703 16.9622L14.6874 17.245C15.1114 17.6689 15.6861 17.9074 16.2857 17.908L16.2861 17.508ZM14.9703 16.9622C14.6213 16.6132 14.425 16.14 14.4245 15.6464L14.0245 15.6468C14.0251 16.2463 14.2635 16.8211 14.6874 17.245L14.9703 16.9622ZM14.4245 15.6466V10.1188H14.0245V15.6466H14.4245ZM14.4245 10.119C14.4252 9.57222 14.6426 9.04799 15.0292 8.66128L14.7463 8.37848C14.2849 8.84008 14.0253 9.46583 14.0245 10.1185L14.4245 10.119ZM15.0292 8.66128C15.4158 8.27456 15.94 8.05693 16.4868 8.05608L16.4862 7.65608C15.8335 7.65709 15.2078 7.91688 14.7463 8.37848L15.0292 8.66128ZM16.4865 8.05608H23.5135V7.65608H16.4865V8.05608ZM23.5133 8.05608C24.0603 8.05667 24.5847 8.2742 24.9715 8.66094L25.2543 8.37807C24.7926 7.91644 24.1666 7.65679 23.5137 7.65608L23.5133 8.05608ZM24.9715 8.66094C25.3583 9.04768 25.5759 9.57205 25.5766 10.119L25.9766 10.1185C25.9758 9.46563 25.716 8.83971 25.2543 8.37807L24.9715 8.66094ZM25.5766 10.1188V15.6483H25.9766V10.1188H25.5766ZM25.5766 15.648C25.5756 16.1414 25.379 16.6144 25.0299 16.9631L25.3125 17.2461C25.7366 16.8226 25.9754 16.2481 25.9766 15.6487L25.5766 15.648ZM25.0299 16.9631C24.6807 17.3118 24.2075 17.5077 23.714 17.508L23.7142 17.908C24.3136 17.9077 24.8884 17.6696 25.3125 17.2461L25.0299 16.9631ZM21.5065 25.0972C21.067 25.0967 20.6456 24.9219 20.3348 24.6111L20.052 24.8939C20.4377 25.2796 20.9606 25.4966 21.5061 25.4972L21.5065 25.0972ZM20.3348 24.6111C20.024 24.3003 19.8492 23.8789 19.8487 23.4394L19.4487 23.4398C19.4493 23.9853 19.6663 24.5082 20.052 24.8939L20.3348 24.6111ZM20.1514 23.4396C20.1514 23.7989 20.2941 24.1436 20.5482 24.3977L20.8311 24.1148C20.652 23.9357 20.5514 23.6929 20.5514 23.4396H20.1514ZM20.5482 24.3977C20.8023 24.6517 21.1469 24.7945 21.5063 24.7945V24.3945C21.253 24.3945 21.0101 24.2939 20.8311 24.1148L20.5482 24.3977ZM21.5063 24.7945C21.8656 24.7945 22.2102 24.6517 22.4643 24.3977L22.1815 24.1148C22.0024 24.2939 21.7595 24.3945 21.5063 24.3945V24.7945ZM22.4643 24.3977C22.7184 24.1436 22.8612 23.7989 22.8612 23.4396H22.4612C22.4612 23.6929 22.3606 23.9357 22.1815 24.1148L22.4643 24.3977ZM22.8612 23.4396V12.3415H22.4612V23.4396H22.8612ZM22.8612 12.3415C22.8612 12.3013 22.8771 12.2628 22.9055 12.2344L22.6227 11.9516C22.5193 12.055 22.4612 12.1952 22.4612 12.3415H22.8612ZM22.9055 12.2344C22.9339 12.2061 22.9724 12.1901 23.0125 12.1901V11.7901C22.8663 11.7901 22.7261 11.8482 22.6227 11.9516L22.9055 12.2344ZM23.0125 12.1901C23.0527 12.1901 23.0912 12.2061 23.1196 12.2344L23.4024 11.9516C23.299 11.8482 23.1588 11.7901 23.0125 11.7901V12.1901ZM23.1196 12.2344C23.1479 12.2628 23.1639 12.3013 23.1639 12.3415H23.5639C23.5639 12.1952 23.5058 12.055 23.4024 11.9516L23.1196 12.2344ZM23.1639 12.3415V23.4396H23.5639V12.3415H23.1639ZM23.1639 23.4394C23.1634 23.8789 22.9886 24.3003 22.6778 24.6111L22.9606 24.8939C23.3463 24.5082 23.5633 23.9853 23.5639 23.4398L23.1639 23.4394ZM22.6778 24.6111C22.367 24.9219 21.9456 25.0967 21.5061 25.0972L21.5065 25.4972C22.052 25.4966 22.5749 25.2796 22.9606 24.8939L22.6778 24.6111ZM18.4939 25.0972C18.0544 25.0967 17.633 24.9219 17.3222 24.6111L17.0394 24.8939C17.4251 25.2796 17.948 25.4966 18.4935 25.4972L18.4939 25.0972ZM17.3222 24.6111C17.0114 24.3003 16.8366 23.8789 16.8361 23.4394L16.4361 23.4398C16.4367 23.9853 16.6537 24.5082 17.0394 24.8939L17.3222 24.6111ZM16.8361 23.4396V12.3415H16.4361V23.4396H16.8361ZM16.8361 12.3415C16.8361 12.3013 16.8521 12.2628 16.8804 12.2344L16.5976 11.9516C16.4942 12.055 16.4361 12.1952 16.4361 12.3415H16.8361ZM16.8804 12.2344C16.9088 12.2061 16.9473 12.1901 16.9875 12.1901V11.7901C16.8412 11.7901 16.701 11.8482 16.5976 11.9516L16.8804 12.2344ZM16.9875 12.1901C17.0276 12.1901 17.0661 12.2061 17.0945 12.2344L17.3773 11.9516C17.2739 11.8482 17.1337 11.7901 16.9875 11.7901V12.1901ZM17.0945 12.2344C17.1229 12.2628 17.1388 12.3013 17.1388 12.3415H17.5388C17.5388 12.1952 17.4807 12.055 17.3773 11.9516L17.0945 12.2344ZM17.1388 12.3415V23.4396H17.5388V12.3415H17.1388ZM17.1388 23.4396C17.1388 23.7989 17.2816 24.1436 17.5356 24.3977L17.8185 24.1148C17.6394 23.9357 17.5388 23.6929 17.5388 23.4396H17.1388ZM17.5356 24.3977C17.7897 24.6517 18.1344 24.7945 18.4937 24.7945V24.3945C18.2405 24.3945 17.9976 24.2939 17.8185 24.1148L17.5356 24.3977ZM18.4937 24.7945C18.853 24.7945 19.1977 24.6517 19.4518 24.3977L19.1689 24.1148C18.9898 24.2939 18.747 24.3945 18.4937 24.3945V24.7945ZM19.4518 24.3977C19.7058 24.1436 19.8487 23.799 19.8487 23.4396H19.4487C19.4487 23.6928 19.348 23.9357 19.1689 24.1148L19.4518 24.3977ZM20.1514 23.4394C20.1509 23.8789 19.976 24.3003 19.6652 24.6111L19.948 24.8939C20.3337 24.5082 20.5508 23.9853 20.5514 23.4398L20.1514 23.4394ZM19.6652 24.6111C19.3544 24.9219 18.933 25.0967 18.4935 25.0972L18.4939 25.4972C19.0394 25.4966 19.5623 25.2796 19.948 24.8939L19.6652 24.6111Z" fill="#186282" mask="url(#path-1-outside-1)"/>
</svg>
