<svg width="28" height="28" viewBox="0 0 28 28" fill="none" xmlns="http://www.w3.org/2000/svg">
<g clip-path="url(#clip0)">
<path d="M14.6575 8.0668C14.4473 7.7798 14.2643 7.54985 14.1135 7.38335C13.8991 7.14668 13.7217 7 13.5 7C13.2784 7 13.101 7.14668 12.8866 7.38331C12.7358 7.54981 12.5527 7.77977 12.3426 8.0668C11.899 8.67263 11.4015 9.4402 10.9416 10.228C10.2164 11.4703 9 13.7747 9 15.2507C9 17.8695 11.0187 20 13.5 20C15.9813 20 18 17.8695 18 15.2507C18 13.7747 16.7836 11.4703 16.0584 10.228C15.5986 9.4402 15.101 8.67266 14.6575 8.0668ZM13.5 19.0549C11.5125 19.0549 9.89555 17.3483 9.89555 15.2507C9.89555 14.3853 10.5064 12.819 11.5714 10.9536C12.3712 9.55264 13.1399 8.48635 13.5 8.07291C13.8602 8.48631 14.6288 9.55261 15.4287 10.9536C16.4937 12.819 17.1045 14.3853 17.1045 15.2507C17.1045 17.3483 15.4875 19.0549 13.5 19.0549Z" fill="#186282"/>
<path d="M14.6575 8.0668C14.4473 7.7798 14.2643 7.54985 14.1135 7.38335C13.8991 7.14668 13.7217 7 13.5 7C13.2784 7 13.101 7.14668 12.8866 7.38331C12.7358 7.54981 12.5527 7.77977 12.3426 8.0668C11.899 8.67263 11.4015 9.4402 10.9416 10.228C10.2164 11.4703 9 13.7747 9 15.2507C9 17.8695 11.0187 20 13.5 20C15.9813 20 18 17.8695 18 15.2507C18 13.7747 16.7836 11.4703 16.0584 10.228C15.5986 9.4402 15.101 8.67266 14.6575 8.0668ZM13.5 19.0549C11.5125 19.0549 9.89555 17.3483 9.89555 15.2507C9.89555 14.3853 10.5064 12.819 11.5714 10.9536C12.3712 9.55264 13.1399 8.48635 13.5 8.07291C13.8602 8.48631 14.6288 9.55261 15.4287 10.9536C16.4937 12.819 17.1045 14.3853 17.1045 15.2507C17.1045 17.3483 15.4875 19.0549 13.5 19.0549Z" stroke="#186282"/>
<path d="M3.20253 4.9629L3.20939 5.3612L3.46694 5.0573C4.46643 3.87793 5.65741 2.86539 6.99131 2.07351L6.91888 1.9515L6.99131 2.07351C9.11095 0.815126 11.5346 0.15 14 0.15C21.6368 0.15 27.8499 6.36321 27.8499 13.9999C27.8499 15.0986 27.6973 16.228 27.3817 17.4537C27.2868 17.8226 26.9108 18.0447 26.5418 17.9498L26.5068 18.086L26.5418 17.9498C26.1729 17.8549 25.9508 17.4788 26.0458 17.1099C26.3309 16.0021 26.4704 14.9844 26.4704 14C26.4704 7.12366 20.8763 1.52956 14 1.52956C10.094 1.52956 6.41366 3.40468 4.07219 6.50614L3.89071 6.74652H4.1919H4.98285C5.36378 6.74652 5.67257 7.05536 5.67257 7.43635C5.67257 7.81731 5.36375 8.12613 4.98279 8.12613H2.62953H2.61924L2.60904 8.12754C2.19125 8.18516 1.82371 7.86086 1.82371 7.44428V4.97492C1.82371 4.59396 2.13253 4.28514 2.51349 4.28514C2.89025 4.28514 3.19605 4.58742 3.20253 4.9629Z" fill="#186282" stroke="white" stroke-width="0.3"/>
<path d="M24.7974 23.1589L24.7906 22.7606L24.533 23.0645C23.5335 24.2439 22.3425 25.2564 21.0086 26.0483L21.0811 26.1703L21.0086 26.0483C18.889 27.3067 16.4654 27.9718 13.9999 27.9718C6.36315 27.9718 0.15 21.7586 0.150001 14.1219C0.150001 13.0232 0.302669 11.8938 0.618202 10.6681C0.713115 10.2993 1.08913 10.0771 1.4581 10.172L1.49315 10.0358L1.45811 10.172C1.827 10.2669 2.04909 10.643 1.95414 11.0119C1.66899 12.1197 1.52951 13.1374 1.52951 14.1218C1.52951 20.9982 7.1236 26.5923 13.9999 26.5923C17.9059 26.5923 21.5863 24.7171 23.9278 21.6157L24.1092 21.3753L23.808 21.3753L23.0171 21.3753C22.6362 21.3753 22.3274 21.0665 22.3274 20.6855C22.3274 20.3045 22.6362 19.9957 23.0171 19.9957L25.3704 19.9957L25.3807 19.9957L25.3909 19.9943C25.8087 19.9367 26.1762 20.261 26.1762 20.6775L26.1762 23.1469C26.1762 23.5279 25.8674 23.8367 25.4865 23.8367C25.1097 23.8367 24.8039 23.5344 24.7974 23.1589Z" fill="#186282" stroke="white" stroke-width="0.3"/>
</g>
<defs>
<clipPath id="clip0">
<rect width="28" height="28" fill="white"/>
</clipPath>
</defs>
</svg>
