<svg width="26" height="26" viewBox="0 0 26 26" fill="none" xmlns="http://www.w3.org/2000/svg">
<path d="M2.40625 16.1H25.1538C25.4337 16.1 25.6601 15.8736 25.6601 15.5938C25.6601 15.3139 25.4337 15.0875 25.1538 15.0875H2.40625C2.12637 15.0875 1.9 15.3139 1.9 15.5938C1.9 15.8736 2.12637 16.1 2.40625 16.1Z" fill="#0D5667" stroke="#0D5667" stroke-width="0.2"/>
<path d="M2.40625 20.1H25.1538C25.4337 20.1 25.6601 19.8736 25.6601 19.5938C25.6601 19.3139 25.4337 19.0875 25.1538 19.0875H2.40625C2.12637 19.0875 1.9 19.3139 1.9 19.5938C1.9 19.8736 2.12637 20.1 2.40625 20.1Z" fill="#0D5667" stroke="#0D5667" stroke-width="0.2"/>
<path d="M4.15002 4.61265L6.78012 4.61265C7.07066 4.61265 7.30611 4.84817 7.30611 5.13865C7.30611 5.42913 7.0706 5.66464 6.78012 5.66464L5.41985 5.66464L11.5143 11.7591L14.7157 8.55771L12.5663 6.40836L12.5663 7.76862C12.5663 8.05917 12.3308 8.29462 12.0403 8.29462C11.7498 8.29462 11.5143 8.0591 11.5143 7.76862L11.5143 5.13852C11.5143 4.84798 11.7498 4.61253 12.0403 4.61253L14.6704 4.61253C14.961 4.61253 15.1964 4.84804 15.1964 5.13852C15.1964 5.429 14.9609 5.66452 14.6704 5.66452L13.3102 5.66452L15.4595 7.81387L18.5067 4.76663C18.7131 4.56728 19.0412 4.57016 19.2441 4.77302C19.4471 4.97595 19.4499 5.30403 19.2505 5.51041L16.2033 8.55765L19.4046 11.7591L21.5314 9.63439C21.5317 9.63489 21.5319 9.63533 21.5322 9.63583L22.7326 8.43544C22.9389 8.23608 23.267 8.23897 23.47 8.44183C23.6729 8.64476 23.6757 8.97284 23.4763 9.17922L21.2366 11.419C21.2361 11.4187 21.2357 11.4184 21.2352 11.4181L19.7766 12.877C19.5711 13.0823 19.2382 13.0823 19.0328 12.877L15.4595 9.30161L11.8862 12.8749C11.6808 13.0803 11.3478 13.0803 11.1424 12.8749L4.67601 6.40848L4.67601 7.76875C4.67601 8.05929 4.4405 8.29474 4.15002 8.29474C3.85948 8.29474 3.62402 8.05923 3.62402 7.76875L3.62402 5.13865C3.62396 4.84811 3.85948 4.61265 4.15002 4.61265Z" fill="#0D5667"/>
</svg>
