<svg width="46" height="46" viewBox="0 0 46 46" fill="none" xmlns="http://www.w3.org/2000/svg">
<g clip-path="url(#clip0)">
<path d="M19.3473 14.8858C18.4332 14.2783 17.1942 13.893 15.8389 13.8665V13.8558H15.6889C14.2884 13.8558 12.9915 14.2492 12.0405 14.8812C11.0918 15.5117 10.469 16.3942 10.469 17.3731C10.469 18.3523 11.0919 19.2326 12.0407 19.8607C12.9917 20.4903 14.2886 20.8813 15.6889 20.8813C17.089 20.8813 18.3858 20.4903 19.3367 19.8607C20.2855 19.2326 20.9084 18.3523 20.9084 17.3731C20.9084 16.3948 20.2931 15.5144 19.3473 14.8858ZM22.4587 17.3735C22.4587 18.7494 21.7132 20.0106 20.4879 20.933C19.2626 21.8553 17.565 22.4316 15.6889 22.4316C13.8128 22.4316 12.1152 21.8553 10.8899 20.933C9.66452 20.0106 8.91904 18.7494 8.91904 17.3735C8.91904 15.9972 9.66237 14.7359 10.8865 13.8136C12.1105 12.8913 13.8081 12.315 15.6889 12.315C17.5696 12.315 19.2672 12.8913 20.4913 13.8136C21.7154 14.7359 22.4587 15.9972 22.4587 17.3735Z" fill="#38500D" stroke="url(#paint0_linear)" stroke-width="0.3"/>
<path d="M31.2694 26.9947V27.0947H31.3694H45.0239C45.4795 27.0947 45.8491 27.4643 45.8491 27.9195V39.2892C45.8491 39.7447 45.4795 40.1144 45.0239 40.1144H15.6705C15.018 40.1144 14.3738 40.0685 13.7365 40.0128L13.7366 40.0124H13.7278H13.5752C9.75071 39.648 6.35838 38.2695 3.92394 36.262C1.48871 34.2539 0.0158936 31.6206 0.0158936 28.743V17.364C0.0158936 14.24 1.75359 11.3973 4.58072 9.33182C7.40773 7.26647 11.3183 5.98379 15.6428 5.98379C19.9672 5.98379 23.8776 7.26647 26.7046 9.33182C29.5317 11.3973 31.2694 14.24 31.2694 17.364V26.9947ZM29.6656 22.7668V22.6668H29.5656H29.5191H29.4697L29.4397 22.706C28.0521 24.5192 26.2379 25.9611 24.1585 26.9036L24.1998 27.0947H29.5656H29.6656V26.9947V22.7668ZM44.0988 38.464H44.1988V38.364V28.8446V28.7446H44.0988H15.7352C9.73702 28.7446 4.56214 26.2935 1.93929 22.7078L1.75858 22.4607V22.7668V28.7338C1.75858 31.0827 2.95218 33.2317 4.92415 34.9063C6.8959 36.5808 9.64995 37.7853 12.7874 38.2502L12.902 38.2671V38.1512V35.8291C12.902 35.3736 13.2717 35.004 13.7272 35.004C14.1827 35.004 14.5523 35.3736 14.5523 35.8291V38.3733V38.4733H14.6523H14.6543H14.6563H14.6583H14.6603H14.6624H14.6644H14.6664H14.6684H14.6704H14.6724H14.6744H14.6764H14.6784H14.6804H14.6824H14.6844H14.6864H14.6884H14.6904H14.6925H14.6945H14.6965H14.6985H14.7005H14.7025H14.7045H14.7065H14.7085H14.7105H14.7125H14.7145H14.7165H14.7185H14.7205H14.7226H14.7246H14.7266H14.7286H14.7306H14.7326H14.7346H14.7366H14.7386H14.7406H14.7426H14.7446H14.7466H14.7486H14.7507H14.7527H14.7547H14.7567H14.7587H14.7607H14.7627H14.7647H14.7667H14.7687H14.7707H14.7727H14.7747H14.7767H14.7787H14.7808H14.7828H14.7848H14.7868H14.7888H14.7908H14.7928H14.7948H14.7968H14.7988H14.8008H14.8028H14.8048H14.8068H14.8089H14.8109H14.8129H14.8149H14.8169H14.8189H14.8209H14.8229H14.8249H14.8269H14.8289H14.8309H14.8329H14.835H14.837H14.839H14.841H14.843H14.845H14.847H14.849H14.851H14.853H14.855H14.857H14.8591H14.8611H14.8631H14.8651H14.8671H14.8691H14.8711H14.8731H14.8751H14.8771H14.8791H14.8811H14.8832H14.8852H14.8872H14.8892H14.8912H14.8932H14.8952H14.8972H14.8992H14.9012H14.9032H14.9053H14.9073H14.9093H14.9113H14.9133H14.9153H14.9173H14.9193H14.9213H14.9233H14.9253H14.9274H14.9294H14.9314H14.9334H14.9354H14.9374H14.9394H14.9414H14.9434H14.9454H14.9475H14.9495H14.9515H14.9535H14.9555H14.9575H14.9595H14.9615H14.9635H14.9655H14.9676H14.9696H14.9716H14.9736H14.9756H14.9776H14.9796H14.9816H14.9836H14.9857H14.9877H14.9897H14.9917H14.9937H14.9957H14.9977H14.9997H15.0018H15.0038H15.0058H15.0078H15.0098H15.0118H15.0138H15.0158H15.0178H15.0199H15.0219H15.0239H15.0259H15.0279H15.0299H15.0319H15.0339H15.036H15.038H15.04H15.042H15.044H15.046H15.048H15.0501H15.0521H15.0541H15.0561H15.0581H15.0601H15.0621H15.0642H15.0662H15.0682H15.0702H15.0722H15.0742H15.0762H15.0783H15.0803H15.0823H15.0843H15.0863H15.0883H15.0903H15.0924H15.0944H15.0964H15.0984H15.1004H15.1024H15.1045H15.1065H15.1085H15.1105H15.1125H15.1145H15.1165H15.1186H15.1206H15.1226H15.1246H15.1266H15.1286H15.1307H15.1327H15.1347H15.1367H15.1387H15.1408H15.1428H15.1448H15.1468H15.1488H15.1508H15.1529H15.1549H15.1569H15.1589H15.1609H15.163H15.165H15.167H15.169H15.171H15.173H15.1751H15.1771H15.1791H15.1811H15.1831H15.1852H15.1872H15.1892H15.1912H15.1932H15.1953H15.1973H15.1993H15.2013H15.2033H15.2054H15.2074H15.2094H15.2114H15.2134H15.2155H15.2175H15.2195H15.2215H15.2236H15.2256H15.2276H15.2296H15.2316H15.2337H15.2357H15.2377H15.2397H15.2418H15.2438H15.2458H15.2478H15.2498H15.2519H15.2539H15.2559H15.2579H15.26H15.262H15.264H15.266H15.2681H15.2701H15.2721H15.2741H15.2762H15.2782H15.2802H15.2822H15.2843H15.2863H15.2883H15.2903H15.2924H15.2944H15.2964H15.2984H15.3005H15.3025H15.3045H15.3066H15.3086H15.3106H15.3126H15.3147H15.3167H15.3187H15.3207H15.3228H15.3248H15.3268H15.3289H15.3309H15.3329H15.3349H15.337H15.339H15.341H15.3431H15.3451H15.3471H15.3491H15.3512H15.3532H15.3552H15.3573H15.3593H15.3613H15.3634H15.3654H15.3674H15.3694H15.3715H15.3735H15.3755H15.3776H15.3796H15.3816H15.3837H15.3857H15.3877H15.3898H15.3918H15.3938H15.3959H15.3979H15.3999H15.402H15.404H15.406H15.4081H15.4101H15.4121H15.4142H15.4162H15.4182H15.4203H15.4223H15.4243H15.4264H15.4284H15.4304H15.4325H15.4345H15.4366H15.4386H15.4406H15.4427H15.4447H15.4467H15.4488H15.4508H15.4529H15.4549H15.4569H15.459H15.461H15.463H15.4651H15.4671H15.4692H15.4712H15.4732H15.4753H15.4773H15.4794H15.4814H15.4834H15.4855H15.4875H15.4896H15.4916H15.4936H15.4957H15.4977H15.4998H15.5018H15.5038H15.5059H15.5079H15.51H15.512H15.514H15.5161H15.5181H15.5202H15.5222H15.5243H15.5263H15.5283H15.5304H15.5324H15.5345H15.5365H15.5386H15.5406H15.5427H15.5447H15.5468H15.5488H15.5508H15.5529H15.5549H15.557H15.559H15.5611H15.5631H15.5652H15.5672H15.5693H15.5713H15.5734H15.5754H15.5775H15.5795H15.5815H15.5836H15.5856H15.5877H15.5897H15.5918H15.5938H15.5959H15.5979H15.6H15.602H15.6041H15.6061H15.6082H15.6102H15.6123H15.6143H15.6164H15.6185H15.6205H15.6226H15.6246H15.6267H15.6287H15.6308H15.6328H15.6349H15.6369H15.639H15.641H15.6431H15.6451H15.6472H15.6493H15.6513H15.6534H15.6554H15.6575H15.6595H15.6616H15.6636H15.6657H15.6678H15.6698H15.6719H15.6739H15.676H15.678H15.6801H15.6822H15.6842H15.6863H15.6883H18.3529H18.4529V38.3733V35.8291C18.4529 35.3736 18.8226 35.004 19.2781 35.004C19.7333 35.004 20.1032 35.3736 20.1032 35.8291V38.3733V38.4733H20.2032H23.7461H23.8461V38.3733V33.6829C23.8461 33.2274 24.2161 32.8577 24.6713 32.8577C25.1268 32.8577 25.4964 33.2277 25.4964 33.6829V38.3733V38.4733H25.5964H29.297H29.397V38.3733V35.8291C29.397 35.3736 29.7667 35.004 30.2222 35.004C30.6777 35.004 31.0473 35.3736 31.0473 35.8291V38.3733V38.4733H31.1473H34.8476H34.9476V38.3733V35.8291C34.9476 35.3736 35.3172 35.004 35.7728 35.004C36.2283 35.004 36.5979 35.3736 36.5979 35.8291V38.3733V38.4733H36.6979H40.3985H40.4985V38.3733V33.6829C40.4985 33.2273 40.8681 32.8577 41.3237 32.8577C41.7788 32.8577 42.1485 33.2276 42.1485 33.6829V38.364V38.464H42.2485H44.0988ZM29.6656 17.3736C29.6656 14.6762 28.0796 12.2412 25.5462 10.4847C23.0124 8.72796 19.5228 7.643 15.689 7.643C11.8596 7.643 8.37003 8.72797 5.83513 10.4847C3.30072 12.2411 1.71239 14.676 1.71239 17.3733C1.71239 20.0704 3.28888 22.5055 5.81772 24.2621C8.34696 26.019 11.8366 27.1039 15.689 27.1039C19.5414 27.1039 23.031 26.019 25.5603 24.2622C28.0891 22.5056 29.6656 20.0706 29.6656 17.3736Z" fill="#38500D" stroke="url(#paint1_linear)" stroke-width="0.2"/>
</g>
<defs>
<linearGradient id="paint0_linear" x1="15.6889" y1="12.165" x2="15.6889" y2="22.5816" gradientUnits="userSpaceOnUse">
<stop stop-color="#E6EF80"/>
<stop offset="1" stop-color="#A7DC52"/>
</linearGradient>
<linearGradient id="paint1_linear" x1="-15.9996" y1="30" x2="57.0004" y2="30" gradientUnits="userSpaceOnUse">
<stop stop-color="#E0E97C"/>
<stop offset="1" stop-color="#A7DC52"/>
</linearGradient>
<clipPath id="clip0">
<rect width="46" height="46" fill="white" transform="translate(0.000244141)"/>
</clipPath>
</defs>
</svg>
