<svg width="46" height="46" viewBox="0 0 46 46" fill="none" xmlns="http://www.w3.org/2000/svg">
<g clip-path="url(#clip0)">
<path d="M19.3478 14.8853C18.4337 14.2778 17.1947 13.8926 15.8394 13.866V13.8553H15.6894C14.2889 13.8553 12.992 14.2487 12.041 14.8807C11.0923 15.5112 10.4695 16.3938 10.4695 17.3727C10.4695 18.3519 11.0924 19.2322 12.0412 19.8603C12.9922 20.4899 14.2891 20.8808 15.6894 20.8808C17.0894 20.8808 18.3863 20.4899 19.3372 19.8603C20.286 19.2322 20.9089 18.3519 20.9089 17.3727C20.9089 16.3943 20.2936 15.5139 19.3478 14.8853ZM22.4592 17.373C22.4592 18.7489 21.7137 20.0102 20.4884 20.9325C19.2631 21.8549 17.5655 22.4311 15.6894 22.4311C13.8133 22.4311 12.1156 21.8549 10.8904 20.9325C9.66501 20.0102 8.91953 18.7489 8.91953 17.373C8.91953 15.9968 9.66286 14.7355 10.8869 13.8132C12.111 12.8909 13.8086 12.3146 15.6894 12.3146C17.5701 12.3146 19.2677 12.8909 20.4918 13.8132C21.7159 14.7355 22.4592 15.9968 22.4592 17.373Z" fill="#C4FF64" stroke="url(#paint0_linear)" stroke-width="0.3"/>
<path d="M31.2695 26.9943V27.0943H31.3695H45.0241C45.4796 27.0943 45.8492 27.464 45.8492 27.9191V39.2889C45.8492 39.7444 45.4796 40.114 45.0241 40.114H15.6706C15.0182 40.114 14.3739 40.0681 13.7367 40.0124L13.7367 40.0121H13.728H13.5753C9.75083 39.6476 6.35851 38.2691 3.92407 36.2617C1.48883 34.2536 0.0160156 31.6203 0.0160156 28.7427V17.3637C0.0160156 14.2397 1.75371 11.3969 4.58084 9.33148C7.40785 7.26613 11.3184 5.98345 15.6429 5.98345C19.9673 5.98345 23.8777 7.26613 26.7047 9.33148C29.5318 11.3969 31.2695 14.2397 31.2695 17.3637V26.9943ZM29.6657 22.7665V22.6665H29.5657H29.5192H29.4698L29.4398 22.7057C28.0522 24.5188 26.2381 25.9608 24.1586 26.9032L24.1999 27.0943H29.5657H29.6657V26.9943V22.7665ZM44.0989 38.4637H44.1989V38.3637V28.8443V28.7443H44.0989H15.7353C9.73715 28.7443 4.56226 26.2932 1.93941 22.7074L1.7587 22.4604V22.7665V28.7334C1.7587 31.0823 2.9523 33.2314 4.92427 34.906C6.89603 36.5804 9.65007 37.7849 12.7875 38.2498L12.9021 38.2668V38.1509V35.8288C12.9021 35.3733 13.2718 35.0036 13.7273 35.0036C14.1828 35.0036 14.5524 35.3733 14.5524 35.8288V38.373V38.4729H14.6524H14.6545H14.6565H14.6585H14.6605H14.6625H14.6645H14.6665H14.6685H14.6705H14.6725H14.6745H14.6765H14.6785H14.6805H14.6825H14.6846H14.6866H14.6886H14.6906H14.6926H14.6946H14.6966H14.6986H14.7006H14.7026H14.7046H14.7066H14.7086H14.7106H14.7126H14.7147H14.7167H14.7187H14.7207H14.7227H14.7247H14.7267H14.7287H14.7307H14.7327H14.7347H14.7367H14.7387H14.7407H14.7427H14.7448H14.7468H14.7488H14.7508H14.7528H14.7548H14.7568H14.7588H14.7608H14.7628H14.7648H14.7668H14.7688H14.7708H14.7728H14.7749H14.7769H14.7789H14.7809H14.7829H14.7849H14.7869H14.7889H14.7909H14.7929H14.7949H14.7969H14.7989H14.8009H14.803H14.805H14.807H14.809H14.811H14.813H14.815H14.817H14.819H14.821H14.823H14.825H14.827H14.8291H14.8311H14.8331H14.8351H14.8371H14.8391H14.8411H14.8431H14.8451H14.8471H14.8491H14.8511H14.8531H14.8552H14.8572H14.8592H14.8612H14.8632H14.8652H14.8672H14.8692H14.8712H14.8732H14.8752H14.8772H14.8793H14.8813H14.8833H14.8853H14.8873H14.8893H14.8913H14.8933H14.8953H14.8973H14.8993H14.9014H14.9034H14.9054H14.9074H14.9094H14.9114H14.9134H14.9154H14.9174H14.9194H14.9214H14.9235H14.9255H14.9275H14.9295H14.9315H14.9335H14.9355H14.9375H14.9395H14.9415H14.9436H14.9456H14.9476H14.9496H14.9516H14.9536H14.9556H14.9576H14.9596H14.9616H14.9637H14.9657H14.9677H14.9697H14.9717H14.9737H14.9757H14.9777H14.9797H14.9818H14.9838H14.9858H14.9878H14.9898H14.9918H14.9938H14.9958H14.9978H14.9999H15.0019H15.0039H15.0059H15.0079H15.0099H15.0119H15.0139H15.016H15.018H15.02H15.022H15.024H15.026H15.028H15.03H15.0321H15.0341H15.0361H15.0381H15.0401H15.0421H15.0441H15.0462H15.0482H15.0502H15.0522H15.0542H15.0562H15.0582H15.0602H15.0623H15.0643H15.0663H15.0683H15.0703H15.0723H15.0743H15.0764H15.0784H15.0804H15.0824H15.0844H15.0864H15.0885H15.0905H15.0925H15.0945H15.0965H15.0985H15.1005H15.1026H15.1046H15.1066H15.1086H15.1106H15.1126H15.1147H15.1167H15.1187H15.1207H15.1227H15.1247H15.1268H15.1288H15.1308H15.1328H15.1348H15.1368H15.1389H15.1409H15.1429H15.1449H15.1469H15.1489H15.151H15.153H15.155H15.157H15.159H15.1611H15.1631H15.1651H15.1671H15.1691H15.1711H15.1732H15.1752H15.1772H15.1792H15.1812H15.1833H15.1853H15.1873H15.1893H15.1913H15.1934H15.1954H15.1974H15.1994H15.2014H15.2035H15.2055H15.2075H15.2095H15.2115H15.2136H15.2156H15.2176H15.2196H15.2217H15.2237H15.2257H15.2277H15.2297H15.2318H15.2338H15.2358H15.2378H15.2399H15.2419H15.2439H15.2459H15.2479H15.25H15.252H15.254H15.256H15.2581H15.2601H15.2621H15.2641H15.2662H15.2682H15.2702H15.2722H15.2743H15.2763H15.2783H15.2803H15.2824H15.2844H15.2864H15.2884H15.2905H15.2925H15.2945H15.2965H15.2986H15.3006H15.3026H15.3046H15.3067H15.3087H15.3107H15.3128H15.3148H15.3168H15.3188H15.3209H15.3229H15.3249H15.3269H15.329H15.331H15.333H15.3351H15.3371H15.3391H15.3411H15.3432H15.3452H15.3472H15.3493H15.3513H15.3533H15.3554H15.3574H15.3594H15.3614H15.3635H15.3655H15.3675H15.3696H15.3716H15.3736H15.3757H15.3777H15.3797H15.3818H15.3838H15.3858H15.3879H15.3899H15.3919H15.394H15.396H15.398H15.4001H15.4021H15.4041H15.4062H15.4082H15.4102H15.4123H15.4143H15.4163H15.4184H15.4204H15.4224H15.4245H15.4265H15.4285H15.4306H15.4326H15.4346H15.4367H15.4387H15.4408H15.4428H15.4448H15.4469H15.4489H15.4509H15.453H15.455H15.457H15.4591H15.4611H15.4632H15.4652H15.4672H15.4693H15.4713H15.4734H15.4754H15.4774H15.4795H15.4815H15.4836H15.4856H15.4876H15.4897H15.4917H15.4938H15.4958H15.4978H15.4999H15.5019H15.504H15.506H15.508H15.5101H15.5121H15.5142H15.5162H15.5183H15.5203H15.5223H15.5244H15.5264H15.5285H15.5305H15.5326H15.5346H15.5366H15.5387H15.5407H15.5428H15.5448H15.5469H15.5489H15.551H15.553H15.5551H15.5571H15.5591H15.5612H15.5632H15.5653H15.5673H15.5694H15.5714H15.5735H15.5755H15.5776H15.5796H15.5817H15.5837H15.5858H15.5878H15.5899H15.5919H15.594H15.596H15.5981H15.6001H15.6022H15.6042H15.6063H15.6083H15.6104H15.6124H15.6145H15.6165H15.6186H15.6206H15.6227H15.6247H15.6268H15.6288H15.6309H15.6329H15.635H15.637H15.6391H15.6412H15.6432H15.6453H15.6473H15.6494H15.6514H15.6535H15.6555H15.6576H15.6597H15.6617H15.6638H15.6658H15.6679H15.6699H15.672H15.674H15.6761H15.6782H15.6802H15.6823H15.6843H15.6864H15.6885H18.3531H18.4531V38.373V35.8288C18.4531 35.3733 18.8227 35.0036 19.2782 35.0036C19.7334 35.0036 20.1034 35.3733 20.1034 35.8288V38.373V38.4729H20.2034H23.7462H23.8462V38.373V33.6825C23.8462 33.227 24.2162 32.8574 24.6714 32.8574C25.1269 32.8574 25.4965 33.2273 25.4965 33.6825V38.373V38.4729H25.5965H29.2972H29.3972V38.373V35.8288C29.3972 35.3733 29.7668 35.0036 30.2223 35.0036C30.6778 35.0036 31.0475 35.3733 31.0475 35.8288V38.373V38.4729H31.1475H34.8477H34.9477V38.373V35.8288C34.9477 35.3733 35.3174 35.0036 35.7729 35.0036C36.2284 35.0036 36.598 35.3733 36.598 35.8288V38.373V38.4729H36.698H40.3986H40.4986V38.373V33.6825C40.4986 33.227 40.8683 32.8574 41.3238 32.8574C41.7789 32.8574 42.1486 33.2273 42.1486 33.6825V38.3637V38.4637H42.2486H44.0989ZM29.6657 17.3733C29.6657 14.6759 28.0797 12.2408 25.5463 10.4844C23.0125 8.72762 19.523 7.64266 15.6891 7.64266C11.8597 7.64266 8.37015 8.72763 5.83525 10.4843C3.30084 12.2407 1.71251 14.6757 1.71251 17.3729C1.71251 20.0701 3.28901 22.5052 5.81784 24.2618C8.34708 26.0186 11.8367 27.1036 15.6891 27.1036C19.5415 27.1036 23.0312 26.0186 25.5604 24.2618C28.0892 22.5053 29.6657 20.0703 29.6657 17.3733Z" fill="#C4FF64" stroke="url(#paint1_linear)" stroke-width="0.2"/>
</g>
<defs>
<linearGradient id="paint0_linear" x1="15.6894" y1="12.1646" x2="15.6894" y2="22.5811" gradientUnits="userSpaceOnUse">
<stop stop-color="#E6EF80"/>
<stop offset="1" stop-color="#A7DC52"/>
</linearGradient>
<linearGradient id="paint1_linear" x1="-15.9995" y1="29.9997" x2="57.0005" y2="29.9997" gradientUnits="userSpaceOnUse">
<stop stop-color="#E0E97C"/>
<stop offset="1" stop-color="#A7DC52"/>
</linearGradient>
<clipPath id="clip0">
<rect width="46" height="46" fill="white"/>
</clipPath>
</defs>
</svg>
