<svg width="39" height="50" viewBox="0 0 39 50" fill="none" xmlns="http://www.w3.org/2000/svg">
<path d="M34.9917 35.2566C34.8692 35.2565 34.7487 35.2248 34.6419 35.1647C34.5351 35.1046 34.4456 35.0179 34.3819 34.9132C34.3183 34.8084 34.2827 34.6891 34.2785 34.5666C34.2744 34.4441 34.3018 34.3226 34.3582 34.2137C34.6817 33.588 34.9617 32.9909 35.2153 32.3895C35.2911 32.2192 35.4305 32.0854 35.6037 32.0164C35.7768 31.9475 35.9701 31.949 36.1422 32.0206C36.3142 32.0922 36.4515 32.2282 36.5247 32.3996C36.5979 32.571 36.6012 32.7642 36.5339 32.938C36.2689 33.5766 35.9732 34.2087 35.6303 34.8709C35.5698 34.9878 35.4781 35.0857 35.3654 35.1537C35.2527 35.2218 35.1234 35.2574 34.9917 35.2566Z" fill="#87B72B"/>
<path d="M19.2928 50C19.181 49.9998 19.0707 49.9737 18.9707 49.9236C7.09213 43.9286 0 33.8722 0 23.0215V8.57151C3.60849e-05 8.47159 0.0210338 8.3728 0.0616359 8.2815C0.102238 8.19021 0.161541 8.10845 0.235714 8.04151C0.310109 7.97485 0.397536 7.92437 0.492457 7.89326C0.587378 7.86216 0.687725 7.8511 0.787142 7.86079C7.8507 8.58794 13.8935 6.02794 18.7457 0.254381C18.812 0.175559 18.8946 0.112023 18.9878 0.0681303C19.0811 0.0242381 19.1827 0.00102911 19.2857 9.5688e-05C19.3889 -0.00160544 19.4912 0.0193939 19.5854 0.0616076C19.6795 0.103821 19.7633 0.166217 19.8307 0.244381C24.0928 5.11937 30.1678 7.68008 37.8878 7.85722C38.0744 7.86152 38.2519 7.93866 38.3823 8.07215C38.5127 8.20564 38.5857 8.38488 38.5856 8.57151V20.3358C38.5856 20.5252 38.5104 20.7069 38.3764 20.8408C38.2425 20.9748 38.0608 21.0501 37.8714 21.0501C37.6819 21.0501 37.5002 20.9748 37.3663 20.8408C37.2323 20.7069 37.1571 20.5252 37.1571 20.3358V9.26436C29.6692 8.95365 23.6707 6.44294 19.3057 1.79223C14.4057 7.30651 8.39784 9.84365 1.42857 9.35079V23.0215C1.42857 33.2243 8.09927 42.7207 19.2928 48.4836C24.1203 46.0696 28.3574 42.6228 31.7035 38.3879C31.7605 38.3134 31.8316 38.2508 31.9128 38.2037C31.9939 38.1567 32.0836 38.1261 32.1766 38.1137C32.2696 38.1013 32.3641 38.1073 32.4547 38.1314C32.5454 38.1556 32.6304 38.1973 32.7049 38.2543C32.7795 38.3113 32.842 38.3824 32.8891 38.4636C32.9361 38.5447 32.9667 38.6344 32.9791 38.7274C32.9915 38.8203 32.9855 38.9149 32.9614 39.0055C32.9372 39.0962 32.8955 39.1812 32.8385 39.2557C29.2835 43.7555 24.7648 47.4008 19.615 49.9236C19.515 49.9737 19.4047 49.9998 19.2928 50Z" fill="#87B72B"/>
<path d="M37.3792 28.5858C37.3312 28.5861 37.2833 28.5813 37.2363 28.5715C37.0506 28.5344 36.8872 28.4251 36.782 28.2676C36.6769 28.1101 36.6386 27.9173 36.6756 27.7315C36.8185 27.0379 36.927 26.3294 37.0099 25.6244C37.0191 25.5298 37.0471 25.4381 37.0922 25.3545C37.1373 25.271 37.1986 25.1972 37.2726 25.1376C37.3465 25.078 37.4316 25.0338 37.5229 25.0075C37.6141 24.9811 37.7097 24.9733 37.804 24.9844C37.8983 24.9954 37.9895 25.0252 38.0722 25.0719C38.1549 25.1186 38.2274 25.1814 38.2856 25.2565C38.3437 25.3316 38.3863 25.4175 38.4108 25.5092C38.4354 25.601 38.4414 25.6967 38.4285 25.7908C38.3413 26.5337 38.2227 27.2808 38.0763 28.0115C38.0441 28.1729 37.9571 28.3182 37.83 28.4228C37.703 28.5275 37.5437 28.585 37.3792 28.5858Z" fill="#87B72B"/>
<path d="M19.2929 45.3234C19.1703 45.3234 19.0497 45.2917 18.9429 45.2312C9.6201 39.9912 4.05512 31.7198 4.05512 23.1041V12.6692C4.05493 12.4852 4.12576 12.3082 4.25284 12.1751C4.37991 12.0421 4.55344 11.9632 4.73726 11.9549C10.0347 11.7252 15.0671 9.57396 18.8937 5.90346C19.0215 5.78488 19.1883 5.71717 19.3627 5.71309C19.537 5.70901 19.7068 5.76885 19.8401 5.88132C23.8448 9.16253 28.7418 11.1668 33.8979 11.6349C34.0722 11.6547 34.2331 11.7379 34.3499 11.8687C34.4667 11.9996 34.5314 12.1688 34.5315 12.3442V23.1034C34.5315 31.7191 28.9658 39.9912 19.6429 45.2312C19.5362 45.2917 19.4156 45.3234 19.2929 45.3234ZM5.48368 13.3427V23.1041C5.48368 31.0891 10.638 38.7955 19.2929 43.7848C27.9486 38.7941 33.1029 31.0863 33.1029 23.1013V12.9756C28.1058 12.4088 23.3634 10.469 19.4015 7.37132C15.5642 10.8678 10.6618 12.9712 5.48368 13.3427Z" fill="#87B72B"/>
<path d="M16.1719 31.3658C15.9825 31.3658 15.8008 31.2905 15.6669 31.1565L11.6448 27.1344C11.5147 26.9997 11.4427 26.8193 11.4443 26.632C11.4459 26.4447 11.5211 26.2655 11.6535 26.1331C11.7859 26.0007 11.9651 25.9256 12.1524 25.9239C12.3396 25.9223 12.5201 25.9943 12.6548 26.1244L16.1719 29.643L25.9305 19.8823C25.9968 19.8159 26.0755 19.7633 26.1622 19.7273C26.2489 19.6914 26.3418 19.6729 26.4356 19.6729C26.5294 19.6728 26.6223 19.6913 26.709 19.7271C26.7957 19.763 26.8745 19.8156 26.9408 19.8819C27.0072 19.9482 27.0598 20.027 27.0958 20.1136C27.1317 20.2003 27.1502 20.2932 27.1503 20.387C27.1503 20.4808 27.1318 20.5738 27.096 20.6604C27.0601 20.7471 27.0075 20.8259 26.9412 20.8923L16.6769 31.1565C16.543 31.2905 16.3613 31.3658 16.1719 31.3658Z" fill="#87B72B"/>
</svg>
