<svg width="26" height="26" viewBox="0 0 26 26" fill="none" xmlns="http://www.w3.org/2000/svg">
<g clip-path="url(#clip0)">
<path d="M4.87486 3.24992C4.73619 3.24992 4.59753 3.19684 4.49136 3.09175L2.70819 1.3075L0.925026 3.09175C0.713776 3.303 0.370359 3.303 0.159109 3.09175C-0.0521411 2.8805 -0.0521411 2.53709 0.159109 2.32584L2.32578 0.15917C2.53703 -0.0520801 2.88044 -0.0520801 3.09169 0.15917L5.25836 2.32584C5.46961 2.53709 5.46961 2.8805 5.25836 3.09175C5.15219 3.19684 5.01353 3.24992 4.87486 3.24992Z" fill="#0D5667"/>
<path d="M23.2918 26C23.1531 26 23.0144 25.9469 22.9083 25.8418C22.697 25.6305 22.697 25.2871 22.9083 25.0759L24.6914 23.2927L22.9083 21.5096C22.697 21.2983 22.697 20.9549 22.9083 20.7436C23.1195 20.5324 23.4629 20.5324 23.6742 20.7436L25.8408 22.9103C26.0521 23.1216 26.0521 23.465 25.8408 23.6762L23.6742 25.8429C23.5691 25.9469 23.4304 26 23.2918 26Z" fill="#0D5667"/>
<path d="M2.70847 26.0002C2.40948 26.0002 2.16681 25.7575 2.16681 25.4585V0.812663C2.16681 0.513663 2.40948 0.270996 2.70847 0.270996C3.00747 0.270996 3.25014 0.513663 3.25014 0.812663V25.4585C3.25014 25.7575 3.00747 26.0002 2.70847 26.0002Z" fill="#0D5667"/>
<path d="M25.1875 23.8333H0.541667C0.242667 23.8333 0 23.5907 0 23.2917C0 22.9927 0.242667 22.75 0.541667 22.75H25.1875C25.4865 22.75 25.7292 22.9927 25.7292 23.2917C25.7292 23.5907 25.4865 23.8333 25.1875 23.8333Z" fill="#0D5667"/>
<path d="M14.0833 10.8335C14.0173 10.8335 13.9512 10.8216 13.8883 10.7977L6.84667 8.08941C6.63758 8.00925 6.5 7.80775 6.5 7.5835C6.5 7.35925 6.63758 7.15775 6.84667 7.07758L13.8883 4.36925C14.0129 4.32158 14.1527 4.32158 14.2773 4.36925L21.3189 7.07758C21.5291 7.15775 21.6667 7.35925 21.6667 7.5835C21.6667 7.80775 21.5291 8.00925 21.32 8.08941L14.2783 10.7977C14.2155 10.8216 14.1494 10.8335 14.0833 10.8335ZM8.55075 7.5835L14.0833 9.71116L19.6159 7.5835L14.0833 5.45583L8.55075 7.5835Z" fill="#0D5667"/>
<path d="M14.0833 19.4998C14.0173 19.4998 13.9512 19.4879 13.8883 19.4641L6.84667 16.7558C6.63758 16.6756 6.5 16.4741 6.5 16.2498V7.58317C6.5 7.28417 6.74267 7.0415 7.04167 7.0415C7.34067 7.0415 7.58333 7.28417 7.58333 7.58317V15.8783L14.0833 18.3786L20.5833 15.8783V7.58317C20.5833 7.28417 20.826 7.0415 21.125 7.0415C21.424 7.0415 21.6667 7.28417 21.6667 7.58317V16.2498C21.6667 16.4741 21.5291 16.6756 21.32 16.7558L14.2783 19.4641C14.2155 19.4879 14.1494 19.4998 14.0833 19.4998Z" fill="#0D5667"/>
<path d="M14.0835 19.5C13.7845 19.5 13.5418 19.2573 13.5418 18.9583V10.2917C13.5418 9.99267 13.7845 9.75 14.0835 9.75C14.3825 9.75 14.6251 9.99267 14.6251 10.2917V18.9583C14.6251 19.2573 14.3825 19.5 14.0835 19.5Z" fill="#0D5667"/>
</g>
<defs>
<clipPath id="clip0">
<rect width="26" height="26" fill="white"/>
</clipPath>
</defs>
</svg>
