<svg width="56" height="46" viewBox="0 0 56 46" fill="none" xmlns="http://www.w3.org/2000/svg">
<g clip-path="url(#clip0)">
<path d="M43.1097 14.8802C43.1982 14.7919 43.2168 14.6898 43.2168 14.6218C43.2168 14.5539 43.1982 14.4518 43.1098 14.3634L41.5664 12.82C41.478 12.7316 41.3759 12.713 41.308 12.713C41.2399 12.713 41.1379 12.7316 41.0496 12.82L39.8684 14.0013L39.792 14.0777L39.8741 14.148C40.5586 14.7332 41.1965 15.3712 41.7818 16.0557L41.8521 16.1378L41.9285 16.0614L43.1097 14.8802ZM43.1097 14.8802L43.039 14.8095L43.1097 14.8802L43.1097 14.8802ZM42.8913 17.3568L42.8324 17.4157L42.8796 17.4843C44.7837 20.2487 45.9002 23.5954 45.9002 27.1987C45.9002 36.6657 38.1981 44.3678 28.731 44.3678C21.6128 44.3678 15.4925 40.0132 12.8937 33.8276L12.868 33.7663H12.8015H4.49242C4.05153 33.7663 3.69399 33.4088 3.69399 32.9679C3.69399 32.5269 4.05153 32.1694 4.49242 32.1694H12.1625H12.2962L12.2584 32.0412C11.9336 30.9384 11.7167 29.7901 11.6201 28.608L11.6126 28.5161H11.5204H5.75023C5.30934 28.5161 4.9518 28.1586 4.9518 27.7177C4.9518 27.2767 5.30934 26.9192 5.75023 26.9192H11.4667H11.5646L11.5667 26.8214C11.5922 25.6441 11.7368 24.496 11.9887 23.3881L12.0165 23.2659H11.8912H0.89868C0.457786 23.2659 0.100244 22.9085 0.100244 22.4675C0.100244 22.0265 0.457786 21.6691 0.89868 21.6691H12.4049H12.4761L12.4994 21.6017C12.9182 20.3904 13.4692 19.2405 14.1348 18.1685L14.2296 18.0157H14.0498H7.02305C6.58215 18.0157 6.22461 17.6583 6.22461 17.2173C6.22461 16.7763 6.58215 16.4189 7.02305 16.4189H13.3915H13.6329L13.4622 16.2482L13.2233 16.0093C12.4584 15.2442 12.4584 13.9992 13.2233 13.2342L14.7668 11.6908C15.1375 11.32 15.6299 11.116 16.1543 11.116C16.6785 11.116 17.171 11.32 17.5417 11.6908L18.8893 13.0383L18.9482 13.0972L19.0167 13.05C20.778 11.8368 22.7755 10.9436 24.9251 10.4552L25.003 10.4375V10.3577V8.36034V8.26034H24.903H24.0832C23.0282 8.26034 22.1697 7.40182 22.1697 6.34685V3.5458C22.1697 2.49074 23.0282 1.63223 24.0832 1.63223H33.3531C34.408 1.63223 35.2665 2.49074 35.2665 3.5458V6.34694C35.2665 7.40191 34.408 8.26043 33.3531 8.26043H32.5331H32.4331V8.36043V10.3522V10.4321L32.5111 10.4497C34.6707 10.9368 36.6772 11.8321 38.4454 13.0501L38.514 13.0973L38.5729 13.0384L39.9204 11.6908C40.2912 11.3201 40.7836 11.1161 41.308 11.1161C41.8322 11.1161 42.3247 11.3201 42.6954 11.6908L44.2389 13.2343L44.3 13.1731L44.2389 13.2343C44.6097 13.605 44.8137 14.0975 44.8137 14.6218C44.8137 15.1461 44.6097 15.6386 44.2388 16.0093L44.3095 16.0801L44.2388 16.0093L42.8913 17.3568ZM30.8363 8.36043V8.26043H30.7363H26.8H26.7H26.6999V8.36043H26.6V10.0495V10.1619L26.7116 10.1488C27.3744 10.0708 28.048 10.0295 28.7311 10.0295C29.4054 10.0295 30.0703 10.0698 30.7247 10.1459L30.8363 10.1588V10.0465V8.36043ZM17.5881 14.1479L17.6702 14.0776L17.5938 14.0012L16.4126 12.8199L16.356 12.8765L16.4126 12.8199C16.3242 12.7315 16.2221 12.7129 16.1542 12.7129C16.0862 12.7129 15.9842 12.7315 15.8958 12.8199L14.3524 14.3633C14.2099 14.5058 14.2098 14.7376 14.3524 14.8801C14.3524 14.8801 14.3524 14.8801 14.3524 14.8801L15.5337 16.0613L15.6101 16.1377L15.6804 16.0556C16.2656 15.3711 16.9036 14.7332 17.5881 14.1479ZM23.7666 3.5458V6.34694L24.0832 6.66347H25.8014H31.6347H33.3531C33.5277 6.66347 33.6697 6.5216 33.6697 6.34685V3.5458C33.6697 3.37111 33.5277 3.2291 33.3531 3.2291H24.0832C23.9085 3.2291 23.7666 3.37111 23.7666 3.5458ZM13.1587 27.1986C13.1587 35.7852 20.1444 42.7709 28.731 42.7709C37.3177 42.7709 44.3034 35.7852 44.3034 27.1986C44.3034 18.6119 37.3177 11.6262 28.731 11.6262C20.1444 11.6262 13.1587 18.6119 13.1587 27.1986Z" fill="#38500D" stroke="url(#paint0_linear)" stroke-width="0.2"/>
<path d="M30.3648 24.3313L30.4311 24.3693L30.4852 24.3152L34.7322 20.0682C34.7322 20.0682 34.7322 20.0682 34.7322 20.0682C35.0441 19.7564 35.5494 19.7564 35.8613 20.0682C36.1731 20.3801 36.1731 20.8857 35.8613 21.1975L31.6143 25.4445L31.5603 25.4985L31.5982 25.5648C31.874 26.0469 32.0325 26.6041 32.0325 27.1981C32.0325 29.0182 30.5516 30.4991 28.7315 30.4991C26.9114 30.4991 25.4306 29.0182 25.4306 27.1981C25.4306 25.378 26.9114 23.8971 28.7315 23.8971C29.3255 23.8971 29.8827 24.0556 30.3648 24.3313ZM27.0274 27.1982C27.0274 28.138 27.7918 28.9023 28.7315 28.9023C29.6713 28.9023 30.4356 28.138 30.4356 27.1982C30.4356 26.2585 29.6712 25.4941 28.7315 25.4941C27.7919 25.4941 27.0274 26.2585 27.0274 27.1982Z" fill="#38500D" stroke="url(#paint1_linear)" stroke-width="0.2"/>
<path d="M29.2957 15.2159L29.2957 15.2159C29.1474 15.3642 28.9411 15.4498 28.7313 15.4498C28.5216 15.4498 28.3153 15.3642 28.1668 15.2158C28.0183 15.0674 27.9329 14.862 27.9329 14.6514C27.9329 14.4416 28.0185 14.2353 28.1668 14.0869C28.3152 13.9385 28.5216 13.8529 28.7313 13.8529C28.9411 13.8529 29.1474 13.9385 29.2957 14.0869L29.2957 14.0869C29.4442 14.2353 29.5298 14.4416 29.5298 14.6514C29.5298 14.8611 29.4441 15.0675 29.2957 15.2159Z" fill="#38500D" stroke="url(#paint2_linear)" stroke-width="0.2"/>
<path d="M28.167 40.3098L28.1668 40.3096C28.0183 40.1612 27.9329 39.9557 27.9329 39.7451C27.9329 39.5354 28.0185 39.329 28.1668 39.1806C28.3152 39.0323 28.5216 38.9467 28.7313 38.9467C28.9411 38.9467 29.1474 39.0323 29.2957 39.1806L29.2957 39.1807C29.4442 39.329 29.5298 39.5354 29.5298 39.7451C29.5298 39.9548 29.4441 40.1612 29.2957 40.3096L29.2955 40.3098C29.1475 40.4587 28.9413 40.5436 28.7313 40.5436C28.5214 40.5436 28.3152 40.4587 28.167 40.3098Z" fill="#38500D" stroke="url(#paint3_linear)" stroke-width="0.2"/>
<path d="M19.2948 17.7617C19.4432 17.6133 19.6495 17.5277 19.8593 17.5277C20.069 17.5277 20.2753 17.6133 20.4236 17.7616C20.5723 17.9111 20.6577 18.1166 20.6577 18.3262C20.6577 18.5366 20.5721 18.7422 20.4235 18.8917C20.2754 19.0398 20.0692 19.1246 19.8593 19.1246C19.6493 19.1246 19.4431 19.0398 19.2949 18.8916C19.1462 18.7422 19.0608 18.5367 19.0608 18.3262C19.0608 18.1164 19.1464 17.9101 19.2948 17.7617Z" fill="#38500D" stroke="url(#paint4_linear)" stroke-width="0.2"/>
<path d="M38.1678 36.6348L38.1678 36.6348C38.0195 36.7832 37.8131 36.8687 37.6034 36.8687C37.3928 36.8687 37.1873 36.7833 37.0379 36.6347C36.8898 36.4865 36.805 36.2803 36.805 36.0703C36.805 35.8604 36.8898 35.6541 37.0379 35.5059C37.1873 35.3573 37.3928 35.2719 37.6034 35.2719C37.8131 35.2719 38.0195 35.3574 38.1678 35.5058L38.1678 35.5058C38.3163 35.6542 38.4018 35.8606 38.4018 36.0703C38.4018 36.28 38.3162 36.4864 38.1678 36.6348Z" fill="#38500D" stroke="url(#paint5_linear)" stroke-width="0.2"/>
<path d="M20.4236 36.6348L20.4236 36.6348C20.2753 36.7832 20.069 36.8687 19.8593 36.8687C19.6495 36.8687 19.4432 36.7832 19.2948 36.6348C19.1463 36.4864 19.0608 36.2801 19.0608 36.0703C19.0608 35.8606 19.1464 35.6542 19.2948 35.5058C19.4432 35.3574 19.6495 35.2719 19.8593 35.2719C20.069 35.2719 20.2753 35.3574 20.4236 35.5058L20.4237 35.5058C20.5721 35.6542 20.6577 35.8606 20.6577 36.0703C20.6577 36.28 20.572 36.4864 20.4236 36.6348Z" fill="#38500D" stroke="url(#paint6_linear)" stroke-width="0.2"/>
<path d="M15.6204 26.6339L15.6206 26.6338C15.769 26.4853 15.9745 26.3998 16.1851 26.3998C16.3948 26.3998 16.6012 26.4854 16.7495 26.6338C16.8979 26.7821 16.9835 26.9885 16.9835 27.1982C16.9835 27.408 16.8979 27.6143 16.7495 27.7627L16.7494 27.7629C16.6012 27.9119 16.395 27.9967 16.1851 27.9967C15.9743 27.9967 15.7689 27.9119 15.6208 27.7629L15.6204 27.7626C15.4715 27.6144 15.3866 27.4082 15.3866 27.1982C15.3866 26.9883 15.4715 26.7821 15.6204 26.6339L15.6204 26.6339Z" fill="#38500D" stroke="url(#paint7_linear)" stroke-width="0.2"/>
<path d="M40.7133 26.6337L40.7133 26.6338C40.5649 26.7822 40.4793 26.9885 40.4793 27.1982C40.4793 27.4088 40.5648 27.6143 40.7133 27.7627L40.7133 27.7627C40.8616 27.9111 41.068 27.9967 41.2777 27.9967C41.4874 27.9967 41.6938 27.9111 41.8422 27.7627C41.9906 27.6144 42.0761 27.408 42.0761 27.1983L40.7133 26.6337ZM40.7133 26.6337C40.8617 26.4853 41.0671 26.3998 41.2777 26.3998C41.4874 26.3998 41.6938 26.4854 41.8422 26.6337M40.7133 26.6337L41.8422 26.6337M41.8422 26.6337C41.9906 26.7822 42.0761 26.9885 42.0761 27.1982L41.8422 26.6337Z" fill="#38500D" stroke="url(#paint8_linear)" stroke-width="0.2"/>
<path d="M1.46308 33.5332L1.46306 33.5333C1.31478 33.6816 1.10842 33.7672 0.898682 33.7672C0.688998 33.7672 0.482672 33.6817 0.334298 33.5333C0.185614 33.3839 0.100244 33.1783 0.100244 32.9688C0.100244 32.7583 0.185715 32.5527 0.334287 32.4033C0.482481 32.2551 0.688737 32.1703 0.898682 32.1703C1.10867 32.1703 1.31496 32.2552 1.46306 32.4033L1.4631 32.4034C1.61151 32.5517 1.69712 32.7581 1.69712 32.9688C1.69712 33.1785 1.61148 33.3848 1.46308 33.5332Z" fill="#38500D" stroke="url(#paint9_linear)" stroke-width="0.2"/>
<path d="M40.7571 24.5076C40.3701 24.5076 40.0127 24.2555 39.8965 23.8656L40.7571 24.5076ZM40.7571 24.5076C40.842 24.5077 40.9285 24.4955 41.0141 24.4701L40.7571 24.5076ZM32.5201 14.3986L32.5201 14.3986C32.0974 14.2736 31.6532 14.5151 31.5281 14.938C31.4031 15.3608 31.6446 15.805 32.0676 15.9299L32.0676 15.9299C35.8909 17.06 38.8536 20.0161 39.9924 23.8371L39.9924 23.8371C40.0955 24.1834 40.4131 24.4076 40.7571 24.4076H40.7572C40.8324 24.4077 40.9092 24.3969 40.9855 24.3742L32.5201 14.3986ZM32.5201 14.3986C34.6371 15.0243 36.5867 16.1837 38.1578 17.7515C39.7287 19.319 40.8923 21.2658 41.5227 23.3811C41.6486 23.8036 41.4081 24.2483 40.9856 24.3742L32.5201 14.3986Z" fill="#38500D" stroke="url(#paint10_linear)" stroke-width="0.2"/>
</g>
<defs>
<linearGradient id="paint0_linear" x1="23.0002" y1="1.53223" x2="23.0002" y2="44.4678" gradientUnits="userSpaceOnUse">
<stop stop-color="#E0E97C"/>
<stop offset="1" stop-color="#A7DC52"/>
</linearGradient>
<linearGradient id="paint1_linear" x1="30.7629" y1="19.7344" x2="30.7629" y2="30.5991" gradientUnits="userSpaceOnUse">
<stop stop-color="#E0E97C"/>
<stop offset="1" stop-color="#A7DC52"/>
</linearGradient>
<linearGradient id="paint2_linear" x1="28.7313" y1="13.7529" x2="28.7313" y2="15.5498" gradientUnits="userSpaceOnUse">
<stop stop-color="#E0E97C"/>
<stop offset="1" stop-color="#A7DC52"/>
</linearGradient>
<linearGradient id="paint3_linear" x1="28.7313" y1="38.8467" x2="28.7313" y2="40.6436" gradientUnits="userSpaceOnUse">
<stop stop-color="#E0E97C"/>
<stop offset="1" stop-color="#A7DC52"/>
</linearGradient>
<linearGradient id="paint4_linear" x1="19.8593" y1="17.4277" x2="19.8593" y2="19.2246" gradientUnits="userSpaceOnUse">
<stop stop-color="#E0E97C"/>
<stop offset="1" stop-color="#A7DC52"/>
</linearGradient>
<linearGradient id="paint5_linear" x1="37.6034" y1="35.1719" x2="37.6034" y2="36.9688" gradientUnits="userSpaceOnUse">
<stop stop-color="#E0E97C"/>
<stop offset="1" stop-color="#A7DC52"/>
</linearGradient>
<linearGradient id="paint6_linear" x1="19.8593" y1="35.1719" x2="19.8593" y2="36.9688" gradientUnits="userSpaceOnUse">
<stop stop-color="#E0E97C"/>
<stop offset="1" stop-color="#A7DC52"/>
</linearGradient>
<linearGradient id="paint7_linear" x1="16.1851" y1="26.2998" x2="16.1851" y2="28.0967" gradientUnits="userSpaceOnUse">
<stop stop-color="#E0E97C"/>
<stop offset="1" stop-color="#A7DC52"/>
</linearGradient>
<linearGradient id="paint8_linear" x1="41.2777" y1="26.2998" x2="41.2777" y2="28.0967" gradientUnits="userSpaceOnUse">
<stop stop-color="#E0E97C"/>
<stop offset="1" stop-color="#A7DC52"/>
</linearGradient>
<linearGradient id="paint9_linear" x1="0.898681" y1="32.0703" x2="0.898681" y2="33.8672" gradientUnits="userSpaceOnUse">
<stop stop-color="#E0E97C"/>
<stop offset="1" stop-color="#A7DC52"/>
</linearGradient>
<linearGradient id="paint10_linear" x1="36.5257" y1="14.2656" x2="36.5257" y2="24.5076" gradientUnits="userSpaceOnUse">
<stop stop-color="#E0E97C"/>
<stop offset="1" stop-color="#A7DC52"/>
</linearGradient>
<clipPath id="clip0">
<rect width="56" height="46" fill="white" transform="translate(0.000244141)"/>
</clipPath>
</defs>
</svg>
