<svg width="46" height="46" viewBox="0 0 46 46" fill="none" xmlns="http://www.w3.org/2000/svg">
<g clip-path="url(#clip0)">
<path d="M42.891 17.3571L42.8322 17.4159L42.8794 17.4845C44.7834 20.249 45.9 23.5957 45.9 27.1989C45.9 36.6659 38.1978 44.3681 28.7308 44.3681C21.6126 44.3681 15.4923 40.0134 12.8935 33.8278L12.8677 33.7665H12.8013H4.49218C4.05128 33.7665 3.69374 33.4091 3.69374 32.9681C3.69374 32.5271 4.05128 32.1697 4.49218 32.1697H12.1622H12.2959L12.2581 32.0414C11.9334 30.9386 11.7164 29.7903 11.6199 28.6082L11.6124 28.5164H11.5202H5.74999C5.30909 28.5164 4.95155 28.1589 4.95155 27.7179C4.95155 27.2769 5.30909 26.9195 5.74999 26.9195H11.4665H11.5643L11.5664 26.8217C11.592 25.6444 11.7365 24.4962 11.9885 23.3883L12.0163 23.2662H11.891H0.898436C0.457541 23.2662 0.1 22.9087 0.1 22.4677C0.1 22.0268 0.457541 21.6693 0.898436 21.6693H12.4046H12.4758L12.4991 21.602C12.9179 20.3906 13.4689 19.2407 14.1345 18.1687L14.2294 18.016H14.0496H7.0228C6.58191 18.016 6.22437 17.6585 6.22437 17.2175C6.22437 16.7766 6.58191 16.4191 7.0228 16.4191H13.3913H13.6327L13.462 16.2484L13.2231 16.0095C12.4581 15.2445 12.4581 13.9995 13.2231 13.2344L14.7665 11.691C15.1372 11.3203 15.6297 11.1163 16.1541 11.1163C16.6783 11.1163 17.1708 11.3203 17.5415 11.691L18.8891 13.0386L18.9479 13.0974L19.0165 13.0502C20.7777 11.8371 22.7752 10.9438 24.9249 10.4554L25.0028 10.4377V10.3579V8.36058V8.26058H24.9028H24.0829C23.028 8.26058 22.1694 7.40207 22.1694 6.3471V3.54604C22.1694 2.49098 23.028 1.63247 24.0829 1.63247H33.3528C34.4078 1.63247 35.2663 2.49098 35.2663 3.54604V6.34719C35.2663 7.40216 34.4078 8.26067 33.3528 8.26067H32.5329H32.4329V8.36067V10.3524V10.4324L32.5109 10.45C34.6705 10.937 36.6769 11.8323 38.4452 13.0503L38.5138 13.0975L38.5726 13.0387L39.9202 11.6911C40.2909 11.3204 40.7833 11.1164 41.3077 11.1164C41.832 11.1164 42.3245 11.3204 42.6952 11.6911L44.2386 13.2345L44.3093 13.1638L44.2386 13.2345C44.6094 13.6052 44.8134 14.0977 44.8134 14.622C44.8134 15.1464 44.6094 15.6389 44.2385 16.0096L44.3092 16.0803L44.2385 16.0096L42.891 17.3571ZM43.1096 14.3637L43.0388 14.4344L43.1096 14.3637L41.5661 12.8202C41.4778 12.7319 41.3757 12.7132 41.3077 12.7132C41.2397 12.7132 41.1377 12.7319 41.0493 12.8202L39.8682 14.0015L39.7917 14.0779L39.8739 14.1482C40.5583 14.7335 41.1963 15.3715 41.7816 16.0559L41.8518 16.1381L41.9283 16.0616L43.1094 14.8805C43.1979 14.7921 43.2166 14.69 43.2166 14.622C43.2166 14.5541 43.1979 14.452 43.1096 14.3637ZM30.836 8.36067V8.26067H30.736H26.7997H26.6997H26.6996V8.36067H26.5997V10.0497V10.1622L26.7114 10.149C27.3741 10.0711 28.0477 10.0297 28.7309 10.0297C29.4051 10.0297 30.0701 10.0701 30.7245 10.1461L30.836 10.1591V10.0468V8.36067ZM17.5878 14.1481L17.67 14.0779L17.5935 14.0014L16.4124 12.8201C16.324 12.7318 16.2219 12.7131 16.154 12.7131C16.0859 12.7131 15.9839 12.7318 15.8956 12.8201L14.3521 14.3636C14.2096 14.5061 14.2096 14.7379 14.3521 14.8804C14.3522 14.8804 14.3522 14.8804 14.3522 14.8804L15.5334 16.0615L15.6099 16.138L15.6801 16.0558C16.2654 15.3714 16.9034 14.7334 17.5878 14.1481ZM23.7663 3.54604V6.34719L24.0829 6.56371V6.66371H24.083H25.8012H31.6345H33.3528C33.5274 6.66371 33.6694 6.52185 33.6694 6.3471V3.54604C33.6694 3.37135 33.5275 3.22934 33.3528 3.22934H24.0829C23.9083 3.22934 23.7663 3.37135 23.7663 3.54604ZM13.1585 27.1988C13.1585 35.7855 20.1441 42.7711 28.7308 42.7711C37.3175 42.7711 44.3031 35.7855 44.3031 27.1988C44.3031 18.6121 37.3175 11.6265 28.7308 11.6265C20.1441 11.6265 13.1585 18.6121 13.1585 27.1988Z" fill="#C4FF64" stroke="url(#paint0_linear)" stroke-width="0.2"/>
<path d="M30.3643 24.3318L30.4307 24.3697L30.4847 24.3157L34.7317 20.0687C34.7317 20.0687 34.7317 20.0687 34.7317 20.0687C35.0436 19.7569 35.549 19.7569 35.8608 20.0687C36.1726 20.3806 36.1726 20.8862 35.8608 21.1979L31.6138 25.445L31.5598 25.499L31.5977 25.5653C31.8735 26.0474 32.032 26.6046 32.032 27.1986C32.032 29.0187 30.5511 30.4996 28.731 30.4996C26.9109 30.4996 25.4301 29.0187 25.4301 27.1986C25.4301 25.3784 26.9109 23.8976 28.731 23.8976C29.325 23.8976 29.8823 24.0561 30.3643 24.3318ZM27.027 27.1987C27.027 28.1384 27.7913 28.9028 28.731 28.9028C29.6708 28.9028 30.4351 28.1384 30.4351 27.1987C30.4351 26.259 29.6707 25.4945 28.731 25.4945C27.7914 25.4945 27.027 26.259 27.027 27.1987Z" fill="#C4FF64" stroke="url(#paint1_linear)" stroke-width="0.2"/>
<path d="M29.2958 15.2162L29.2958 15.2163C29.1475 15.3646 28.9412 15.4502 28.7314 15.4502C28.5217 15.4502 28.3154 15.3646 28.1669 15.2162C28.0185 15.0678 27.933 14.8624 27.933 14.6518C27.933 14.442 28.0186 14.2357 28.167 14.0873C28.3153 13.9389 28.5217 13.8533 28.7314 13.8533C28.9412 13.8533 29.1475 13.9389 29.2958 14.0873L29.2959 14.0873C29.4443 14.2357 29.5299 14.442 29.5299 14.6518C29.5299 14.8615 29.4442 15.0678 29.2958 15.2162Z" fill="#C4FF64" stroke="url(#paint2_linear)" stroke-width="0.2"/>
<path d="M28.1671 40.3099L28.1669 40.3096C28.0185 40.1613 27.933 39.9558 27.933 39.7452C27.933 39.5354 28.0186 39.3291 28.167 39.1807C28.3153 39.0323 28.5217 38.9467 28.7314 38.9467C28.9412 38.9467 29.1475 39.0323 29.2958 39.1807L29.2959 39.1807C29.4443 39.3291 29.5299 39.5354 29.5299 39.7452C29.5299 39.9549 29.4442 40.1613 29.2958 40.3097L29.2956 40.3099C29.1476 40.4588 28.9414 40.5436 28.7314 40.5436C28.5215 40.5436 28.3153 40.4588 28.1671 40.3099Z" fill="#C4FF64" stroke="url(#paint3_linear)" stroke-width="0.2"/>
<path d="M19.2949 17.7623C19.4433 17.6139 19.6496 17.5283 19.8594 17.5283C20.0691 17.5283 20.2754 17.6139 20.4237 17.7622C20.5724 17.9117 20.6578 18.1172 20.6578 18.3268C20.6578 18.5372 20.5723 18.7428 20.4237 18.8923C20.2756 19.0404 20.0693 19.1252 19.8594 19.1252C19.6494 19.1252 19.4432 19.0404 19.295 18.8923C19.1463 18.7429 19.0609 18.5373 19.0609 18.3268C19.0609 18.1171 19.1465 17.9107 19.2949 17.7623Z" fill="#C4FF64" stroke="url(#paint4_linear)" stroke-width="0.2"/>
<path d="M38.1679 36.6355L38.1679 36.6355C38.0196 36.7838 37.8133 36.8694 37.6035 36.8694C37.3929 36.8694 37.1875 36.784 37.038 36.6354C36.8899 36.4872 36.8051 36.2809 36.8051 36.071C36.8051 35.861 36.8899 35.6548 37.038 35.5066C37.1875 35.358 37.3929 35.2725 37.6035 35.2725C37.8133 35.2725 38.0196 35.3581 38.1679 35.5065L38.1679 35.5065C38.3164 35.6549 38.402 35.8613 38.402 36.071C38.402 36.2807 38.3163 36.4871 38.1679 36.6355Z" fill="#C4FF64" stroke="url(#paint5_linear)" stroke-width="0.2"/>
<path d="M20.4238 36.6355L20.4238 36.6355C20.2755 36.7838 20.0691 36.8694 19.8594 36.8694C19.6497 36.8694 19.4434 36.7839 19.2949 36.6354C19.1464 36.4871 19.0609 36.2807 19.0609 36.071C19.0609 35.8613 19.1465 35.6549 19.2949 35.5065C19.4433 35.3581 19.6496 35.2725 19.8594 35.2725C20.0691 35.2725 20.2755 35.3581 20.4238 35.5065L20.4238 35.5065C20.5722 35.6549 20.6578 35.8613 20.6578 36.071C20.6578 36.2807 20.5722 36.4871 20.4238 36.6355Z" fill="#C4FF64" stroke="url(#paint6_linear)" stroke-width="0.2"/>
<path d="M15.6199 26.6346L15.6201 26.6344C15.7685 26.486 15.974 26.4005 16.1846 26.4005C16.3943 26.4005 16.6007 26.486 16.7491 26.6344C16.8974 26.7828 16.983 26.9892 16.983 27.1989C16.983 27.4086 16.8974 27.615 16.749 27.7634L16.7489 27.7636C16.6007 27.9125 16.3945 27.9974 16.1846 27.9974C15.9739 27.9974 15.7684 27.9126 15.6203 27.7636L15.6199 27.7632C15.471 27.6151 15.3861 27.4089 15.3861 27.1989C15.3861 26.989 15.471 26.7828 15.6199 26.6346L15.6199 26.6346Z" fill="#C4FF64" stroke="url(#paint7_linear)" stroke-width="0.2"/>
<path d="M40.713 26.6344L40.7129 26.6344C40.5645 26.7828 40.4789 26.9892 40.4789 27.1989C40.4789 27.4095 40.5644 27.615 40.7129 27.7634L40.713 27.7634C40.8612 27.9118 41.0676 27.9974 41.2773 27.9974C41.4871 27.9974 41.6934 27.9118 41.8418 27.7634C41.9902 27.615 42.0758 27.4087 42.0758 27.199L40.713 26.6344ZM40.713 26.6344C40.8613 26.486 41.0668 26.4005 41.2773 26.4005C41.4871 26.4005 41.6934 26.486 41.8418 26.6344M40.713 26.6344L41.8418 26.6344M41.8418 26.6344C41.9902 26.7829 42.0757 26.9892 42.0758 27.1989L41.8418 26.6344Z" fill="#C4FF64" stroke="url(#paint8_linear)" stroke-width="0.2"/>
<path d="M1.46283 33.5334L1.46281 33.5334C1.31453 33.6817 1.10817 33.7673 0.898438 33.7673C0.688754 33.7673 0.482428 33.6818 0.334053 33.5335C0.18537 33.384 0.1 33.1784 0.1 32.9689C0.1 32.7584 0.18547 32.5528 0.334043 32.4034C0.482237 32.2553 0.688493 32.1704 0.898438 32.1704C1.10843 32.1704 1.31471 32.2553 1.46281 32.4035L1.46285 32.4035C1.61127 32.5518 1.69687 32.7582 1.69687 32.9689C1.69687 33.1786 1.61123 33.385 1.46283 33.5334Z" fill="#C4FF64" stroke="url(#paint9_linear)" stroke-width="0.2"/>
<path d="M40.7565 24.5081C40.3695 24.5081 40.0121 24.256 39.8959 23.8661L40.7565 24.5081ZM40.7565 24.5081C40.8414 24.5082 40.9279 24.496 41.0135 24.4706L40.7565 24.5081ZM32.5195 14.3991L32.5195 14.3991C32.0968 14.2741 31.6526 14.5156 31.5275 14.9385C31.4025 15.3613 31.644 15.8055 32.067 15.9304L32.067 15.9304C35.8903 17.0605 38.853 20.0166 39.9917 23.8375L39.9917 23.8375C40.0949 24.1839 40.4125 24.4081 40.7565 24.4081H40.7566C40.8318 24.4082 40.9086 24.3974 40.9849 24.3747L32.5195 14.3991ZM32.5195 14.3991C34.6365 15.0248 36.5861 16.1842 38.1572 17.7519C39.7281 19.3195 40.8917 21.2663 41.5221 23.3816C41.648 23.8041 41.4075 24.2488 40.985 24.3747L32.5195 14.3991Z" fill="#C4FF64" stroke="url(#paint10_linear)" stroke-width="0.2"/>
</g>
<defs>
<linearGradient id="paint0_linear" x1="23" y1="1.53248" x2="23" y2="44.4681" gradientUnits="userSpaceOnUse">
<stop stop-color="white"/>
<stop offset="1" stop-color="#A7DC52"/>
</linearGradient>
<linearGradient id="paint1_linear" x1="30.7624" y1="19.7349" x2="30.7624" y2="30.5996" gradientUnits="userSpaceOnUse">
<stop stop-color="white"/>
<stop offset="1" stop-color="#A7DC52"/>
</linearGradient>
<linearGradient id="paint2_linear" x1="28.7314" y1="13.7533" x2="28.7314" y2="15.5502" gradientUnits="userSpaceOnUse">
<stop stop-color="white"/>
<stop offset="1" stop-color="#A7DC52"/>
</linearGradient>
<linearGradient id="paint3_linear" x1="28.7314" y1="38.8467" x2="28.7314" y2="40.6436" gradientUnits="userSpaceOnUse">
<stop stop-color="white"/>
<stop offset="1" stop-color="#A7DC52"/>
</linearGradient>
<linearGradient id="paint4_linear" x1="19.8594" y1="17.4283" x2="19.8594" y2="19.2252" gradientUnits="userSpaceOnUse">
<stop stop-color="white"/>
<stop offset="1" stop-color="#A7DC52"/>
</linearGradient>
<linearGradient id="paint5_linear" x1="37.6035" y1="35.1725" x2="37.6035" y2="36.9694" gradientUnits="userSpaceOnUse">
<stop stop-color="white"/>
<stop offset="1" stop-color="#A7DC52"/>
</linearGradient>
<linearGradient id="paint6_linear" x1="19.8594" y1="35.1725" x2="19.8594" y2="36.9694" gradientUnits="userSpaceOnUse">
<stop stop-color="white"/>
<stop offset="1" stop-color="#A7DC52"/>
</linearGradient>
<linearGradient id="paint7_linear" x1="16.1846" y1="26.3005" x2="16.1846" y2="28.0974" gradientUnits="userSpaceOnUse">
<stop stop-color="white"/>
<stop offset="1" stop-color="#A7DC52"/>
</linearGradient>
<linearGradient id="paint8_linear" x1="41.2773" y1="26.3005" x2="41.2773" y2="28.0974" gradientUnits="userSpaceOnUse">
<stop stop-color="white"/>
<stop offset="1" stop-color="#A7DC52"/>
</linearGradient>
<linearGradient id="paint9_linear" x1="0.898437" y1="32.0704" x2="0.898436" y2="33.8673" gradientUnits="userSpaceOnUse">
<stop stop-color="white"/>
<stop offset="1" stop-color="#A7DC52"/>
</linearGradient>
<linearGradient id="paint10_linear" x1="36.5251" y1="14.2661" x2="36.5251" y2="24.5081" gradientUnits="userSpaceOnUse">
<stop stop-color="white"/>
<stop offset="1" stop-color="#A7DC52"/>
</linearGradient>
<clipPath id="clip0">
<rect width="46" height="46" fill="white"/>
</clipPath>
</defs>
</svg>
