<svg width="46" height="47" viewBox="0 0 46 47" fill="none" xmlns="http://www.w3.org/2000/svg">
<path d="M16.8309 12.6534V12.8034H16.9809H38.8072C41.5877 12.8034 43.85 15.0658 43.85 17.8463V38.3928C43.85 41.1733 41.5877 43.4356 38.8072 43.4356H5.19295C2.41245 43.4356 0.15 41.1733 0.15 38.3928V17.8463C0.15 15.0658 2.41246 12.8034 5.19294 12.8035H5.20834H5.35834V12.6535V10.4381V10.3226L5.2467 10.293C4.86137 10.1911 4.57752 9.84115 4.57752 9.4246V5.45768C4.57752 4.96086 4.98018 4.5582 5.477 4.5582H16.7124C17.2092 4.5582 17.6119 4.96086 17.6119 5.45768V9.4246C17.6119 9.84114 17.328 10.1911 16.9426 10.293L16.8309 10.3226V10.4381V12.6534ZM6.52648 6.35716H6.37648V6.50716V8.37512V8.52512H6.52648H15.663H15.813V8.37512V6.50716V6.35716H15.663H6.52648ZM7.3073 10.324H7.1573V10.474V12.6534V12.8034H7.3073H14.882H15.032V12.6534V10.474V10.324H14.882H7.3073ZM38.8072 41.6367C40.596 41.6367 42.051 40.1817 42.051 38.3928V17.8463C42.051 16.0574 40.596 14.6023 38.8072 14.6023H5.19295C3.40399 14.6023 1.94896 16.0575 1.94896 17.8463V38.3928C1.94896 40.1817 3.40399 41.6368 5.19295 41.6367H38.8072Z" fill="#A7DC52" stroke="url(#paint0_linear)" stroke-width="0.3"/>
<path d="M32.102 23.9119L32.1019 23.9119C30.4408 24.7566 28.6076 24.7566 26.9461 23.9114L27.0141 23.7777L26.9461 23.9114C24.9434 22.8926 22.7406 22.8923 20.7375 23.9109C20.7372 23.9111 20.7368 23.9113 20.7365 23.9114L20.6685 23.7777L32.102 23.9119ZM32.102 23.9119C34.1065 22.8922 36.3094 22.8923 38.3124 23.9111C38.514 24.0137 38.6787 24.226 38.7712 24.5027C38.8633 24.7779 38.8789 25.1031 38.7954 25.4106C38.7117 25.7183 38.5483 25.9373 38.365 26.0521C38.1852 26.1647 37.9812 26.1818 37.7853 26.0821L37.7173 26.2158L37.7853 26.0821C36.1244 25.2374 34.2912 25.2374 32.6303 26.0821L32.6983 26.2158M32.102 23.9119L32.6983 26.2158M4.21465 23.9116L4.21461 23.9115C4.01863 23.8118 3.81467 23.8288 3.63491 23.9414C3.45164 24.0562 3.28827 24.2753 3.20462 24.583C3.12108 24.8903 3.13669 25.2156 3.22884 25.4909C3.32148 25.7677 3.48617 25.9801 3.68783 26.0827C5.69113 27.1019 7.89416 27.1018 9.89737 26.0827L9.89738 26.0827C11.5589 25.2375 13.3921 25.2378 15.0535 26.0827L15.0535 26.0827C16.0564 26.5929 17.1079 26.847 18.1582 26.8469H18.1583C19.2084 26.8469 20.2602 26.5928 21.2629 26.0827L21.2632 26.0826L21.2668 26.0807L21.2719 26.0781L4.21465 23.9116ZM4.21465 23.9116C5.8759 24.7567 7.70917 24.7567 9.37042 23.9116L4.21465 23.9116ZM32.6983 26.2158L32.6303 26.0821C30.6256 27.1018 28.4226 27.1016 26.4196 26.0827C24.7607 25.2389 22.9308 25.2374 21.2719 26.0781L32.6983 26.2158ZM15.5802 23.9116C17.238 24.7548 19.0674 24.7568 20.7263 23.9166L9.37044 23.9116C11.3738 22.8928 13.5768 22.8925 15.5802 23.9116L15.6482 23.7779L15.5802 23.9116Z" fill="#A7DC52" stroke="url(#paint1_linear)" stroke-width="0.3"/>
<defs>
<linearGradient id="paint0_linear" x1="-16.5" y1="25.4971" x2="62" y2="23.9971" gradientUnits="userSpaceOnUse">
<stop stop-color="#E7F07F"/>
<stop offset="1" stop-color="#A7DC52"/>
</linearGradient>
<linearGradient id="paint1_linear" x1="-16" y1="26.9969" x2="63.5" y2="26.997" gradientUnits="userSpaceOnUse">
<stop stop-color="#E7F07F"/>
<stop offset="1" stop-color="#A7DC52"/>
</linearGradient>
</defs>
</svg>
