<svg width="46" height="46" viewBox="0 0 46 46" fill="none" xmlns="http://www.w3.org/2000/svg">
<g clip-path="url(#clip0)">
<path d="M16.8312 11.6563V11.8063H16.9812H38.8074C41.5879 11.8063 43.8502 14.0688 43.8502 16.8493V37.3958C43.8502 40.1762 41.5879 42.4386 38.8074 42.4386H5.19316C2.41266 42.4386 0.150214 40.1762 0.150214 37.3958V16.8493C0.150214 14.0688 2.41267 11.8063 5.19315 11.8064H5.20855H5.35855V11.6564V9.44098V9.3255L5.24691 9.29597C4.86159 9.19404 4.57774 8.84408 4.57774 8.42753V4.46061C4.57774 3.96379 4.9804 3.56113 5.47722 3.56113H16.7126C17.2094 3.56113 17.6121 3.96379 17.6121 4.46061V8.42753C17.6121 8.84407 17.3282 9.19403 16.9428 9.29597L16.8312 9.32549V9.44098V11.6563ZM6.5267 5.36009H6.3767V5.51009V7.37805V7.52805H6.5267H15.6632H15.8132V7.37805V5.51009V5.36009H15.6632H6.5267ZM7.30751 9.3269H7.15751V9.4769V11.6563V11.8063H7.30751H14.8822H15.0322V11.6563V9.4769V9.3269H14.8822H7.30751ZM38.8074 40.6396C40.5962 40.6396 42.0513 39.1846 42.0513 37.3958V16.8493C42.0513 15.0603 40.5962 13.6053 38.8074 13.6053H5.19316C3.40421 13.6053 1.94917 15.0604 1.94917 16.8493V37.3958C1.94917 39.1846 3.40421 40.6397 5.19316 40.6396H38.8074Z" fill="#38500D" stroke="url(#paint0_linear)" stroke-width="0.3"/>
<path d="M32.1022 22.9148L32.1022 22.9148C30.441 23.7595 28.6079 23.7595 26.9463 22.9144L27.0143 22.7807L26.9463 22.9144C24.9436 21.8956 22.7408 21.8953 20.7377 22.9139C20.7374 22.914 20.7371 22.9142 20.7367 22.9144L20.6687 22.7807L32.1022 22.9148ZM32.1022 22.9148C34.1067 21.8951 36.3096 21.8953 38.3126 22.9141C38.5142 23.0167 38.6789 23.2289 38.7715 23.5056C38.8635 23.7808 38.8791 24.1061 38.7956 24.4135C38.7119 24.7213 38.5485 24.9403 38.3652 25.0551C38.1854 25.1677 37.9814 25.1847 37.7855 25.0851L37.7175 25.2187L37.7855 25.085C36.1246 24.2403 34.2914 24.2403 32.6305 25.085L32.6985 25.2187M32.1022 22.9148L32.6985 25.2187M4.21486 22.9145L4.21482 22.9145C4.01884 22.8147 3.81489 22.8317 3.63513 22.9443C3.45185 23.0592 3.28849 23.2782 3.20483 23.5859C3.12129 23.8932 3.1369 24.2186 3.22905 24.4939C3.32169 24.7707 3.48638 24.983 3.68804 25.0856C5.69135 26.1049 7.89437 26.1047 9.89759 25.0856L9.89759 25.0856C11.5591 24.2404 13.3923 24.2407 15.0537 25.0856L15.0537 25.0856C16.0566 25.5959 17.1082 25.85 18.1584 25.8498H18.1585C19.2086 25.8498 20.2604 25.5957 21.2631 25.0856L21.2634 25.0855L21.267 25.0836L21.2721 25.081L4.21486 22.9145ZM4.21486 22.9145C5.87611 23.7597 7.70938 23.7597 9.37063 22.9145L4.21486 22.9145ZM32.6985 25.2187L32.6305 25.085C30.6258 26.1047 28.4229 26.1046 26.4198 25.0856C24.7609 24.2418 22.931 24.2403 21.2721 25.081L32.6985 25.2187ZM15.5804 22.9145C17.2382 23.7577 19.0677 23.7597 20.7265 22.9195L9.37066 22.9145C11.374 21.8957 13.577 21.8954 15.5804 22.9145L15.6484 22.7808L15.5804 22.9145Z" fill="#38500D" stroke="url(#paint1_linear)" stroke-width="0.3"/>
</g>
<defs>
<linearGradient id="paint0_linear" x1="-16.4998" y1="24.5" x2="62.0002" y2="23" gradientUnits="userSpaceOnUse">
<stop stop-color="#E7F07F"/>
<stop offset="1" stop-color="#A7DC52"/>
</linearGradient>
<linearGradient id="paint1_linear" x1="-15.9998" y1="25.9999" x2="63.5002" y2="25.9999" gradientUnits="userSpaceOnUse">
<stop stop-color="#E7F07F"/>
<stop offset="1" stop-color="#A7DC52"/>
</linearGradient>
<clipPath id="clip0">
<rect width="46" height="46" fill="white" transform="translate(0.000213623)"/>
</clipPath>
</defs>
</svg>
