<svg width="40" height="40" viewBox="0 0 40 40" fill="none" xmlns="http://www.w3.org/2000/svg">
<path d="M0.0389607 3.71855L0.0389639 3.71855C-0.13002 3.41684 -0.0765376 3.0397 0.169901 2.79708C0.170008 2.79697 0.170115 2.79687 0.170221 2.79676L2.83703 0.129678L2.83717 0.129537C3.08134 -0.113685 3.458 -0.164187 3.75745 0.00620346L3.7576 0.00629117L8.42604 2.6737L8.4261 2.67373C8.60752 2.77754 8.73871 2.95102 8.78948 3.15378L8.78948 3.1538L9.40497 5.61438L17.9215 14.1309L17.9922 14.2016L17.9215 14.2723L16.9786 15.2155L16.9079 15.2862L16.8371 15.2155L8.16745 6.5458C8.0694 6.44774 7.99933 6.32442 7.96583 6.18925C7.96582 6.18921 7.96581 6.18916 7.9658 6.18912L7.37599 3.83934L3.50083 1.62493L1.66157 3.46419L3.87382 7.33768L6.22385 7.92728C6.35852 7.96103 6.48156 8.03072 6.57971 8.12915L0.0389607 3.71855ZM0.0389607 3.71855L0.0393884 3.7193L2.70703 8.3874C2.81054 8.56886 2.98377 8.7001 3.18629 8.75089L3.18636 8.75091L5.6483 9.36639L14.1648 17.8829L14.2355 17.9536L14.3062 17.8829L15.2494 16.94L15.3201 16.8693L15.2494 16.7986L6.57983 8.12926L0.0389607 3.71855Z" fill="#C4FF64" stroke="#C4FF64" stroke-width="0.2"/>
<path d="M27.9236 13.2138L27.9943 13.1431L27.9236 13.0724L26.9807 12.1295L26.91 12.0588L26.8393 12.1295L12.1676 26.8009L12.0969 26.8716L12.1676 26.9424L13.1108 27.8855L13.1815 27.9563L13.2522 27.8855L27.9236 13.2138Z" fill="#C4FF64" stroke="#C4FF64" stroke-width="0.2"/>
<path d="M10.6992 28.2831L10.6992 28.2832L12.6997 31.6174L10.6992 28.2831ZM10.6992 28.2831C10.5604 28.0522 10.3112 27.9112 10.0418 27.9112H6.04052C5.77144 27.9112 5.52185 28.0522 5.38331 28.2832L3.38261 31.6174L10.6992 28.2831ZM5.38334 35.7417L5.38332 35.7417L3.38258 32.4074C3.23656 32.1642 3.23651 31.8604 3.38259 31.6175L3.38256 31.6175L3.46831 31.669C3.34129 31.8802 3.34129 32.1444 3.46831 32.3559L5.38334 35.7417ZM5.38334 35.7417C5.52184 35.9723 5.77138 36.1137 6.04052 36.1137H10.0418C10.3112 36.1137 10.5604 35.9723 10.6992 35.7418L10.6992 35.7417M5.38334 35.7417L10.6992 35.7417M10.6992 35.7417L12.6997 32.4074M10.6992 35.7417L12.6997 32.4074M12.6997 32.4074C12.6997 32.4074 12.6997 32.4074 12.6997 32.4074M12.6997 32.4074L12.6997 32.4074M12.6997 32.4074C12.8457 32.1642 12.8458 31.8605 12.6997 31.6175V32.4074ZM11.1484 32.0124L9.60793 34.5798H6.47463L4.93413 32.0124L6.47463 29.4448H9.60793L11.1484 32.0124Z" fill="#C4FF64" stroke="#C4FF64" stroke-width="0.2"/>
<path d="M38.9734 5.48688L38.9735 5.48685C39.3845 5.38465 39.8007 5.63479 39.9029 6.0459C40.0698 6.7038 40.1531 7.37976 40.1508 8.05851C40.1358 12.5183 36.508 16.1216 32.0483 16.1066C31.5348 16.105 31.0226 16.0536 30.519 15.9532L27.1312 19.3409L28.5897 20.7994C28.8891 21.0988 28.8891 21.5843 28.5897 21.8837L28.2587 22.2147C28.2563 22.2173 28.2543 22.2193 28.2526 22.2208C28.0025 22.4737 28.0038 22.8817 28.256 23.1334C28.5097 23.3853 28.9191 23.3853 29.1727 23.1333L29.5058 22.8002C29.8052 22.5008 30.2908 22.5008 30.5902 22.8002L38.5455 30.7552C38.5533 30.7631 38.5615 30.7712 38.5696 30.7794C38.5733 30.7831 38.5769 30.7869 38.5806 30.7906L38.509 30.8605M38.9734 5.48688L23.1715 29.1342L23.1703 29.1354L23.1702 29.1355L22.8369 29.4688C22.5375 29.7682 22.5375 30.2537 22.8369 30.5531L30.7919 38.5081C32.9232 40.659 36.3943 40.6746 38.5451 38.5433C40.6957 36.4121 40.7113 32.9406 38.5801 30.7901L38.509 30.8605M38.9734 5.48688C38.8384 5.52064 38.7154 5.59035 38.617 5.68838L38.617 5.68847M38.9734 5.48688L38.617 5.68847M38.509 30.8605C40.6014 32.9718 40.5861 36.3799 38.4748 38.4723C36.3632 40.5647 32.9553 40.5493 30.8629 38.4377L29.2432 23.2042L29.5765 22.8709C29.8369 22.6105 30.2591 22.6105 30.5194 22.8709L38.4748 30.8259C38.4863 30.8374 38.4978 30.849 38.509 30.8605ZM38.617 5.68847L34.5093 9.79337L31.3216 8.73107L30.2586 5.54422L34.3662 1.4358L34.3662 1.43577L38.617 5.68847ZM8.04086 23.9091H8.04122C8.55465 23.911 9.06682 23.9621 9.57048 24.0626L24.0995 9.53377C23.9989 9.03009 23.9477 8.51788 23.9461 8.00418C23.9439 7.32721 24.027 6.65275 24.1933 5.99661C25.2886 1.6719 29.6823 -0.94615 34.0073 0.149128C34.1429 0.182619 34.267 0.25255 34.3656 0.351172C34.3656 0.351184 34.3656 0.351197 34.3656 0.351208L34.2949 0.421919L8.04086 23.9091ZM8.04086 23.9091C3.56574 23.9091 -0.0619141 27.5368 -0.0619141 32.0119C-0.0619141 36.4867 3.56574 40.1144 8.04086 40.1144C12.5157 40.1144 16.1434 36.4867 16.1434 32.0119V32.0116M8.04086 23.9091L16.1434 32.0116M16.1434 32.0116C16.1417 31.4978 16.0903 30.9856 15.9899 30.482L19.3777 27.0942M16.1434 32.0116L19.3777 27.0942M19.3777 27.0942L20.8361 28.5527L20.8362 28.5527C21.1358 28.852 21.621 28.852 21.9207 28.5527L21.9208 28.5526L22.2538 28.2193L19.3777 27.0942ZM29.5655 14.7407H29.5617L29.7324 14.57C29.923 14.3794 30.1997 14.3031 30.4611 14.3684L30.4617 14.3685C31.0021 14.5068 31.5582 14.5755 32.1161 14.5728C35.7253 14.5541 38.6359 11.6135 38.6175 8.00436L38.6175 8.00385C38.6175 7.95486 38.6169 7.90576 38.6156 7.85651L35.2583 11.2138L35.2583 11.2139C35.0529 11.4189 34.7491 11.4906 34.474 11.3988C34.474 11.3987 34.474 11.3987 34.4739 11.3987L30.4726 10.065C30.2434 9.98889 30.0637 9.80906 29.9871 9.58044L29.987 9.58027L28.6534 5.57876C28.5616 5.30331 28.6335 4.99952 28.8389 4.79443L29.5655 14.7407ZM29.5655 14.7407L14.6076 29.6956C14.4167 29.8862 14.3401 30.1628 14.4051 30.4242L14.4052 30.4248C15.3065 33.9643 13.1677 37.5644 9.62793 38.4654C6.08842 39.3667 2.48837 37.2279 1.58707 33.6881C0.686051 30.1486 2.82484 26.5486 6.36462 25.6473C7.43537 25.3748 8.5572 25.3748 9.62794 25.6473L9.62882 25.6475C9.89008 25.7115 10.1658 25.6349 10.3567 25.4455L10.357 25.4452L25.4819 10.3195C25.6725 10.129 25.7492 9.85228 25.6835 9.59096L25.6834 9.59053C24.7885 6.093 26.8982 2.53223 30.3958 1.63702C30.984 1.48671 31.5902 1.41881 32.1964 1.43559M29.5655 14.7407L32.1964 1.43559M32.1964 1.43559L28.839 4.79436L32.1964 1.43559ZM23.1705 28.2193C22.9171 27.9676 22.5076 27.9675 22.2541 28.219L23.1705 28.2193ZM23.1705 28.2193C23.4233 28.4716 23.4238 28.8811 23.1716 29.1341L23.1705 28.2193ZM34.669 38.5808C34.2487 38.5801 33.8316 38.5125 33.4334 38.3807L38.4175 33.3963C39.0816 35.3963 38.0513 37.5804 36.0613 38.3285C35.6164 38.4957 35.1446 38.5813 34.669 38.5808ZM26.0466 20.4251L26.9796 21.3557C26.2699 22.2772 26.4081 23.6031 27.3077 24.3571C28.0955 25.0173 29.2332 25.036 30.0406 24.4127L37.461 31.8397C37.5181 31.897 37.5729 31.9569 37.6264 32.0184L32.0552 37.5896C31.9937 37.5362 31.9338 37.4814 31.8765 37.4241L24.4502 29.9972C25.16 29.0757 25.0218 27.7497 24.1221 26.9957C23.3343 26.3352 22.1963 26.3169 21.389 26.9398L20.4563 26.0072L26.0466 20.4251Z" fill="#C4FF64" stroke="#C4FF64" stroke-width="0.2"/>
<path d="M34.5927 33.6118L34.6634 33.5411L34.5927 33.4704L27.9238 26.8018L27.8531 26.731L27.7823 26.8018L26.8394 27.7449L26.7687 27.8157L26.8394 27.8864L33.5081 34.555L33.5788 34.6257L33.6495 34.555L34.5927 33.6118Z" fill="#C4FF64" stroke="#C4FF64" stroke-width="0.2"/>
</svg>
