<svg width="46" height="46" viewBox="0 0 46 46" fill="none" xmlns="http://www.w3.org/2000/svg">
<g clip-path="url(#clip0)">
<path d="M0.145827 4.22013L3.21366 9.58852C3.31714 9.76993 3.49035 9.90118 3.69289 9.95197L6.55502 10.6675L16.3715 20.484L17.4562 19.3997L7.48604 9.42983C7.38792 9.3314 7.26488 9.26168 7.13016 9.22792L4.38003 8.53794L1.76808 3.96458L4.00743 1.72523L8.58268 4.3397L9.27298 7.08984C9.30642 7.22487 9.37646 7.34822 9.47458 7.44634L19.4447 17.4165L20.5291 16.3318L10.7126 6.51533L9.99703 3.65477C9.94623 3.45191 9.81499 3.27839 9.63358 3.1746L4.26487 0.107078C3.96547 -0.0632871 3.58878 -0.0128086 3.34459 0.230435L0.277071 3.29827C0.0303571 3.54088 -0.0232764 3.91821 0.145827 4.22013Z" fill="#A7DC52"/>
<path d="M32.031 15.1146L15.1589 31.9871L14.0742 30.9024L30.9467 14.0303L32.031 15.1146Z" fill="#A7DC52"/>
<path d="M12.2054 32.5849C12.0666 32.3539 11.8174 32.2129 11.5479 32.2129H6.9465C6.67739 32.2129 6.42783 32.3539 6.28933 32.5849L3.98846 36.4193C3.84239 36.6622 3.84239 36.9661 3.98846 37.2093L6.28933 41.0438C6.42783 41.2744 6.67739 41.4157 6.9465 41.4157H11.5479C11.8174 41.4157 12.0666 41.2744 12.2054 41.0438L14.506 37.2093C14.652 36.9661 14.652 36.6622 14.506 36.4193L12.2054 32.5849ZM11.1141 39.8818H7.38062L5.54004 36.8143L7.38062 33.7465H11.1141L12.9547 36.8143L11.1141 39.8818Z" fill="#A7DC52"/>
<path d="M36.856 18.4076C41.9213 18.4246 46.0416 14.3321 46.0586 9.26689C46.0611 8.49583 45.9665 7.72793 45.7769 6.98053C45.6746 6.56945 45.2585 6.31926 44.8474 6.42148C44.7124 6.45524 44.5894 6.52496 44.4909 6.62308L39.7169 11.3939L35.9291 10.1317L34.6659 6.34482L39.4399 1.56986C39.7393 1.27015 39.739 0.784608 39.4393 0.485207C39.3405 0.386459 39.2162 0.31642 39.0803 0.282978C34.1681 -0.961003 29.1779 2.0125 27.934 6.92437C27.745 7.66956 27.6507 8.43558 27.6532 9.20443C27.6551 9.80828 27.7172 10.4102 27.8396 11.0015L11.0438 27.7969C10.4526 27.6748 9.85066 27.6127 9.24713 27.6105C4.16426 27.6105 0.0439453 31.7308 0.0439453 36.8137C0.0439453 41.8962 4.16426 46.0165 9.24713 46.0165C14.3297 46.0165 18.45 41.8962 18.45 36.8137C18.4481 36.2098 18.3856 35.6079 18.2635 35.0166L22.2845 30.9957L24.043 32.7542C24.3427 33.0536 24.828 33.0536 25.1277 32.7542L25.511 32.3706C25.8473 32.0365 26.3909 32.0365 26.7272 32.3706C27.0632 32.7057 27.0638 33.2496 26.7288 33.5856C26.7285 33.5859 26.7278 33.5865 26.7272 33.5871L26.3439 33.9705C26.0445 34.2699 26.0445 34.7554 26.3439 35.0548L35.4925 44.2034C37.8987 46.6317 41.8178 46.6494 44.2461 44.2432C46.6741 41.8369 46.6918 37.9176 44.2855 35.4895C44.2726 35.4763 44.2594 35.463 44.2461 35.4498L35.0975 26.3015C34.7981 26.0021 34.3126 26.0021 34.0132 26.3015L33.6298 26.6848C33.2932 27.0192 32.7499 27.0192 32.4133 26.6848C32.0776 26.3498 32.0767 25.8059 32.4117 25.4702C32.4124 25.4696 32.413 25.4692 32.4133 25.4686L32.7969 25.085C33.0963 24.7856 33.0963 24.3 32.7969 24.0006L31.0384 22.2421L35.0593 18.2212C35.6506 18.3433 36.2525 18.4057 36.856 18.4076ZM39.8693 44.4829C39.3121 44.482 38.7597 44.3813 38.2382 44.1854L44.2278 38.1955C45.1317 40.5999 43.9155 43.2815 41.5111 44.1854C40.9865 44.3826 40.4302 44.4836 39.8693 44.4829ZM31.181 24.5505C30.3317 25.5636 30.4648 27.0735 31.4779 27.9225C32.3682 28.6686 33.6658 28.668 34.5552 27.9203L43.1618 36.5345C43.2551 36.6282 43.3425 36.7269 43.4271 36.8272L36.8699 43.3844C36.7693 43.3001 36.6705 43.2128 36.5768 43.1191L27.9636 34.5052C28.8129 33.4922 28.6798 31.9822 27.6667 31.1332C26.7764 30.3868 25.4785 30.3877 24.5891 31.1351L23.3622 29.9082L29.9537 23.3264L31.181 24.5505ZM34.2779 16.8371L16.8801 34.2314C16.6892 34.4219 16.6126 34.6986 16.6776 34.9602C17.7297 39.0921 15.2329 43.2948 11.1006 44.3466C6.96865 45.3988 2.766 42.902 1.71384 38.7697C0.661992 34.6377 3.15879 30.4351 7.29109 29.3829C8.54106 29.0649 9.85066 29.0649 11.1006 29.3829C11.3622 29.4469 11.6382 29.3703 11.8294 29.1807L29.2231 11.7861C29.4136 11.5955 29.4903 11.3188 29.4247 11.0576C28.3798 6.97391 30.8431 2.81637 34.9268 1.77115C35.6985 1.57397 36.4967 1.49825 37.2917 1.54778L33.2462 5.5949C33.0408 5.79997 32.9689 6.10378 33.0607 6.37921L34.5943 10.981C34.671 11.2097 34.8508 11.3895 35.0798 11.4656L39.6816 12.9995C39.9567 13.0913 40.2605 13.0197 40.4659 12.8146L44.5114 8.76905C44.5206 8.91544 44.5253 9.06025 44.5253 9.20443C44.5468 13.4184 41.1483 16.8519 36.9343 16.8737C36.2828 16.8768 35.6335 16.7967 35.0025 16.6352C34.741 16.5699 34.4643 16.6462 34.2738 16.8368H34.2779V16.8371Z" fill="#A7DC52"/>
<path d="M39.6999 38.5723L38.6153 39.6569L30.9463 31.988L32.0306 30.9033L39.6999 38.5723Z" fill="#A7DC52"/>
</g>
<defs>
<clipPath id="clip0">
<rect width="46" height="46" fill="white"/>
</clipPath>
</defs>
</svg>
