<svg width="46" height="46" viewBox="0 0 46 46" fill="none" xmlns="http://www.w3.org/2000/svg">
<g clip-path="url(#clip0)">
<path d="M0.146071 4.22013L3.2139 9.58852C3.31738 9.76993 3.49059 9.90118 3.69313 9.95197L6.55527 10.6675L16.3718 20.484L17.4564 19.3997L7.48628 9.42983C7.38816 9.3314 7.26512 9.26168 7.13041 9.22792L4.38027 8.53794L1.76832 3.96458L4.00768 1.72523L8.58293 4.3397L9.27322 7.08984C9.30666 7.22487 9.3767 7.34822 9.47482 7.44634L19.445 17.4165L20.5293 16.3318L10.7128 6.51533L9.99727 3.65477C9.94648 3.45191 9.81523 3.27839 9.63383 3.1746L4.26512 0.107078C3.96572 -0.0632871 3.58902 -0.0128086 3.34483 0.230435L0.277315 3.29827C0.0306012 3.54088 -0.0230322 3.91821 0.146071 4.22013Z" fill="#38500D"/>
<path d="M32.0313 15.1146L15.1591 31.9871L14.0745 30.9024L30.9469 14.0303L32.0313 15.1146Z" fill="#38500D"/>
<path d="M12.2057 32.5849C12.0668 32.3539 11.8176 32.2129 11.5482 32.2129H6.94675C6.67763 32.2129 6.42808 32.3539 6.28958 32.5849L3.9887 36.4193C3.84263 36.6622 3.84263 36.9661 3.9887 37.2093L6.28958 41.0438C6.42808 41.2744 6.67763 41.4157 6.94675 41.4157H11.5482C11.8176 41.4157 12.0668 41.2744 12.2057 41.0438L14.5062 37.2093C14.6523 36.9661 14.6523 36.6622 14.5062 36.4193L12.2057 32.5849ZM11.1144 39.8818H7.38086L5.54029 36.8143L7.38086 33.7465H11.1144L12.955 36.8143L11.1144 39.8818Z" fill="#38500D"/>
<path d="M36.8563 18.4076C41.9215 18.4246 46.0418 14.3321 46.0588 9.26689C46.0614 8.49583 45.9667 7.72793 45.7771 6.98053C45.6749 6.56945 45.2588 6.31926 44.8477 6.42148C44.7126 6.45524 44.5896 6.52496 44.4912 6.62308L39.7172 11.3939L35.9294 10.1317L34.6662 6.34482L39.4402 1.56986C39.7396 1.27015 39.7392 0.784608 39.4395 0.485207C39.3408 0.386459 39.2165 0.31642 39.0805 0.282978C34.1683 -0.961003 29.1782 2.0125 27.9342 6.92437C27.7452 7.66956 27.6509 8.43558 27.6534 9.20443C27.6553 9.80828 27.7175 10.4102 27.8399 11.0015L11.0441 27.7969C10.4529 27.6748 9.85091 27.6127 9.24737 27.6105C4.1645 27.6105 0.0441895 31.7308 0.0441895 36.8137C0.0441895 41.8962 4.1645 46.0165 9.24737 46.0165C14.3299 46.0165 18.4502 41.8962 18.4502 36.8137C18.4483 36.2098 18.3859 35.6079 18.2638 35.0166L22.2847 30.9957L24.0433 32.7542C24.343 33.0536 24.8282 33.0536 25.1279 32.7542L25.5112 32.3706C25.8476 32.0365 26.3911 32.0365 26.7275 32.3706C27.0635 32.7057 27.0641 33.2496 26.729 33.5856C26.7287 33.5859 26.7281 33.5865 26.7275 33.5871L26.3441 33.9705C26.0447 34.2699 26.0447 34.7554 26.3441 35.0548L35.4927 44.2034C37.899 46.6317 41.818 46.6494 44.2463 44.2432C46.6744 41.8369 46.692 37.9176 44.2858 35.4895C44.2729 35.4763 44.2596 35.463 44.2463 35.4498L35.0977 26.3015C34.7983 26.0021 34.3128 26.0021 34.0134 26.3015L33.6301 26.6848C33.2935 27.0192 32.7502 27.0192 32.4136 26.6848C32.0779 26.3498 32.0769 25.8059 32.412 25.4702C32.4126 25.4696 32.4132 25.4692 32.4136 25.4686L32.7972 25.085C33.0966 24.7856 33.0966 24.3 32.7972 24.0006L31.0386 22.2421L35.0596 18.2212C35.6508 18.3433 36.2528 18.4057 36.8563 18.4076ZM39.8695 44.4829C39.3124 44.482 38.76 44.3813 38.2385 44.1854L44.2281 38.1955C45.1319 40.5999 43.9157 43.2815 41.5114 44.1854C40.9867 44.3826 40.4305 44.4836 39.8695 44.4829ZM31.1812 24.5505C30.3319 25.5636 30.4651 27.0735 31.4781 27.9225C32.3684 28.6686 33.666 28.668 34.5554 27.9203L43.162 36.5345C43.2554 36.6282 43.3428 36.7269 43.4273 36.8272L36.8702 43.3844C36.7695 43.3001 36.6708 43.2128 36.5771 43.1191L27.9639 34.5052C28.8132 33.4922 28.68 31.9822 27.667 31.1332C26.7767 30.3868 25.4787 30.3877 24.5894 31.1351L23.3624 29.9082L29.954 23.3264L31.1812 24.5505ZM34.2781 16.8371L16.8804 34.2314C16.6895 34.4219 16.6128 34.6986 16.6778 34.9602C17.73 39.0921 15.2332 43.2948 11.1009 44.3466C6.9689 45.3988 2.76624 42.902 1.71408 38.7697C0.662236 34.6377 3.15903 30.4351 7.29133 29.3829C8.5413 29.0649 9.85091 29.0649 11.1009 29.3829C11.3624 29.4469 11.6385 29.3703 11.8297 29.1807L29.2233 11.7861C29.4139 11.5955 29.4905 11.3188 29.4249 11.0576C28.38 6.97391 30.8434 2.81637 34.9271 1.77115C35.6988 1.57397 36.4969 1.49825 37.292 1.54778L33.2464 5.5949C33.0411 5.79997 32.9691 6.10378 33.0609 6.37921L34.5945 10.981C34.6712 11.2097 34.851 11.3895 35.0801 11.4656L39.6818 12.9995C39.9569 13.0913 40.2608 13.0197 40.4661 12.8146L44.5117 8.76905C44.5208 8.91544 44.5256 9.06025 44.5256 9.20443C44.547 13.4184 41.1485 16.8519 36.9345 16.8737C36.283 16.8768 35.6338 16.7967 35.0028 16.6352C34.7412 16.5699 34.4646 16.6462 34.274 16.8368H34.2781V16.8371Z" fill="#38500D"/>
<path d="M39.7002 38.5723L38.6155 39.6569L30.9465 31.988L32.0309 30.9033L39.7002 38.5723Z" fill="#38500D"/>
</g>
<defs>
<clipPath id="clip0">
<rect width="46" height="46" fill="white" transform="translate(0.000244141)"/>
</clipPath>
</defs>
</svg>
