<svg width="50" height="50" viewBox="0 0 50 50" fill="none" xmlns="http://www.w3.org/2000/svg">
<g clip-path="url(#clip0)">
<path d="M0.158008 4.58651L3.49261 10.4217C3.60509 10.6189 3.79335 10.7616 4.01351 10.8168L7.12453 11.5945L17.7946 22.2646L18.9736 21.086L8.1365 10.2492C8.02985 10.1422 7.89611 10.0664 7.74968 10.0298L4.7604 9.27977L1.92133 4.30874L4.35541 1.87466L9.3285 4.71647L10.0788 7.70575C10.1152 7.85252 10.1913 7.9866 10.298 8.09325L21.1351 18.9304L22.3137 17.7514L11.6436 7.08128L10.8658 3.97198C10.8106 3.75148 10.668 3.56288 10.4708 3.45005L4.63523 0.115795C4.3098 -0.0693848 3.90035 -0.0145168 3.63492 0.249878L0.300665 3.58448C0.0324979 3.84819 -0.0257993 4.25833 0.158008 4.58651Z" fill="#97BA56"/>
<path d="M34.816 16.4286L16.4767 34.7683L15.2977 33.5893L33.6374 15.25L34.816 16.4286Z" fill="#97BA56"/>
<path d="M13.267 35.418C13.1161 35.167 12.8452 35.0137 12.5523 35.0137H7.55077C7.25826 35.0137 6.987 35.167 6.83646 35.418L4.33551 39.5859C4.17674 39.8499 4.17674 40.1802 4.33551 40.4446L6.83646 44.6124C6.987 44.8631 7.25826 45.0168 7.55077 45.0168H12.5523C12.8452 45.0168 13.1161 44.8631 13.267 44.6124L15.7676 40.4446C15.9264 40.1802 15.9264 39.8499 15.7676 39.5859L13.267 35.418ZM12.0808 43.3495H8.02264L6.02201 40.0152L8.02264 36.6806H12.0808L14.0814 40.0152L12.0808 43.3495Z" fill="#97BA56"/>
<path d="M40.0613 20.0083C45.567 20.0268 50.0456 15.5784 50.0641 10.0727C50.0668 9.2346 49.964 8.39992 49.7579 7.58753C49.6467 7.1407 49.1944 6.86876 48.7476 6.97987C48.6008 7.01656 48.4671 7.09235 48.3601 7.199L43.171 12.3847L39.0538 11.0127L37.6807 6.89654L42.8699 1.70637C43.1953 1.3806 43.195 0.852835 42.8692 0.527399C42.7618 0.420064 42.6267 0.343934 42.4789 0.307584C37.1396 -1.04457 31.7155 2.1875 30.3634 7.52649C30.158 8.33648 30.0555 9.1691 30.0582 10.0048C30.0603 10.6612 30.1278 11.3155 30.2609 11.9581L12.0046 30.2141C11.3619 30.0813 10.7076 30.0138 10.0516 30.0114C4.52675 30.0114 0.0481567 34.49 0.0481567 40.0148C0.0481567 45.5394 4.52675 50.018 10.0516 50.018C15.5761 50.018 20.0547 45.5394 20.0547 40.0148C20.0527 39.3585 19.9848 38.7042 19.8521 38.0615L24.2226 33.691L26.1341 35.6024C26.4599 35.9279 26.9873 35.9279 27.3131 35.6024L27.7297 35.1854C28.0953 34.8223 28.6862 34.8223 29.0517 35.1854C29.4169 35.5496 29.4176 36.1408 29.0534 36.506C29.0531 36.5064 29.0524 36.5071 29.0517 36.5078L28.6351 36.9244C28.3096 37.2498 28.3096 37.7776 28.6351 38.103L38.5792 48.0472C41.1947 50.6867 45.4545 50.7059 48.094 48.0904C50.7331 45.4749 50.7523 41.2147 48.1368 38.5756C48.1228 38.5612 48.1084 38.5468 48.094 38.5324L38.1498 28.5886C37.8244 28.2632 37.2966 28.2632 36.9712 28.5886L36.5546 29.0052C36.1887 29.3687 35.5981 29.3687 35.2322 29.0052C34.8674 28.6411 34.8663 28.0499 35.2305 27.685C35.2312 27.6843 35.2319 27.684 35.2322 27.6833L35.6492 27.2663C35.9747 26.9408 35.9747 26.4131 35.6492 26.0876L33.7378 24.1762L38.1084 19.8056C38.751 19.9383 39.4053 20.0062 40.0613 20.0083ZM43.3366 48.351C42.731 48.35 42.1305 48.2406 41.5637 48.0276L48.0741 41.5169C49.0566 44.1303 47.7346 47.0451 45.1212 48.0276C44.5509 48.242 43.9463 48.3517 43.3366 48.351ZM33.8928 26.6854C32.9696 27.7865 33.1143 29.4277 34.2155 30.3505C35.1832 31.1616 36.5937 31.1609 37.5604 30.3481L46.9153 39.7114C47.0169 39.8132 47.1118 39.9205 47.2037 40.0296L40.0764 47.1569C39.967 47.0654 39.8597 46.9704 39.7578 46.8685L30.3956 37.5057C31.3188 36.4045 31.1741 34.7633 30.0729 33.8405C29.1052 33.0291 27.6944 33.0302 26.7277 33.8425L25.3941 32.5089L32.5588 25.3548L33.8928 26.6854ZM37.2589 18.3012L18.3483 37.208C18.1409 37.4151 18.0575 37.7159 18.1282 38.0002C19.2718 42.4914 16.5579 47.0595 12.0663 48.2029C7.57501 49.3465 3.00691 46.6326 1.86326 42.141C0.719946 37.6497 3.43385 33.0816 7.92548 31.9379C9.28415 31.5923 10.7076 31.5923 12.0663 31.9379C12.3506 32.0076 12.6506 31.9242 12.8585 31.7181L31.7646 12.811C31.9717 12.6038 32.055 12.3031 31.9837 12.0192C30.8479 7.58033 33.5255 3.06127 37.9643 1.92516C38.8031 1.71083 39.6707 1.62853 40.5349 1.68237L36.1376 6.08141C35.9143 6.30431 35.8361 6.63455 35.9359 6.93392L37.6029 11.9358C37.6862 12.1844 37.8817 12.3799 38.1306 12.4626L43.1325 14.1299C43.4316 14.2296 43.7618 14.1518 43.9851 13.9289L48.3824 9.53158C48.3923 9.69069 48.3975 9.84809 48.3975 10.0048C48.4208 14.5853 44.7268 18.3173 40.1464 18.341C39.4382 18.3444 38.7325 18.2573 38.0466 18.0817C37.7623 18.0107 37.4616 18.0937 37.2545 18.3008H37.2589V18.3012Z" fill="#97BA56"/>
<path d="M43.1523 41.9267L41.9733 43.1056L33.6375 34.7698L34.8161 33.5908L43.1523 41.9267Z" fill="#97BA56"/>
</g>
<defs>
<clipPath id="clip0">
<rect width="50" height="50" fill="white"/>
</clipPath>
</defs>
</svg>
