<svg width="26" height="21" viewBox="0 0 26 21" fill="none" xmlns="http://www.w3.org/2000/svg">
<g clip-path="url(#clip0)">
<path d="M14.7703 4.72248C14.8965 4.72248 14.9955 4.72248 15.0945 4.72248C16.4601 4.72248 17.8258 4.7286 19.1914 4.72041C20.1637 4.71457 20.9631 5.06958 21.6091 5.79649C22.7919 7.12753 23.9795 8.45443 25.1716 9.7772C25.7222 10.3882 25.9968 11.0992 25.9979 11.9176C25.9996 13.0341 26.0028 14.1506 25.9948 15.2671C25.9868 16.3763 25.2327 17.12 24.1265 17.1253C23.9235 17.1262 23.7198 17.136 23.5177 17.1222C23.3383 17.11 23.2719 17.1689 23.2278 17.3533C22.6811 19.6397 20.1147 20.7719 18.0731 19.6273C17.2034 19.1397 16.6372 18.4028 16.3716 17.4391C16.3472 17.3502 16.3259 17.2606 16.3022 17.1715C16.3002 17.1641 16.2911 17.1585 16.2726 17.1378C16.2044 17.1346 16.1229 17.1274 16.0413 17.1274C14.408 17.1267 12.7748 17.1278 11.1416 17.1255C10.9871 17.1253 10.8793 17.1208 10.8296 17.3297C10.4431 18.9538 9.04489 20.068 7.41504 20.072C5.75204 20.0762 4.36156 18.987 3.94734 17.3559C3.92955 17.286 3.91131 17.2161 3.88791 17.1254C3.23859 17.1254 2.59423 17.1258 1.94979 17.1253C0.732018 17.1244 0.00104467 16.3979 0.000749327 15.1818C-0.000210538 10.7711 -6.28661e-05 6.36052 0.000823163 1.94994C0.00104467 0.724639 0.720131 0.00311652 1.94167 0.00259967C5.57719 0.000901448 9.21272 8.92549e-05 12.8482 0.000679941C14.0479 0.000901448 14.7695 0.729882 14.7703 1.93628C14.7708 2.76671 14.7703 3.59714 14.7703 4.42765C14.7703 4.51758 14.7703 4.60759 14.7703 4.72248ZM3.88835 15.9337C3.90312 15.8793 3.91552 15.8363 3.92645 15.7929C4.34908 14.1092 5.72989 12.9895 7.38543 12.988C9.03544 12.9865 10.4049 14.0828 10.8339 15.7633C10.8781 15.9366 10.9662 15.951 11.1076 15.9504C11.864 15.9468 12.6204 15.9491 13.3768 15.9479C13.4387 15.9478 13.5006 15.9368 13.5938 15.9279C13.5938 15.8145 13.5938 15.7158 13.5938 15.6171C13.5938 11.0696 13.594 6.52215 13.5935 1.97468C13.5935 1.37609 13.3957 1.17888 12.7993 1.17888C9.19271 1.17917 5.58605 1.17969 1.97947 1.18035C1.3704 1.18043 1.19349 1.35904 1.19327 1.97564C1.19224 5.03805 1.19165 8.10039 1.19106 11.1628C1.19083 12.5279 1.1895 13.8931 1.19209 15.2582C1.19283 15.6574 1.36132 15.9135 1.70192 15.9256C2.42751 15.9517 3.15479 15.9337 3.88835 15.9337ZM14.7867 5.89905C14.7867 9.26965 14.7867 12.5953 14.7867 15.9342C15.2968 15.9342 15.7907 15.9342 16.2914 15.9342C16.32 15.8256 16.3456 15.7287 16.371 15.6319C16.7689 14.1147 18.0938 13.0645 19.7049 12.9893C21.1566 12.9215 22.5946 13.9003 23.1127 15.309C23.19 15.5193 23.2089 15.8162 23.3593 15.9167C23.5199 16.024 23.8042 15.9485 24.0346 15.9482C24.6081 15.9474 24.805 15.7542 24.8057 15.1882C24.8071 14.1184 24.7952 13.0484 24.8105 11.9788C24.8188 11.4005 24.6233 10.9278 24.2376 10.5023C23.073 9.21804 21.9148 7.92776 20.7697 6.62603C20.3299 6.12609 19.8034 5.89093 19.1421 5.89602C17.7865 5.90636 16.4307 5.89912 15.0749 5.89912C14.9848 5.89905 14.8945 5.89905 14.7867 5.89905ZM9.7433 16.5301C9.74109 15.2246 8.69424 14.1789 7.3892 14.1787C6.08555 14.1785 5.02978 15.2269 5.02601 16.5255C5.02224 17.8313 6.09257 18.9007 7.39902 18.8963C8.69742 18.8918 9.74552 17.834 9.7433 16.5301ZM19.7945 14.1788C18.4914 14.1774 17.43 15.2331 17.4288 16.5317C17.4276 17.8292 18.4845 18.8891 19.7868 18.8964C21.083 18.9037 22.1493 17.8383 22.1461 16.5389C22.143 15.2233 21.1036 14.1801 19.7945 14.1788Z" fill="#186282"/>
<path d="M19.4857 11.8106C18.5451 11.8106 17.6043 11.8113 16.6637 11.8103C16.177 11.8098 15.95 11.5908 15.9483 11.1041C15.9443 9.99733 15.9447 8.89061 15.9479 7.78396C15.9493 7.30536 16.1649 7.0916 16.6423 7.08991C17.4539 7.08703 18.2656 7.0953 19.0771 7.08577C19.348 7.0826 19.5497 7.17674 19.7306 7.37558C20.7545 8.50105 21.7838 9.62173 22.8152 10.7404C23.0073 10.9487 23.0988 11.1773 22.987 11.4458C22.869 11.7289 22.6299 11.8136 22.3356 11.8117C21.3857 11.8056 20.4358 11.8094 19.4858 11.8094C19.4857 11.8097 19.4857 11.8101 19.4857 11.8106ZM17.1507 10.6162C18.4618 10.6162 19.7461 10.6162 21.057 10.6162C21.0256 10.5631 21.0128 10.53 20.9905 10.5055C20.3377 9.79037 19.6845 9.07542 19.0285 8.36313C18.9885 8.31971 18.9244 8.27194 18.8711 8.27135C18.3019 8.2647 17.7327 8.26721 17.1507 8.26721C17.1507 9.05814 17.1507 9.82035 17.1507 10.6162Z" fill="#186282"/>
</g>
<defs>
<clipPath id="clip0">
<rect width="26" height="20.078" fill="white"/>
</clipPath>
</defs>
</svg>
