<svg width="124" height="60" viewBox="0 0 124 60" fill="none" xmlns="http://www.w3.org/2000/svg">
<mask id="path-1-inside-1" fill="white">
<path d="M117.437 23.9905L118.67 24.8277C118.827 24.9336 119.009 24.9898 119.197 24.9898C119.255 24.9898 119.315 24.9842 119.373 24.973C119.617 24.9261 119.833 24.7845 119.972 24.5783L122.078 21.4742C122.369 21.0458 122.257 20.4627 121.829 20.172L94.5266 1.64609C94.2079 1.43047 93.7926 1.43047 93.4738 1.64609L66.1701 20.173C65.7416 20.4636 65.6301 21.0467 65.9207 21.4752L68.0263 24.5792C68.1651 24.7855 68.3816 24.927 68.6254 24.9739C68.871 25.0208 69.1232 24.9673 69.3285 24.8286L70.5623 23.9905V33.3702C70.0129 33.6102 69.5638 34.0536 69.3285 34.6367C67.7526 38.533 65.8748 43.6536 65.8748 45.9373C65.8748 49.303 67.8341 51.9167 70.5623 52.4089V56.2498H65.8748V58.1248H122.125V56.2498H117.437V23.9905ZM69.0519 22.7502L67.9991 21.1967L93.9998 3.55391L120 21.1967L118.948 22.7492L94.5266 6.17797C94.3673 6.07016 94.1835 6.01578 93.9998 6.01578C93.816 6.01578 93.6323 6.07016 93.4729 6.17797L69.0519 22.7502ZM67.7498 45.9373C67.7498 44.4139 68.9582 40.5514 71.0657 35.3398C71.1735 35.0745 71.4051 35.0464 71.4998 35.0464C71.5944 35.0464 71.826 35.0745 71.9338 35.3398C74.0413 40.5514 75.2498 44.4139 75.2498 45.9373C75.2498 48.6533 73.6719 50.6248 71.4998 50.6248C69.3276 50.6248 67.7498 48.6533 67.7498 45.9373ZM72.4373 52.4089C75.1654 51.9167 77.1248 49.303 77.1248 45.9373C77.1248 43.6536 75.2469 38.533 73.671 34.6367C73.4357 34.0536 72.9866 33.6102 72.4373 33.3702V22.7183L93.9998 8.08672L115.562 22.7183V40.9667L115.405 40.7305C115.057 40.2083 114.193 40.2083 113.845 40.7305L111.97 43.543C111.868 43.6958 111.812 43.8777 111.812 44.0623V45.9373H109.937V44.0623C109.937 43.8777 109.882 43.6958 109.78 43.542L107.905 40.7295C107.557 40.2073 106.693 40.2073 106.345 40.7295L104.47 43.542C104.368 43.6958 104.312 43.8777 104.312 44.0623V45.9373H102.437V44.0623C102.437 43.8777 102.382 43.6958 102.28 43.542L100.405 40.7295C100.057 40.2073 99.1926 40.2073 98.8448 40.7295L96.9698 43.542C96.8676 43.6958 96.8123 43.8777 96.8123 44.0623V56.2498H91.1873V38.4373C91.1873 37.9189 90.7682 37.4998 90.2498 37.4998H79.9373C79.4188 37.4998 78.9998 37.9189 78.9998 38.4373V56.2498H72.4373V52.4089ZM100.562 56.2498H98.6873V44.3464L99.6248 42.9402L100.562 44.3464V56.2498ZM102.437 47.8123H104.312V49.6873H102.437V47.8123ZM102.437 51.5623H104.312V56.2498H102.437V51.5623ZM108.062 56.2498H106.187V44.3464L107.125 42.9402L108.062 44.3464V56.2498ZM109.937 47.8123H111.812V49.6873H109.937V47.8123ZM109.937 51.5623H111.812V56.2498H109.937V51.5623ZM89.3123 56.2498H80.8748V39.3748H89.3123V56.2498ZM113.687 56.2498V44.3464L114.625 42.9402L115.562 44.3464V56.2498H113.687Z"/>
</mask>
<path d="M117.437 23.9905L118.67 24.8277C118.827 24.9336 119.009 24.9898 119.197 24.9898C119.255 24.9898 119.315 24.9842 119.373 24.973C119.617 24.9261 119.833 24.7845 119.972 24.5783L122.078 21.4742C122.369 21.0458 122.257 20.4627 121.829 20.172L94.5266 1.64609C94.2079 1.43047 93.7926 1.43047 93.4738 1.64609L66.1701 20.173C65.7416 20.4636 65.6301 21.0467 65.9207 21.4752L68.0263 24.5792C68.1651 24.7855 68.3816 24.927 68.6254 24.9739C68.871 25.0208 69.1232 24.9673 69.3285 24.8286L70.5623 23.9905V33.3702C70.0129 33.6102 69.5638 34.0536 69.3285 34.6367C67.7526 38.533 65.8748 43.6536 65.8748 45.9373C65.8748 49.303 67.8341 51.9167 70.5623 52.4089V56.2498H65.8748V58.1248H122.125V56.2498H117.437V23.9905ZM69.0519 22.7502L67.9991 21.1967L93.9998 3.55391L120 21.1967L118.948 22.7492L94.5266 6.17797C94.3673 6.07016 94.1835 6.01578 93.9998 6.01578C93.816 6.01578 93.6323 6.07016 93.4729 6.17797L69.0519 22.7502ZM67.7498 45.9373C67.7498 44.4139 68.9582 40.5514 71.0657 35.3398C71.1735 35.0745 71.4051 35.0464 71.4998 35.0464C71.5944 35.0464 71.826 35.0745 71.9338 35.3398C74.0413 40.5514 75.2498 44.4139 75.2498 45.9373C75.2498 48.6533 73.6719 50.6248 71.4998 50.6248C69.3276 50.6248 67.7498 48.6533 67.7498 45.9373ZM72.4373 52.4089C75.1654 51.9167 77.1248 49.303 77.1248 45.9373C77.1248 43.6536 75.2469 38.533 73.671 34.6367C73.4357 34.0536 72.9866 33.6102 72.4373 33.3702V22.7183L93.9998 8.08672L115.562 22.7183V40.9667L115.405 40.7305C115.057 40.2083 114.193 40.2083 113.845 40.7305L111.97 43.543C111.868 43.6958 111.812 43.8777 111.812 44.0623V45.9373H109.937V44.0623C109.937 43.8777 109.882 43.6958 109.78 43.542L107.905 40.7295C107.557 40.2073 106.693 40.2073 106.345 40.7295L104.47 43.542C104.368 43.6958 104.312 43.8777 104.312 44.0623V45.9373H102.437V44.0623C102.437 43.8777 102.382 43.6958 102.28 43.542L100.405 40.7295C100.057 40.2073 99.1926 40.2073 98.8448 40.7295L96.9698 43.542C96.8676 43.6958 96.8123 43.8777 96.8123 44.0623V56.2498H91.1873V38.4373C91.1873 37.9189 90.7682 37.4998 90.2498 37.4998H79.9373C79.4188 37.4998 78.9998 37.9189 78.9998 38.4373V56.2498H72.4373V52.4089ZM100.562 56.2498H98.6873V44.3464L99.6248 42.9402L100.562 44.3464V56.2498ZM102.437 47.8123H104.312V49.6873H102.437V47.8123ZM102.437 51.5623H104.312V56.2498H102.437V51.5623ZM108.062 56.2498H106.187V44.3464L107.125 42.9402L108.062 44.3464V56.2498ZM109.937 47.8123H111.812V49.6873H109.937V47.8123ZM109.937 51.5623H111.812V56.2498H109.937V51.5623ZM89.3123 56.2498H80.8748V39.3748H89.3123V56.2498ZM113.687 56.2498V44.3464L114.625 42.9402L115.562 44.3464V56.2498H113.687Z" fill="#97BA56" stroke="white" stroke-width="0.2" mask="url(#path-1-inside-1)"/>
<path d="M89.3125 25.2625H89.2625V25.3125V27.1875C89.2625 28.2492 90.1258 29.1125 91.1875 29.1125H93.0625H93.1125V29.0625V25.3125V25.2625H93.0625H89.3125ZM94.8875 29.0625V29.1125H94.9375H96.8125C97.8742 29.1125 98.7375 28.2492 98.7375 27.1875V25.3125V25.2625H98.6875H94.9375H94.8875V25.3125V29.0625ZM98.6875 23.4875H98.7375V23.4375V21.5625C98.7375 20.5008 97.8742 19.6375 96.8125 19.6375H94.9375H94.8875V19.6875V23.4375V23.4875H94.9375H98.6875ZM93.1125 19.6875V19.6375H93.0625H91.1875C90.1258 19.6375 89.2625 20.5008 89.2625 21.5625V23.4375V23.4875H89.3125H93.0625H93.1125V23.4375V19.6875ZM96.8125 30.8875H91.1875C89.147 30.8875 87.4875 29.228 87.4875 27.1875V21.5625C87.4875 19.522 89.147 17.8625 91.1875 17.8625H96.8125C98.853 17.8625 100.512 19.522 100.512 21.5625V27.1875C100.512 29.228 98.853 30.8875 96.8125 30.8875Z" fill="#97BA56" stroke="white" stroke-width="0.1"/>
<path d="M85.6125 46.925H87.3875V48.7H85.6125V46.925Z" fill="#97BA56" stroke="white" stroke-width="0.1"/>
<mask id="path-4-inside-2" fill="white">
<path d="M53.4373 23.9905L54.6701 24.8277C54.8266 24.9336 55.0094 24.9898 55.1969 24.9898C55.2551 24.9898 55.3151 24.9842 55.3732 24.973C55.6169 24.9261 55.8326 24.7845 55.9723 24.5783L58.0779 21.4742C58.3694 21.0458 58.2569 20.4627 57.8285 20.172L30.5266 1.64609C30.2079 1.43047 29.7926 1.43047 29.4738 1.64609L2.17007 20.173C1.74163 20.4636 1.63007 21.0467 1.92069 21.4752L4.02632 24.5792C4.16507 24.7855 4.38163 24.927 4.62538 24.9739C4.871 25.0208 5.12319 24.9673 5.3285 24.8286L6.56226 23.9905V33.3702C6.01288 33.6102 5.56382 34.0536 5.3285 34.6367C3.75257 38.533 1.87475 43.6536 1.87475 45.9373C1.87475 49.303 3.83413 51.9167 6.56226 52.4089V56.2498H1.87475V58.1248H58.1248V56.2498H53.4373V23.9905ZM5.05194 22.7502L3.99913 21.1967L29.9998 3.55391L56.0004 21.1967L54.9476 22.7492L30.5266 6.17797C30.3673 6.07016 30.1835 6.01578 29.9998 6.01578C29.816 6.01578 29.6323 6.07016 29.4729 6.17797L5.05194 22.7502ZM3.74975 45.9373C3.74975 44.4139 4.95819 40.5514 7.06569 35.3398C7.17351 35.0745 7.40507 35.0464 7.49976 35.0464C7.59444 35.0464 7.82601 35.0745 7.93382 35.3398C10.0413 40.5514 11.2498 44.4139 11.2498 45.9373C11.2498 48.6533 9.67194 50.6248 7.49976 50.6248C5.32757 50.6248 3.74975 48.6533 3.74975 45.9373ZM8.43726 52.4089C11.1654 51.9167 13.1248 49.303 13.1248 45.9373C13.1248 43.6536 11.2469 38.533 9.67101 34.6367C9.43569 34.0536 8.98663 33.6102 8.43726 33.3702V22.7183L29.9998 8.08672L51.5623 22.7183V40.9667L51.4048 40.7305C51.0569 40.2083 50.1926 40.2083 49.8448 40.7305L47.9698 43.543C47.8676 43.6958 47.8123 43.8777 47.8123 44.0623V45.9373H45.9373V44.0623C45.9373 43.8777 45.8819 43.6958 45.7798 43.542L43.9048 40.7295C43.5569 40.2073 42.6926 40.2073 42.3448 40.7295L40.4698 43.542C40.3676 43.6958 40.3123 43.8777 40.3123 44.0623V45.9373H38.4373V44.0623C38.4373 43.8777 38.3819 43.6958 38.2798 43.542L36.4048 40.7295C36.0569 40.2073 35.1926 40.2073 34.8448 40.7295L32.9698 43.542C32.8676 43.6958 32.8123 43.8777 32.8123 44.0623V56.2498H27.1873V38.4373C27.1873 37.9189 26.7682 37.4998 26.2498 37.4998H15.9373C15.4188 37.4998 14.9998 37.9189 14.9998 38.4373V56.2498H8.43726V52.4089ZM36.5623 56.2498H34.6873V44.3464L35.6248 42.9402L36.5623 44.3464V56.2498ZM38.4373 47.8123H40.3123V49.6873H38.4373V47.8123ZM38.4373 51.5623H40.3123V56.2498H38.4373V51.5623ZM44.0623 56.2498H42.1873V44.3464L43.1248 42.9402L44.0623 44.3464V56.2498ZM45.9373 47.8123H47.8123V49.6873H45.9373V47.8123ZM45.9373 51.5623H47.8123V56.2498H45.9373V51.5623ZM25.3123 56.2498H16.8748V39.3748H25.3123V56.2498ZM49.6873 56.2498V44.3464L50.6248 42.9402L51.5623 44.3464V56.2498H49.6873Z"/>
</mask>
<path d="M53.4373 23.9905L54.6701 24.8277C54.8266 24.9336 55.0094 24.9898 55.1969 24.9898C55.2551 24.9898 55.3151 24.9842 55.3732 24.973C55.6169 24.9261 55.8326 24.7845 55.9723 24.5783L58.0779 21.4742C58.3694 21.0458 58.2569 20.4627 57.8285 20.172L30.5266 1.64609C30.2079 1.43047 29.7926 1.43047 29.4738 1.64609L2.17007 20.173C1.74163 20.4636 1.63007 21.0467 1.92069 21.4752L4.02632 24.5792C4.16507 24.7855 4.38163 24.927 4.62538 24.9739C4.871 25.0208 5.12319 24.9673 5.3285 24.8286L6.56226 23.9905V33.3702C6.01288 33.6102 5.56382 34.0536 5.3285 34.6367C3.75257 38.533 1.87475 43.6536 1.87475 45.9373C1.87475 49.303 3.83413 51.9167 6.56226 52.4089V56.2498H1.87475V58.1248H58.1248V56.2498H53.4373V23.9905ZM5.05194 22.7502L3.99913 21.1967L29.9998 3.55391L56.0004 21.1967L54.9476 22.7492L30.5266 6.17797C30.3673 6.07016 30.1835 6.01578 29.9998 6.01578C29.816 6.01578 29.6323 6.07016 29.4729 6.17797L5.05194 22.7502ZM3.74975 45.9373C3.74975 44.4139 4.95819 40.5514 7.06569 35.3398C7.17351 35.0745 7.40507 35.0464 7.49976 35.0464C7.59444 35.0464 7.82601 35.0745 7.93382 35.3398C10.0413 40.5514 11.2498 44.4139 11.2498 45.9373C11.2498 48.6533 9.67194 50.6248 7.49976 50.6248C5.32757 50.6248 3.74975 48.6533 3.74975 45.9373ZM8.43726 52.4089C11.1654 51.9167 13.1248 49.303 13.1248 45.9373C13.1248 43.6536 11.2469 38.533 9.67101 34.6367C9.43569 34.0536 8.98663 33.6102 8.43726 33.3702V22.7183L29.9998 8.08672L51.5623 22.7183V40.9667L51.4048 40.7305C51.0569 40.2083 50.1926 40.2083 49.8448 40.7305L47.9698 43.543C47.8676 43.6958 47.8123 43.8777 47.8123 44.0623V45.9373H45.9373V44.0623C45.9373 43.8777 45.8819 43.6958 45.7798 43.542L43.9048 40.7295C43.5569 40.2073 42.6926 40.2073 42.3448 40.7295L40.4698 43.542C40.3676 43.6958 40.3123 43.8777 40.3123 44.0623V45.9373H38.4373V44.0623C38.4373 43.8777 38.3819 43.6958 38.2798 43.542L36.4048 40.7295C36.0569 40.2073 35.1926 40.2073 34.8448 40.7295L32.9698 43.542C32.8676 43.6958 32.8123 43.8777 32.8123 44.0623V56.2498H27.1873V38.4373C27.1873 37.9189 26.7682 37.4998 26.2498 37.4998H15.9373C15.4188 37.4998 14.9998 37.9189 14.9998 38.4373V56.2498H8.43726V52.4089ZM36.5623 56.2498H34.6873V44.3464L35.6248 42.9402L36.5623 44.3464V56.2498ZM38.4373 47.8123H40.3123V49.6873H38.4373V47.8123ZM38.4373 51.5623H40.3123V56.2498H38.4373V51.5623ZM44.0623 56.2498H42.1873V44.3464L43.1248 42.9402L44.0623 44.3464V56.2498ZM45.9373 47.8123H47.8123V49.6873H45.9373V47.8123ZM45.9373 51.5623H47.8123V56.2498H45.9373V51.5623ZM25.3123 56.2498H16.8748V39.3748H25.3123V56.2498ZM49.6873 56.2498V44.3464L50.6248 42.9402L51.5623 44.3464V56.2498H49.6873Z" fill="#97BA56" stroke="white" stroke-width="0.2" mask="url(#path-4-inside-2)"/>
<path d="M25.3125 25.2625H25.2625V25.3125V27.1875C25.2625 28.2492 26.1258 29.1125 27.1875 29.1125H29.0625H29.1125V29.0625V25.3125V25.2625H29.0625H25.3125ZM30.8875 29.0625V29.1125H30.9375H32.8125C33.8742 29.1125 34.7375 28.2492 34.7375 27.1875V25.3125V25.2625H34.6875H30.9375H30.8875V25.3125V29.0625ZM34.6875 23.4875H34.7375V23.4375V21.5625C34.7375 20.5008 33.8742 19.6375 32.8125 19.6375H30.9375H30.8875V19.6875V23.4375V23.4875H30.9375H34.6875ZM29.1125 19.6875V19.6375H29.0625H27.1875C26.1258 19.6375 25.2625 20.5008 25.2625 21.5625V23.4375V23.4875H25.3125H29.0625H29.1125V23.4375V19.6875ZM32.8125 30.8875H27.1875C25.147 30.8875 23.4875 29.228 23.4875 27.1875V21.5625C23.4875 19.522 25.147 17.8625 27.1875 17.8625H32.8125C34.853 17.8625 36.5125 19.522 36.5125 21.5625V27.1875C36.5125 29.228 34.853 30.8875 32.8125 30.8875Z" fill="#97BA56" stroke="white" stroke-width="0.1"/>
<path d="M21.6125 46.925H23.3875V48.7H21.6125V46.925Z" fill="#97BA56" stroke="white" stroke-width="0.1"/>
</svg>
