<svg width="26" height="26" viewBox="0 0 26 26" fill="none" xmlns="http://www.w3.org/2000/svg">
<path d="M20.8 14.5164V14.0831C20.8 13.3651 20.218 12.7831 19.5 12.7831C18.7835 12.7867 18.2036 13.3666 18.2 14.0831V14.5164H16.6742C16.4364 14.2247 16.1628 13.9639 15.86 13.7403C15.7733 13.6753 15.6867 13.6147 15.6 13.5588V11.4831H16.4667C17.1832 11.4795 17.7631 10.8996 17.7667 10.1831C17.7667 9.46513 17.1846 8.88311 16.4667 8.88311H14.7333V8.01644H15.6C15.8393 8.01644 16.0333 7.82241 16.0333 7.58311V6.28311H18.6333C19.3513 6.28311 19.9333 5.70108 19.9333 4.98311C19.9333 4.26513 19.3513 3.68311 18.6333 3.68311H7.36667C6.64869 3.68311 6.06667 4.26513 6.06667 4.98311C6.06667 5.70108 6.64869 6.28311 7.36667 6.28311H9.96667V7.58311C9.96667 7.82241 10.1607 8.01644 10.4 8.01644H11.2667V8.88311H9.53333C8.81682 8.88668 8.23691 9.46659 8.23333 10.1831C8.23333 10.9011 8.81535 11.4831 9.53333 11.4831H10.4V13.5588C10.3133 13.6147 10.2267 13.6745 10.143 13.7386C9.83894 13.9624 9.56437 14.2238 9.32577 14.5164H7.8V14.0831C7.79642 13.3666 7.21652 12.7867 6.5 12.7831C5.78202 12.7831 5.2 13.3651 5.2 14.0831V14.5164H0V20.5831H5.2V21.0164C5.2 21.7344 5.78202 22.3164 6.5 22.3164C7.21798 22.3164 7.8 21.7344 7.8 21.0164V20.5831H9.32663C10.9975 22.6119 13.9967 22.9019 16.0254 21.231C16.2618 21.0364 16.4787 20.8194 16.6734 20.5831H18.2V21.0164C18.2 21.7344 18.782 22.3164 19.5 22.3164C20.218 22.3164 20.8 21.7344 20.8 21.0164V20.5831H26V14.5164H20.8ZM5.2 19.7164H0.866667V15.3831H5.2V19.7164ZM6.93333 21.0164C6.93333 21.2557 6.73931 21.4498 6.5 21.4498C6.26069 21.4498 6.06667 21.2557 6.06667 21.0164V14.0831C6.06667 13.8438 6.26069 13.6498 6.5 13.6498C6.61678 13.6494 6.72848 13.6974 6.80853 13.7824C6.8894 13.8614 6.93447 13.9701 6.93333 14.0831V21.0164ZM7.36667 5.41644C7.12736 5.41644 6.93333 5.22241 6.93333 4.98311C6.93333 4.7438 7.12736 4.54977 7.36667 4.54977H18.6333C18.8726 4.54977 19.0667 4.7438 19.0667 4.98311C19.0667 5.22241 18.8726 5.41644 18.6333 5.41644H7.36667ZM10.8333 7.14977V6.28311H15.1667V7.14977H10.8333ZM13.8667 8.01644V8.88311H12.1333V8.01644H13.8667ZM9.53333 10.6164C9.29403 10.6164 9.1 10.4224 9.1 10.1831C9.09962 10.0663 9.14761 9.95463 9.2326 9.87457C9.31163 9.7937 9.42029 9.74863 9.53333 9.74977H16.4667C16.706 9.74977 16.9 9.9438 16.9 10.1831C16.9004 10.2999 16.8524 10.4116 16.7674 10.4916C16.6884 10.5725 16.5797 10.6176 16.4667 10.6164H9.53333ZM18.2 19.7164H16.4623C16.3259 19.7164 16.1975 19.7807 16.1157 19.8898C14.8281 21.6105 12.3894 21.9616 10.6687 20.6741C10.3711 20.4514 10.107 20.1873 9.88433 19.8898C9.80249 19.7807 9.67406 19.7164 9.53767 19.7164H7.8V15.3831H9.53767C9.6746 15.3824 9.80314 15.317 9.88433 15.2067C10.1994 14.7886 10.5959 14.4386 11.05 14.178C11.1845 14.1004 11.2672 13.9567 11.2667 13.8014V11.4831H14.7333V13.8014C14.7329 13.9567 14.8155 14.1004 14.95 14.178C15.0854 14.2563 15.2156 14.3432 15.34 14.438C15.6341 14.6546 15.8939 14.9143 16.1105 15.2085C16.1917 15.3188 16.3202 15.3841 16.4571 15.3848H18.2V19.7164ZM19.9333 21.0164C19.9333 21.2557 19.7393 21.4498 19.5 21.4498C19.2607 21.4498 19.0667 21.2557 19.0667 21.0164V14.0831C19.0663 13.9663 19.1143 13.8546 19.1993 13.7746C19.2783 13.6937 19.387 13.6486 19.5 13.6498C19.7393 13.6498 19.9333 13.8438 19.9333 14.0831V21.0164ZM25.1333 19.7164H20.8V15.3831H25.1333V19.7164Z" fill="#186282"/>
</svg>
