<svg fill="none" xmlns="http://www.w3.org/2000/svg" viewBox="0 0 108 43"><path fill-rule="evenodd" clip-rule="evenodd" d="M107.57 2.139c-.124.22-.309.543-.553.954l-1.719-1.021c.235-.397.412-.706.529-.914l.13-.234.032-.058.008-.016 1.764.943-.001.002-.003.005-.01.018-.036.067-.141.254zm-2.142 3.501a88.3 88.3 0 01-1.675 2.48l-1.638-1.148a86.286 86.286 0 001.637-2.423l1.676 1.091zm-3.436 4.91a97.063 97.063 0 01-1.818 2.354l-1.564-1.246a95.825 95.825 0 001.781-2.306l1.601 1.198zm-3.722 4.67a96.335 96.335 0 01-1.964 2.245l-1.484-1.34a94.424 94.424 0 001.923-2.199l1.525 1.294zm-3.999 4.428a91.302 91.302 0 01-2.108 2.121l-1.395-1.433a89.292 89.292 0 002.062-2.074l1.441 1.386zm-4.287 4.172a85.027 85.027 0 01-2.25 1.975L86.44 24.27a82.644 82.644 0 002.197-1.929l1.346 1.48zm-4.57 3.869a78.201 78.201 0 01-2.39 1.805l-1.175-1.619a76.252 76.252 0 002.329-1.76l1.235 1.574zm-4.85 3.515a71.724 71.724 0 01-2.528 1.61l-1.039-1.71a69.962 69.962 0 002.459-1.564l1.108 1.664zm-77.502 1.68l.719-.696.719-.695-.002-.001.005.005.038.036c.036.035.097.092.183.167.171.15.443.377.826.659l-1.188 1.61a14.574 14.574 0 01-.958-.766 8.056 8.056 0 01-.311-.288l-.02-.02-.007-.007-.002-.002-.001-.002h-.001zm72.377 1.431c-.87.478-1.758.94-2.662 1.386l-.883-1.795a64.46 64.46 0 002.582-1.344l.963 1.753zM9.896 37.084a35.348 35.348 0 01-2.832-1.401l.97-1.75c.753.418 1.64.865 2.671 1.322l-.809 1.829zm60.156-.12c-.912.396-1.84.774-2.783 1.132l-.709-1.87c.913-.347 1.81-.712 2.694-1.096l.798 1.834zm-54.271 2.25a52.242 52.242 0 01-2.976-.97l.677-1.881c.88.316 1.832.629 2.862.931l-.563 1.92zm48.652-.124c-.945.305-1.906.59-2.882.85l-.517-1.931c.942-.252 1.87-.527 2.785-.822l.614 1.903zm-42.576 1.576a68.46 68.46 0 01-3.058-.653l.463-1.946a66.57 66.57 0 002.969.634l-.374 1.965zm36.772-.023c-.971.208-1.956.392-2.955.551l-.315-1.975a55.796 55.796 0 002.853-.532l.417 1.956zm-30.631.941a85.298 85.298 0 01-3.088-.401l.294-1.978c.966.143 1.97.275 3.016.392l-.222 1.987zm24.696.006c-.499.053-1.001.1-1.507.14-.525.043-1.045.082-1.56.118l-.14-1.995c.509-.036 1.022-.074 1.54-.116.488-.039.974-.084 1.456-.136l.211 1.99zm-18.521.483c-1.062-.051-2.09-.117-3.088-.196l.157-1.993c.977.077 1.986.14 3.027.191l-.096 1.998zm12.371-.04c-1.052.053-2.082.093-3.089.121l-.056-2c.992-.027 2.007-.066 3.045-.118l.1 1.998zm-6.182.172c-1.059.005-2.09-.004-3.095-.025l.041-2c.989.021 2.003.03 3.045.025l.01 2z" fill="#186282"/><path d="M1.794 31.962l6.295-2.023a.504.504 0 01.568.22c.107.189.027.395-.18.461l-5.92 1.903 3.091 5.393c.108.188.029.395-.177.461a.485.485 0 01-.322-.014.485.485 0 01-.247-.205l-3.287-5.735a.32.32 0 01-.029-.276.32.32 0 01.208-.185z" fill="#186282"/><path fill-rule="evenodd" clip-rule="evenodd" d="M1.61 31.39l6.296-2.022a1.104 1.104 0 011.272.494c.135.237.17.524.066.791a.919.919 0 01-.583.538l-5.215 1.676 2.723 4.75a.919.919 0 01.068.791.918.918 0 01-.581.54c-.253.082-.51.057-.724-.025a1.085 1.085 0 01-.55-.466l-3.288-5.735a.92.92 0 01-.067-.792.92.92 0 01.583-.54zm.005 1.033l3.287 5.735a.485.485 0 00.247.205c.103.04.218.048.322.014.206-.066.285-.273.177-.46l-3.092-5.394 5.922-1.903c.206-.066.286-.273.18-.46a.504.504 0 00-.569-.221l-6.295 2.023a.32.32 0 00-.208.185.32.32 0 00.029.276z" fill="#186282"/></svg>