<svg width="0" height="0" class="hidden">
	<symbol xmlns="http://www.w3.org/2000/svg" viewBox="0 0 10 10" id="arrows-right"><path d="M9.75 4.4L5.6.26a.84.84 0 00-1.18 1.19L7.97 5 4.41 8.57a.84.84 0 001.18 1.18L9.75 5.6a.84.84 0 000-1.18zm-5-.25L1.45.67a.82.82 0 00-1.2 0 .93.93 0 000 1.27l2.7 2.85-2.7 2.85a.93.93 0 000 1.26c.33.35.87.35 1.2 0l3.3-3.48a.93.93 0 000-1.27z"/></symbol>

	<symbol xmlns="http://www.w3.org/2000/svg" viewBox="0 0 14 14" id="phone"><path d="M13.62 10.27l-1.95-1.95c-.7-.7-1.89-.42-2.17.49-.2.63-.9.98-1.53.84-1.4-.35-3.28-2.17-3.63-3.63-.21-.63.2-1.33.84-1.54.9-.28 1.18-1.46.48-2.16L3.71.37c-.56-.5-1.4-.5-1.88 0L.5 1.69c-1.32 1.4.14 5.1 3.42 8.38 3.28 3.27 6.98 4.81 8.37 3.41l1.33-1.32c.49-.56.49-1.4 0-1.89z"/></symbol>

	<symbol xmlns="http://www.w3.org/2000/svg" viewBox="0 0 20 20" id="arrows-down"><path d="M8.81 19.5L.5 11.2A1.68 1.68 0 012.87 8.8L10 15.94l7.13-7.13a1.68 1.68 0 012.38 2.38l-8.32 8.32c-.66.65-1.72.65-2.38 0zm-.5-10L1.35 2.9c-.7-.66-.7-1.74 0-2.4.7-.67 1.83-.67 2.53 0l5.7 5.4L15.26.5c.7-.67 1.83-.67 2.53 0 .7.66.7 1.74 0 2.4l-6.96 6.6c-.7.67-1.83.67-2.53 0z"/></symbol>

	<symbol xmlns="http://www.w3.org/2000/svg" viewBox="0 0 16 14" id="download"><path d="M8 9.67a.5.5 0 01-.36-.16l-3.5-3.66A.5.5 0 014.5 5h1.83V1.17c0-.46.38-.84.84-.84h1.66c.46 0 .84.38.84.84V5h1.83a.5.5 0 01.36.85L8.36 9.5a.5.5 0 01-.36.16z"/><path d="M14.83 13.67H1.17C.52 13.67 0 13.14 0 12.5v-.33C0 11.52.52 11 1.17 11h13.66c.65 0 1.17.52 1.17 1.17v.33c0 .64-.52 1.17-1.17 1.17z"/></symbol>

	<symbol xmlns="http://www.w3.org/2000/svg" viewBox="0 0 30 30" id="modal-close"><path d="M15 0a15.01 15.01 0 000 30 15.01 15.01 0 000-30zm0 28.49A13.51 13.51 0 011.51 15C1.51 7.57 7.57 1.51 15 1.51c7.43 0 13.49 6.06 13.49 13.49 0 7.43-6.06 13.49-13.49 13.49z"/><path d="M16.06 14.93l4.4-4.4a.77.77 0 000-1.06.77.77 0 00-1.06 0l-4.4 4.4-4.4-4.4a.77.77 0 00-1.06 0 .77.77 0 000 1.06l4.4 4.4-4.4 4.37a.77.77 0 000 1.05.78.78 0 001.06 0l4.4-4.4 4.4 4.4a.78.78 0 001.06 0 .77.77 0 000-1.05l-4.4-4.37z"/></symbol>
</svg>